<svg height="100" viewBox="0 0 100 100" width="100" xmlns="http://www.w3.org/2000/svg"><path d="m50.5810031 21.7692308c3.9412008 0 8.8815789-2.7463447 11.8236022-6.4081373 2.6644736-3.3184999 4.6073188-7.95295613 4.6073188-12.58741282 0-.62937047-.0555096-1.25874094-.1665294-1.77368068-4.3852798.17164658-9.6587171 3.03242211-12.8227798 6.86586126-2.4979438 2.91799134-4.7738487 7.49523224-4.7738487 12.18690424 0 .6865859.1110202 1.3731722.1665299 1.6020341.2775491.0572159.721628.1144312 1.165707.1144312zm-13.8774667 69.2307692c5.384457 0 7.7713816-3.7190084 14.4880754-3.7190084 6.8277141 0 8.3264803 3.6045772 14.3215461 3.6045772 5.884046 0 9.8252469-5.6071199 13.5444079-11.099809 4.1632399-6.2937066 5.884046-12.4729815 5.9950658-12.7590593-.3885689-.1144308-11.6570724-4.8633187-11.6570724-18.1945327 0-11.5575333 8.881579-16.7641451 9.3811675-17.1646536-5.8840455-8.6967578-14.8211346-8.9256197-17.2635688-8.9256197-6.6056741 0-11.9901316 4.1195169-15.3762338 4.1195169-3.6636508 0-8.4930096-3.890655-14.2105263-3.890655-10.8799342 0-21.9263978 9.2689129-21.9263978 26.7768597 0 10.870947 4.1077303 22.371265 9.1591285 29.8092813 4.3297693 6.2937067 8.1044403 11.4431026 13.5444079 11.4431026z"/></svg>