<svg height="97" viewBox="0 0 71 97" width="71" xmlns="http://www.w3.org/2000/svg" xmlns:xlink="http://www.w3.org/1999/xlink"><mask id="a" fill="#fff"><path d="m51.6754727 76.0548358 1.2078182 1.1286947c-.7950364-.7440631-.9874909-1.9324421-.5627636-3.5585052l-1.2078182-1.1286948c-.4247273 1.6260632-.2349273 2.8157684.5627636 3.5585053" fill="#fff" fill-rule="evenodd"/></mask><g fill="none" fill-rule="evenodd"><path d="m29.2261145 65.8743011s-3.0036181-1.9775369-4.9281636-.5941895c-1.9232182 1.382021-5.3860727 2.7972-5.3860727 2.7972s-3.3394182 2.8674947-4.5127273-.2413895c-1.1719818-3.1088842 8.2835091-9.9619579 8.2835091-9.9619579l13.9947636-.2679158s7.4712182 13.3865053-7.4513091 8.2682527" fill="#020303"/><path d="m19.8353945 66.2045537s-5.8678727 4.0386316-4.9918727 9.370421c.8773273 5.3317895 8.3538546 10.0415369 10.4668727 10.3266948 2.111691.2838316 9.6094546-7.9393263 9.6094546-7.9393263s-4.9693091-3.5624843-3.7707818-7.5507158c1.1985272-3.9882316-11.3136728-4.2070737-11.3136728-4.2070737" fill="#8e735e"/><path d="m57.2689982 62.1313053c1.7174909 1.1074736 2.6187091 11.7060631 2.7753273 13.0164631.1718723 1.4468877.0281187 6.2307825-.0374215 8.8526312l-36.890451.0001381c.0326016-.4744966.0712289-.9965915.1358725-1.615064.0398181-.3872842.3344727-5.0559158.1844909-5.3477053-1.3949637-2.7255789-.1088364-1.2109263-.2203273-7.0785473-.0384909-2.0610948 3.5464727-2.9961474 7.1048909-1.6486106 15.8210909 5.9869895 23.4515818-8.4353684 26.9476182-6.1793052z" fill="#20201f"/><path d="m19.8353945 66.2045537s-8.3512 4.3940842-7.4698909 11.0309684c.7127455 5.3556632 7.5243091 10.6702105 9.636 10.9553684 2.1130182.2851579 10.8902728-8.7921473 10.8902728-8.7921473s-5.4192546-3.3383369-4.2207273-7.3265685c1.1985273-3.9869052-8.8356546-5.867621-8.8356546-5.867621" fill="#20201f"/><g fill="#fefefe"><path d="m32.7412636 79.4250042c-.0345091-.1710947-.0305272-.3262737.0119455-.4681895.0438-.1419158.1207818-.2705684.2282909-.3859579.1088364-.1140631.2455455-.2214947.4101273-.3156631.1659091-.0941684.3530545-.180379.5587818-.2573053s.4300364-.147221.6716-.2082316c.2415636-.0636631.4910909-.122021.7512364-.1764.3543818-.0729473.7260181-.1366105 1.1188909-.1883368.3942-.0517263.8083091-.0835579 1.2449818-.0954947.1008727 0 .1765273.0225473.2282909.0663158.0504364.0450947.0822909.0994736.0955636.1644631.0092909.0411158.0079637.0822316-.0026545.1246737s-.0278727.0822316-.0504364.1206947c-.0252182.0397895-.0544182.0729474-.0915818.0994737-.0358364.029179-.0769818.0477474-.1207818.0557053-.1579455.0331579-.3225273.0583579-.4937455.0782526-.1738727.0185684-.3543818.0371369-.5428545.054379-.1871455.0185684-.3809273.0371368-.5800182.0583579-.2004182.0198947-.4034909.046421-.6132.0795789.0106182.2334316.0159273.4894105.0132727.7626316-.0026545.273221-.0092909.5544-.0212363.8408842-.0119455.2864842-.0252182.5729684-.0424728.8594526-.0185818.2864842-.0358363.5610316-.0530909.8209895-.0185818.2612842-.0358363.5026737-.0517636.7241684-.0172546.2214948-.0292.4111579-.0358364.5689895-.0026545.071621-.0132727.1405895-.0345091.2055789-.0225636.0649895-.0491091.1233474-.0822909.1750737-.0318545.0504-.0676909.0928421-.1088363.126-.0398182.0318316-.0783091.0530527-.1168.0610105-.1154728.0225474-.2176728.0159158-.3039455-.0238736-.0862727-.0384632-.1420182-.1193685-.1685636-.2413895-.0079637-.0384632-.0106182-.0822316-.0079637-.1313053-.0119454-.1896631-.0132727-.378-.0079636-.5663368.0066364-.1883369.0185818-.3846316.0384909-.5902105.0172546-.2069053.0424727-.4270737.0716727-.6578527.0305273-.2334316.0637091-.4907368.1008728-.7705894.0371636-.2785264.0756545-.5875579.1168-.9244422.0424727-.3368842.0836181-.7095789.1274181-1.1220631-.1061818.0318316-.2123636.0623368-.3212.096821-.1088363.0318316-.2136909.0689685-.3145636.1074316-.1008727.0384632-.1937818.0809053-.2787273.1273263-.0849454.0450948-.1566181.0941685-.2163454.1485474-.0597273.0557053-.1035273.1153895-.1314.180379-.0278727.0636631-.0331818.1352842-.0185818.2135368.0013272.0039789.0039818.0265263.0066363.0676421.0039818.0424421-.0053091.0901895-.0252182.1432421-.019909.054379-.0597272.1087579-.1168.1618105-.0584.0530527-.1486545.0915158-.2694363.1180421-.1221091.0238737-.2203273.0238737-.2959818-.0026526-.0769819-.0265263-.1340546-.0610105-.1752-.1034526-.0477819-.0490737-.0809637-.1100842-.1008728-.1817053"/><path d="m36.6660091 82.1682232c-.0185818-.0888632-.0345091-.1936421-.0491091-.3143369-.0159273-.1206947-.0278727-.2493474-.0371636-.3846316-.0106182-.1352842-.0185819-.273221-.0238909-.4164631-.0053091-.1405895-.0066364-.2772-.0066364-.4058527.0013273-.1299789.0039818-.2493473.0079636-.3581052.0053091-.1087579.0146-.1989474.0265455-.2718948.0066363-.0477473.0159273-.0862105.0265454-.1167157.0106182-.029179.0252182-.054379.0424728-.0742737.0185818-.0185684.0424727-.0358106.0743272-.0464211.0292-.0119368.0690182-.0225473.1154728-.0318316.0530909-.0119368.0942363-.0172421.1247636-.0185684s.0557455.0066316.073.0238737c.0185818.0145895.0331818.0411158.0424727.0769263.0106182.0371369.0225637.0862105.0371637.1485474.0159272.0742737.0331818.1671158.0557454.273221.0212364.1061053.0464546.2108843.0716727.3130106l.0331819-.0066316c.0238909-.0888632.0504363-.1896632.0796363-.3010737.0318546-.1100842.0703455-.2161895.1194546-.3183158.0477818-.1008.1088363-.1909895.1818363-.2679158.0743273-.0769263.1659091-.1273263.2774-.1512.0384909-.0079579.0783091-.0092842.1168-.0039789.0384909.0053052.0756546.0185684.1075091.0358105.0318546.0198947.0610546.0450947.0836182.0769263.0238909.0318316.0411455.0702948.0504364.1153895.0066363.0344842.0119454.0835579.0146.147221.0026545.0636632.0053091.1313053.0066363.2029264.0026546.0689684.0053091.1379368.0079637.2042526.0026545.0663158.0092909.1206947.0185818.1631368.0146.0729474.0345091.1326316.0597273.1777264.0225636.046421.0504363.0809052.0796363.1061052.0305273.0238737.0597273.0397895.0915818.0450948.0331819.0066315.0650364.0066315.0982182-.0013264.0902546-.0185684.1805091-.0583579.2707637-.1193684.0876-.0610105.1685636-.126.2375818-.1923158.0849454-.0795789.1645818-.1644631.2389091-.2599579l.1022.7215158c-.0451273.0450948-.0968909.0968211-.1552909.1525263-.0584.0570316-.1207819.1127369-.1884728.1657895-.0690181.054379-.1420181.1021263-.219.1445684-.0769818.0424421-.1579454.0729474-.2428909.0888632-.1513091.0331579-.2813818.0278526-.3875636-.0145895-.1061818-.0437684-.1977636-.1087579-.2734182-.197621-.0756545-.0888632-.1406909-.1936421-.1924545-.3130106-.0530909-.1193684-.0995455-.2413894-.1420182-.3660631l-.0491091.0106105-.2296182 1.6326947c-.0119454.0848843-.0252182.155179-.0398182.2122106-.0146.0583579-.0318545.1047789-.0504363.1419158-.0199091.0397894-.0451273.0676421-.0716728.0875368-.0278727.0185684-.0597272.0331579-.0955636.0397895-.0849455.0185684-.1552909.0145894-.2136909-.0106106s-.1075091-.0649894-.146-.1193684c-.0398182-.0543789-.073-.1180421-.0982182-.1923158-.0252182-.0742736-.0451273-.1512-.0623818-.2334315"/><path d="m39.8105836 81.1502758c.0106182.0504.0238909.0994737.0398182.1445684.0185818.0477474.0398182.0875369.0650364.1206947.0278727.0344843.0570727.0583579.0915818.0769264.0371636.0172421.0769818.0198947.1234364.0106105.0756545-.0159158.1380363-.0623369.1844909-.1405895.0477818-.0769263.0836182-.1671158.1101636-.2665895.0252182-.1008.0411455-.2029263.0491091-.3050526.0066364-.1047789.0079636-.1883368.0026545-.2559789l-.0013272-.9337264c-.0836182.0185685-.1592728.0557053-.2309455.1140632-.0703454.0583579-.1327273.129979-.1871454.2148632-.0557455.0862105-.1048546.1803789-.1433455.2838315-.0398182.1034527-.0716727.2095579-.0929091.3196421-.0212363.1087579-.0345091.2161895-.0358363.3222948-.0026546.1074316.005309.2055789.0252181.2944421zm2.6505637-.3010737c-.0318546.0756-.0796364.1644632-.1393637.2692421-.0597272.1021263-.1300727.2042526-.2123636.3037263-.0796364.0981474-.1698909.1883369-.2720909.2652632-.0995455.0782526-.2057273.1286526-.3172182.1525263-.1340545.0278526-.2548364.0066316-.3610182-.0596842-.1075091-.0676421-.2123636-.1777263-.3105818-.3276-.0371636.0663158-.0849454.1366105-.1433454.2108842-.0584.0729474-.126091.1419158-.2004182.2082316-.0743273.0649895-.1539637.122021-.2389091.1710947-.0849455.0490737-.1725455.0835579-.2641273.1034526-.0982182.0198948-.1964364.0198948-.2973091-.0013263-.1008727-.0198947-.1951091-.0596842-.2813818-.1193684-.0849455-.0596842-.1619273-.1366105-.2269636-.2360842-.0650364-.0968211-.1114909-.2122105-.1380364-.3461684-.0318545-.1525263-.0438-.3130105-.0345091-.482779.0092909-.1697684.0358364-.3368842.0796364-.5053263.0424727-.1697684.1022-.3329052.1765272-.4907368.073-.1578316.1619273-.2984211.2614728-.4257474.1008727-.1273263.2123636-.2347579.3358-.3222947.1221091-.0875369.2535091-.1458948.3942-.1750737.0464545-.0106105.0836182-.0092842.1154727.0039789.0292.0132632.0557455.0305053.0769818.0490737.0225637.0198948.0438.0384632.0650364.0583579.0212363.0185684.0438.0318316.0716727.0358105.0252182.003979.0530909.0066316.0783091.003979.0265455-.0026526.0517636-.0053053.0783091-.0106105.0225636-.0053053.0451273-.0106106.0690182-.0159158.0225636-.0066316.0451272-.0119369.0676909-.0159158.0305273-.0066316.0597273-.0106105.0876-.0092842.0265454 0 .0530909.0092842.0769818.0252.0252182.0172421.0477818.0411158.0650364.0756.0199091.0344842.0358363.0822315.0477818.1458947.0212363.0968211.0331818.2069053.0384909.3302526.0039818.1233474.0079636.2493474.0092909.3793264.0013273.1299789.0039818.2586315.0092909.3886105.0066364.1286526.0212364.2493473.0451273.3607579.0185818.0954947.0438.1671158.0716727.2188421.0278727.0504.0703455.0676421.1274182.0570316.0424727-.0079579.0849454-.029179.1287454-.0596843.0411455-.0318315.082291-.0689684.1221091-.1127368.0424728-.0450947.0809637-.0941684.1194546-.1485474.0398182-.0530526.0743273-.1074315.1075091-.1631368.0769818-.129979.1526363-.2745474.2243091-.4337053z"/><path d="m41.9608982 77.7904526c-.0092909-.046421-.0106182-.1008-.0013273-.1644631.0079636-.0623369.0292-.1246737.0637091-.1870106.0345091-.0610105.0862727-.1167157.1552909-.1684421.0690182-.0517263.1606-.0888631.2734182-.1127368.0716727-.0132632.1406909-.0198947.2057273-.0159158.0676909.0026526.1274181.0159158.1805091.0397895.0544181.0238737.0995454.0596842.1393636.1087579.0384909.0490737.0650364.1114105.0809636.1870105.0146.0676421.0185818.1379368.0092909.2082316-.0092909.0689684-.0318545.1339579-.0716727.1949684-.0371636.0610105-.0902545.1140632-.1579454.1604842-.067691.0490737-.1526364.0822316-.2561637.104779-.1791818.0358105-.3198727.021221-.4234-.0450948-.1022-.0663158-.1685636-.1697684-.1977636-.3103579zm2.0134727 2.8462737c-.0584.0822316-.1353818.1724211-.2282909.2718948-.0929091.0994736-.1951091.1923157-.3079273.2825052-.1128182.0915158-.2309454.1697684-.3517272.2400632-.1221091.0702947-.242891.1180421-.359691.1419158-.1061818.021221-.1977636.0252-.2760727.0106105-.0783091-.0132632-.1446727-.0424421-.2004182-.0862105-.0557454-.0437685-.1008727-.1008-.1367091-.1737474-.034509-.0716211-.0623818-.1538526-.0809636-.2453684-.0265454-.1273263-.0438-.2785263-.0477818-.4536-.0066364-.1764-.0066364-.3594316-.0013273-.5490948.0039818-.1909894.0106182-.3819789.0212364-.5729684s.0172545-.3647368.0225636-.5238947c.0039818-.0557053.0212364-.1087579.0570727-.155179.0345091-.0450947.0756546-.0862105.1247637-.1206947.0504363-.0344842.1022-.0623368.1579454-.0862105.0557455-.0238737.1075091-.0397895.1539637-.0490737.0836182-.0185684.146-.0145895.1831636.0106105s.0597273.0649895.0716727.1180421c.0092909.0437684.0119455.1100842.0092909.1989474-.0026545.0875368-.0079636.1896631-.0172545.3024-.0066364.1127368-.0159273.2334316-.0252182.3634105-.0092909.129979-.0159273.2586316-.0212363.3886105-.0039819.129979-.0053091.2533264-.0013273.3753474.0039818.1206947.0159273.2281263.0358363.3209684.0185819.0915158.0438.1618106.0756546.2122106.0318545.0490736.0783091.0663157.1420182.0543789.0716727-.0159158.1486545-.0570316.2282909-.1273263.0783091-.0689684.1552909-.1485474.2309454-.2400632.0769819-.0915158.1513091-.1856842.2216546-.2798526.0716727-.0954947.1353818-.1777263.1911273-.2453684z"/><path d="m44.0684745 78.7540211c.0570728-.1817053.1168-.3846316.1778546-.608779.0597273-.2241474.1128182-.4536.1592727-.6883579.0464546-.2334316.0809637-.4642105.1035273-.6923368.0238909-.2281263.0238909-.4363579.0039818-.6246948-.0132727-.0596842-.0252182-.1087579-.0358364-.1498737-.0119454-.0411157-.0265454-.0596842-.0424727-.0570315-.0597273.0132631-.1141454.0649894-.1672363.1538526-.0517637.0915158-.0982182.2082316-.1393637.3514737-.0398182.1445684-.0743273.3090316-.0995454.4947158-.0265455.1856842-.0424728.3806526-.0517637.5849052-.0079636.205579-.0053091.4138106.0092909.6260211.0146.2108842.0424728.4151368.0822909.6101053m.5043637 2.4351157c-.1101637.0238737-.2216546-.0039789-.3371273-.0809052-.1141454-.0769263-.2229818-.1883369-.3265091-.3368842-.1035273-.1472211-.1990909-.3249474-.2827091-.5305263-.0836182-.205579-.1499818-.4257474-.1990909-.6618316-.0384909-.180379-.0650363-.3793263-.0836182-.5968421-.0185818-.2175158-.0238909-.4443158-.0212363-.6804.0039818-.2360842.0172545-.4734948.0411454-.7162106.0212364-.2413894.0557455-.4761473.1008728-.7042736.0451272-.2268.0995454-.4416632.165909-.6445895.0663637-.2042526.140691-.3846316.2269637-.5437895.0849454-.1591579.1831636-.2878105.2906727-.3925895.1075091-.1021263.2243091-.1657894.3530546-.1936421.0876-.0185684.1632545-.0132631.2282909.0145895.0663636.0278526.1207818.0702947.1672363.1286526.0451273.0583579.0836182.1273264.1141455.2069053s.0544182.1618105.073.2466947c.0384909.1909895.0584.3899369.0557454.5968421-.0026545.2069053-.0212363.4177895-.0530909.6326527-.0331818.2161894-.0769818.4337052-.1327272.6552-.0557455.2214947-.1154728.4416631-.1805091.6618316-.0637091.2188421-.1287455.4363578-.1951091.6498947-.0676909.2135368-.1287455.4230947-.1844909.6246947-.0053091.0225474-.0106182.0504-.0159273.0862106-.0039818.0344842-.0066364.0702947-.0079636.1100842-.0026546.0411158-.0053091.0822315-.0066364.1273263-.0013273.0437684 0 .0888631.0026545.1299789l.0066364.0424421c.0119455.0530527.0278727.1021263.0504364.1498737.0212363.0477474.0438.0901895.0676909.126.0252182.0358105.0477818.0636632.0716727.0835579.0238909.0185684.0424727.0278526.0597273.0238737.0384909-.0079579.0809636-.0252.1274182-.0517263.0464545-.0265263.0942363-.0596842.1446727-.0981474.0504363-.0384631.1008727-.0835579.1526363-.1299789.0504364-.0477474.0995455-.0954948.1486546-.1432421.1101636-.1127369.2229818-.2387369.3397818-.3793264l.3835818.5875579c-.1552909.1671158-.3092545.3196421-.4645454.4589053-.0690182.0583579-.1393637.1167158-.2123637.1764-.0743272.0570316-.1499818.1127368-.2256363.1618105-.0769818.0504-.1513091.0928421-.2269637.1273263-.0756545.0371369-.1473272.0610106-.2163454.0756"/><path d="m47.5811018 75.3087832c-.0013273-.0079579-.0066363-.0252-.0159273-.0504-.0079636-.0265264-.019909-.0517264-.0371636-.0782527-.0185818-.0252-.0384909-.0477473-.0637091-.0649894-.0238909-.0185685-.0544182-.0238737-.0889273-.0172422-.0411454.0092843-.0769818.0464211-.107509.1127369-.0331819.0676421-.0597273.1538526-.082291.2612842-.0212363.1074316-.0398181.2294526-.0530909.3660632-.0146.1379368-.0252181.2811789-.0345091.4310526-.0092909.1485474-.0159272.2997474-.0185818.4522737-.0039818.1538526-.0053091.298421-.0053091.4350316 0 .1366105.0013273.2612842.0026546.374021.0026545.1127368.0053091.2042526.0066363.2732211.0318546-.1167158.0716728-.2387369.1154728-.3673895.0451272-.1273263.0889272-.2599579.1327272-.3965684.0438-.1379369.0849455-.2772.1234364-.4204421.0398182-.1419158.0716727-.2864843.0982182-.432379.0252182-.1458947.0411454-.2931158.0477818-.4390105.0066364-.1458948 0-.2931158-.0199091-.4390105zm.2813818 2.8502526c-.0703454.0145895-.1393636.0450947-.2030727.0888631-.0650364.0437685-.1221091.1034527-.1698909.1790527-.0477818.0729473-.0862727.1644631-.1114909.2705684-.0278727.1061053-.0384909.2294526-.0318546.3700421.0039819.1127368.0106182.2175158.0172546.3116842.0079636.0954948.0146.1790526.0212364.252.0079636.0822316.0172545.1604842.0252181.2334316.0716728.0039789.1433455.0079579.2123637.0079579.0610545 0 .1260909-.0013263.1924545-.003979.0676909-.0026526.1300727-.0106105.1884727-.0238736.0703455-.0145895.1287455-.0477474.1765273-.0994737.0491091-.0530527.0889273-.1180421.1194546-.1949684.0292-.0769264.0517636-.1631369.0663636-.2573053.0159273-.0928421.0212364-.1909895.0225636-.2891369 0-.0981473-.0039818-.1936421-.0119454-.2891368-.0092909-.0941684-.0225637-.1790526-.0384909-.2573053-.0106182-.0504-.0252182-.096821-.0464546-.1405894-.0199091-.0437685-.0491091-.079579-.0849454-.1074316-.0384909-.029179-.0836182-.0490737-.1406909-.0583579-.0557455-.0106105-.1234364-.0079579-.2030728.0079579zm-.3198727-.1657895c.0836182-.1657895.1645818-.2997474.2402364-.4058526.0769818-.1061053.1619272-.1684421.2561636-.1883369.1194546-.0238736.2322727-.0198947.3358.0132632.1048546.0318316.1977636.0862105.2813818.1604842.0822909.0729474.1539637.1631369.2123637.2692421.0584.1061053.0995454.2214948.1247636.3461684.0225636.1034527.0384909.2016.0504364.2970948.0092909.0928421.0132727.1856842.0106181.2785263-.0026545.0928421-.0132727.1870105-.0331818.2811789-.0199091.0968211-.0491091.1962948-.0902545.3024.0623818-.0570315.1287454-.1140631.1951091-.1710947.0676909-.0557053.1340545-.1167158.1990909-.1817053.0663636-.0636631.1314-.1339579.1964363-.2095579.0650364-.0769263.1300728-.1631368.1937819-.2612842l.3384545.4536c-.0902545.1246737-.1818364.2360842-.2787273.3342316-.0942363.0981474-.1937818.1870105-.2986363.2679158-.1061818.0795789-.2176728.1525263-.3358.2201684-.1194546.0676421-.2468728.1313053-.3809273.1923158-.0278727.0424421-.0676909.0875369-.1207818.1339579-.0517637.0464211-.1048546.0901895-.1579455.129979-.0597272.0477473-.1260909.0941684-.1977636.1405894l-.0743273.0159158c-.1738727.0358105-.3490727.0477474-.5295818.0344842-.1791818-.0119368-.3450909-.0331579-.4950727-.0636631-.1738728-.0331579-.3437637-.0782527-.5083455-.1352842-.0265454-.1657895-.0544182-.3541264-.0783091-.5650106-.0212363-.1817052-.0424727-.3965684-.0650363-.6445894-.0225637-.2493474-.0384909-.5278737-.0530909-.835579-.0079637-.2069053-.0146-.4350316-.0159273-.6910105-.0026546-.2546526.0039818-.5146105.0172545-.7785474.0146-.2639368.0371637-.5225684.0703455-.777221.0331818-.2533264.0809636-.482779.1433454-.6870316.0610546-.2069053.1406909-.3766737.2362546-.5132842.0955636-.1379369.2123636-.2188421.3490727-.2480211.1566182-.0318316.2840364-.0318316.3888909.0013263.1048546.0344842.1911273.0901895.2614727.1697685.0690182.0809052.1247637.1790526.1672364.2970947.0411455.1193684.0756546.248021.1048546.3846316.0398181.1936421.0451272.4005473.0159272.6193894-.0292.2201685-.0809636.4443158-.1539636.6724422-.073.2281263-.1619273.4536-.2641273.6777473-.1022.2254737-.2070545.4376842-.3132363.6406105z"/><path d="m49.8856455 77.5235979c.0570727-.1817053.1168-.3846316.1765272-.608779.0610546-.2241473.1141455-.4536.1606-.6883578.0464546-.2334316.0796364-.4642106.1035273-.6923369.0225636-.2281263.0238909-.4363579.0026545-.6246947-.0119454-.0596842-.0238909-.1087579-.034509-.1498737-.0119455-.0411158-.0265455-.0596842-.0438-.0557053-.0584.0119369-.1141455.0636632-.1659091.1525263-.0517637.0915158-.0982182.2082316-.1393637.3528-.0411454.1432421-.0756545.3077053-.1008727.4933895-.0265455.1856842-.0424727.3806526-.0504364.5849053-.0092909.2055789-.0053091.4138105.0092909.626021.0132728.2108842.0411455.4151369.082291.6101053m.5030363 2.4351158c-.1088363.0238737-.2216545-.003979-.3358-.0809053-.1141454-.0756-.2243091-.1883368-.3278363-.3368842-.1035273-.147221-.1977637-.3249474-.2813819-.5305263-.0836181-.205579-.1513091-.4257474-.1990909-.6618316-.0384909-.1803789-.0663636-.3793263-.0836182-.5968421-.0185818-.2175158-.0252181-.4443158-.0212363-.6804.0026545-.2360842.0172545-.4734947.0398182-.7162105.0225636-.2413895.0570727-.4761474.1022-.7042737.0438-.2268.0995454-.4416632.1659091-.6445895.0650363-.2042526.1406909-.3846316.2269636-.5437894.0849454-.1578316.1818364-.2878106.2906727-.3925895.1075091-.1021263.2243091-.1657895.3530546-.1936421.0876-.0185684.1632545-.0132632.2282909.0145894.0650363.0278527.1207818.0702948.1659091.1286527.0464545.0583579.0849454.1273263.1154727.2069052.0292.079579.0544182.1618106.0716727.2466948.0398182.1909895.0584.3899368.0557455.5968421-.0013273.2069052-.0199091.4177895-.0517637.6339789-.0331818.2148632-.0769818.432379-.1327272.6538737-.0557455.2214948-.1154728.4416632-.1805091.6618316-.0650364.2188421-.1287455.4363579-.1964364.6498947-.0663636.2135369-.1274182.4230948-.1831636.6246948-.0066364.0225473-.0119455.0504-.0159273.0862105-.0053091.0344842-.0066364.071621-.0092909.1100842-.0026546.0411158-.0039818.0822316-.0053091.1273263-.0013273.0437684-.0013273.0888632.0013273.129979l.0079636.0424421c.0106182.0530526.0278727.1021263.0504364.1498737.0199091.0477473.0438.0901894.0676909.126.0252182.0358105.0477818.0636631.0716727.0835579.0238909.0185684.0424727.0278526.0584.0238736.0384909-.0079579.0822909-.0238736.1287455-.0517263.0464545-.0252.0942363-.0596842.1433454-.0981473.0504364-.0384632.1008727-.0822316.1526364-.129979.0517636-.0477474.1008727-.0954947.1486545-.1432421.1101637-.1114105.2243091-.2387368.3397818-.3793263l.3849091.5875579c-.1552909.1671158-.3092545.3196421-.4645454.4589052-.0690182.0583579-.1406909.1167158-.2136909.1764-.073.0570316-.1486546.1127369-.2243091.1618106-.0769818.0504-.1526364.0928421-.2282909.1273263-.0756546.0371368-.146.0610105-.2163455.0756"/><path d="m51.84032 78.6284189c.0119455.0504.0252182.0994737.0411455.1445685.0172545.0477473.0398181.0875368.0650363.1206947.0265455.0344842.0570727.0583579.0915818.0769263.0371637.0172421.0769819.0198948.1234364.0106105.0756545-.0159157.1367091-.0623368.1844909-.1405894.0477818-.0769263.0836182-.1671158.1101636-.2665895.023891-.1008.0411455-.2029263.0491091-.3050526.0066364-.104779.0079637-.1883369.0026546-.255979l-.0013273-.9324c-.0836182.0172421-.1592727.054379-.2309454.1127369-.0703455.0583579-.1327273.1299789-.1871455.2148631-.0557455.0862105-.1048545.180379-.1433455.2838316-.0398181.1034526-.0716727.2095579-.092909.3196421-.0225637.1087579-.0345091.2161895-.0371637.3222947-.0013273.1074316.0066364.205579.0252182.2944421zm2.6518909-.3010736c-.0331818.0756-.0809636.1644631-.1393636.2692421-.0597273.1021263-.1314.2042526-.2123637.3037263-.0809636.0981474-.1712181.1883368-.2720909.2652631-.0995454.0782527-.2057272.1286527-.3172182.1525264-.1353818.0278526-.2548363.0066315-.3610181-.0596843-.1075091-.0676421-.2123637-.1777263-.3105819-.3276-.0371636.0663158-.0849454.1366106-.1433454.2108843-.0597273.0729473-.1260909.1419157-.2004182.2082315-.0743273.0649895-.1539636.1220211-.2389091.1710948-.0849454.0490737-.1738727.0835579-.2641273.1034526-.0982181.0198947-.1977636.0198947-.297309-.0013263-.1008728-.0198947-.1951091-.0596842-.2813819-.1193684-.0862727-.0596842-.1619272-.1366106-.2269636-.2360842-.0650364-.0968211-.1114909-.2122106-.1380364-.3461685-.0331818-.1525263-.0438-.3130105-.0345091-.4827789.009291-.1697684.0358364-.3368842.0796364-.5053263.0424727-.1697684.1008727-.3329053.1765273-.4907369.073-.1578315.1606-.298421.2614727-.4257473.1008727-.1273264.2123636-.2347579.3358-.3222948.1221091-.0875368.2521818-.1458947.3942-.1750737.0464546-.0106105.0836182-.0092842.1154727.003979.0292.0132631.0557455.0305053.0769819.0490737.0225636.0198947.0438.0384631.0650363.0583579.0212364.0185684.0438.0318315.0716727.0358105.0252182.0039789.0517637.0066316.0769819.0039789.0278727-.0026526.0530909-.0053052.0796363-.0106105.0212364-.0053052.0451273-.0106105.0690182-.0159158.0225636-.0066316.0451273-.0119368.0663636-.0159158.0318546-.0066315.0597273-.0106105.0889273-.0092842.0265455 0 .0530909.0092842.0769818.0252.0252182.0172421.0477819.0411158.0650364.0756.0199091.0344842.0358364.0822316.0477818.1458948.0212364.096821.0331818.2069052.0384909.3302526.0039818.1233474.0066364.2493474.0092909.3793263 0 .129979.0039819.2586316.0092909.3886105.0053091.1286527.0212364.2493474.0438.3607579.0199091.0954948.0438.1671158.0716728.2188421.0292.0504.0716727.0689685.1287454.0570316.0424728-.0079579.0849455-.0291789.1274182-.0596842.0424727-.0318316.0836182-.0689684.1234364-.1127368.0411454-.0450948.0809636-.0941685.1194545-.1485474.0398182-.0530526.0743273-.1074316.1075091-.1631368.0769818-.129979.1526364-.2745474.2243091-.4337053z"/><path d="m53.6120964 78.6957958c-.0092909-.0450947-.0092909-.0835579.0013272-.1167158.0106182-.0318316.0265455-.0649895.0464546-.0968211.0212363-.0331578.0464545-.0649894.0756545-.0994736.0278728-.0358106.0570728-.0769264.0849455-.1246737l.6822182-1.4682316c-.0398182-.0092842-.0743273-.0185684-.1035273-.0265263-.0305273-.0092842-.0557455-.0172421-.0796364-.0238737-.0238909-.0053053-.0477818-.0092842-.0716727-.0119368-.0225636-.0013264-.0477818.0013263-.0743273.0066315-.0650363.0132632-.1181272.0252-.1606.0358106-.0411454.0119368-.0769818.0252-.1035272.0437684-.0278728.0185684-.0491091.0424421-.067691.071621-.0185818.029179-.0371636.0689685-.0570727.1206948-.0411454.1100842-.0809636.1923158-.1128182.2466947-.0331818.054379-.0676909.0862105-.1022.0915158-.0331818.0066316-.0584-.0026526-.0783091-.0291789-.0172545-.0278527-.0331818-.0649895-.0438-.1127369-.0039818-.021221-.0079636-.0424421-.0106181-.0663158-.0026546-.0238737-.0039819-.0490737-.0053091-.0729473-.0066364-.1830316.0079636-.3355579.0424727-.4562527.0331818-.122021.0796364-.2201684.1367091-.2944421.0570727-.0756.1221091-.1313052.1951091-.1671158.0703454-.0371368.1393636-.0636631.2044-.0756.0477818-.0106105.0995454-.0092842.1526363.003979.0544182.0132631.1075091.0291789.1606.0477473.0544182.0185685.1075091.0344843.1632546.0477474.0544182.0119369.1075091.0132632.1606.0053053.0424727-.0066316.0796364-.0132632.1128182-.0198948.0345091-.0066315.0637091-.0132631.0929091-.0198947.0809636-.0159158.146-.0318316.1937818-.0450947.0477818-.0132632.0849454-.0238737.1088363-.0331579.0252182-.0092842.0411455-.0172421.0517637-.0225474.0092909-.0053053.0172545-.0079579.0238909-.0092842.0690182-.0132632.1260909-.0013263.1685636.0437684.0424728.0424421.0703455.1074316.0889273.1923158.0119455.0543789.0185818.1140632.0185818.1803789 0 .0172422-.0159273.0411158-.0477818.0742737s-.0876.0689685-.1672364.1087579c-.0159272.0517263-.0438.1220211-.0836181.2161895-.0398182.0915158-.0862728.1962947-.1393637.3103579-.0530909.1153895-.1088363.2334316-.1672363.3567789-.0584.1206948-.1141455.2360843-.1672364.3435158-.0530909.1061053-.0995455.2002737-.1393636.2785263-.038491.0809053-.0663637.1339579-.0783091.1618106l-.0026546.0636631c.0026546 0 .0212364.0026527.0597273.0106106.0371636.0066315.0809636.0145894.1300727.0225473.0504364.0066316.1035273.0119369.1579455.0145895.0544182.0039789.1022.0013263.1406909-.0066316.0849454-.0172421.1606-.046421.2256363-.0862105.0650364-.0384632.1234364-.0848842.1752-.1366105.0517637-.0504.0982182-.1034527.140691-.1578316.0424727-.054379.0849454-.1061053.1234363-.1538526.0398182-.0490737.0796364-.0901895.1221091-.126.0411455-.0344843.0876-.0583579.1380364-.0676421.0384909-.0079579.0756545-.0053053.1101636.0053052.0358364.0119369.0676909.029179.0942364.054379.0278727.0225473.0504363.0530526.0690182.0848842.0185818.0331579.0318545.0676421.0384909.1021263.0119454.0583579.0026545.1246737-.0292.197621-.0305273.0729474-.0783091.1485474-.1393637.2241474-.0623818.0769263-.1380363.1538526-.2256363.2281263-.0889273.0756-.1831637.1458948-.2827091.2108842-.0995455.0623369-.2044.1180421-.3119091.1671158-.1075091.0477474-.2110364.0822316-.3105818.1021263-.0079637.0026527-.0292.0026527-.0663637.0013264-.0358363 0-.0849454-.0053053-.146-.0119369-.0610545-.0079579-.1327272-.0198947-.2123636-.0344842-.0822909-.0145895-.1725455-.0358105-.2707636-.0636632-.073.0397895-.1380364.0649895-.1951091.0782527-.0610546.0119368-.1154728.0132631-.1645819 0-.049109-.0119369-.0915818-.0318316-.1300727-.0636632-.0358363-.0291789-.0663636-.0663158-.0902545-.1114105-.0252182-.0424421-.0411455-.0915158-.0530909-.1432421"/><path d="m56.4156945 77.2140358c.073-.0159158.1486546-.0504.2269637-.1061053.0783091-.0557052.1486545-.1206947.2110363-.1949684.0610546-.0729474.1101637-.1512.146-.2294526.038491-.0809053.0491091-.1525263.0358364-.2175158-.0199091-.0915158-.0517636-.1631369-.0968909-.2148632-.0464545-.0517263-.0942364-.0729473-.1420182-.0623368-.0876.0172421-.1592727.0504-.2136909.0954947-.0557454.0450948-.0982182.0981474-.1300727.1578316-.0305273.0610105-.0517637.1273263-.0637091.1976211-.0106182.071621-.0159273.1419157-.0159273.2122105.0013273.0689684.0066364.1352842.0146.1989473.0092909.0649895.0185818.1193685.0278727.1631369m.7021273 1.3475368c-.1898.0384632-.365.0384632-.5216182 0-.1579454-.0397894-.2973091-.1074315-.4167636-.2055789-.1194545-.0954948-.219-.2161895-.2986364-.3594316-.0796363-.1432421-.1367091-.2997474-.1712181-.4681895-.0252182-.1127368-.038491-.2347579-.0411455-.3673894-.0053091-.1313053.0026545-.2612843.0225636-.3939158.0212364-.1313053.0544182-.2586316.0995455-.3846316.0464545-.1246737.1061818-.2387369.1818364-.3421895.0756545-.1034526.1645818-.1909895.2694363-.2652631.1035273-.0742737.2256364-.1246737.3676546-.1538527.1114909-.0238737.2216545-.0278526.3278363-.0106105.1048546.0159158.1990909.0490737.2853637.0994737.0862727.0517263.1592727.1193684.2176727.2055789.0610545.0835579.1035273.1843498.1274182.2997474.0265454.126.0212363.2573053-.0146.3965684-.0358364.1392632-.0968909.2758737-.1831637.4098316-.0862727.1339579-.1964363.2612842-.3291636.3806526-.1327273.1167158-.2827091.2201685-.4499455.3050527.0424728.0490736.0809637.0875368.1194546.1193684.0358364.0291789.0716727.0517263.1075091.0663158.0345091.0132631.0690182.021221.1048545.021221.0345091.0013263.0716728-.0013263.1101637-.0092842.1221091-.0252.2442181-.0756.3703091-.1538526.1247636-.0756.2442181-.1644632.3570363-.2639369.1128182-.0994736.2163455-.2042526.3119091-.3143368s.1752-.2108842.2389091-.3050526l.4778182.3262737c-.1406909.2214947-.2973091.424421-.4672.6074526-.0756546.0795789-.1579455.1591579-.2455455.2387368-.0876.0809053-.1831636.1538527-.2840363.2228211-.1008728.0689684-.2083819.1299789-.3212.1817052-.1128182.0517264-.2309455.0901895-.3530546.1167158"/><path d="m58.1033218 77.6919074c-.0185818-.0888632-.0345091-.1936421-.0491091-.3143369-.0146-.122021-.0278727-.2506737-.0371636-.3846316-.0092909-.1366105-.0172546-.2745473-.0225636-.4164631-.0053091-.1419158-.0079637-.2772-.0079637-.4058526.0013273-.129979.0039818-.2493474.0092909-.3581053s.0132728-.1989474.0252182-.2718947c.0066364-.0477474.0159273-.0862106.0265455-.1167158.0119454-.029179.0265454-.054379.0438-.0756.0185818-.0185685.0424727-.0344842.073-.0464211.0305272-.0119368.0690181-.021221.1154727-.0318316.0530909-.0106105.0942364-.0172421.1260909-.0172421.0292-.0013263.0544182.0066316.0716727.0225474.0185818.0159158.0331818.0424421.0438.0782526.0106182.0358106.0225637.0862106.0358364.1485474.0159273.0742737.0345091.1657895.0570727.2718947.0212364.1074316.0451273.2108842.0703455.3143369l.0345091-.0079579c.0225636-.0888632.0504363-.1883369.0796363-.2997474.0305273-.1114105.0690182-.2175158.1181273-.3196421.0491091-.1008.1101636-.1896631.1831636-.2679158.073-.0769263.1645819-.1273263.2760728-.1498737.0384909-.0092842.0783091-.0106105.1168-.0039789.0398181.0053053.0756545.0172421.1088363.0358105.0318546.0185684.0597273.0450948.0822909.0769263.0252182.0305053.0411455.0702948.0504364.1153895.0066364.0331579.0119455.0822316.0146.1472211.0026545.0636631.0053091.1313052.0066364.2016.0026545.0702947.0053091.1392631.0079636.2055789.0039818.0649895.0092909.1193684.0185818.1618105.0146.0742737.0345091.1339579.0597273.1790527.0238909.0450947.0517636.0795789.0796364.1047789.0305272.0238737.0610545.0397895.092909.0464211.0318546.0066315.0637091.0053052.096891-.0013264.0915818-.0198947.180509-.0583578.2707636-.1193684.0889273-.0610105.1685636-.126.2389091-.1923158.0836182-.0795789.1632545-.1657894.2389091-.2599579l.1022.7215158c-.0451273.0450948-.0968909.0968211-.1552909.1525263-.0584.0570316-.1221091.1114106-.1898.1657895-.0676909.054379-.1406909.1021263-.219.1432421-.0756546.0424421-.1579455.0729474-.2428909.0901895-.1513091.0331579-.2813819.0265263-.3875637-.0145895-.1061818-.0437684-.1977636-.1087579-.2734182-.1989473-.0756545-.0888632-.1393636-.1923158-.1924545-.3116843-.0517636-.1193684-.0995455-.2413894-.1420182-.3660631l-.0491091.0092842-.2282909 1.6340211c-.0132727.0835578-.0265454.1551789-.0398182.2122105-.0146.0570316-.0331818.1047789-.0517636.1419158-.0199091.0384631-.0438.0676421-.0716727.0875368-.0278728.0185684-.0597273.0318316-.0955637.0397895-.0836182.0172421-.1552909.0145895-.2136909-.0119369-.0570727-.0238736-.1061818-.0649894-.146-.1180421-.0398182-.0543789-.073-.1193684-.0968909-.1923158-.0252182-.0742736-.0464545-.1512-.0637091-.2334315"/></g><path d="m22.8062291 68.0450821s24.8757454 8.1966316 36.2133091-8.2470316c0 0-1.7320909-2.3170737-10.0302 4.2853263-4.1782546 3.3237474-29.2185818 1.3356-29.2411878 1.9642737-.0132304.4244211 3.1005514 2.0014106 3.0580787 1.9974316" fill="#010202"/><path d="m42.6348873 82.3975432c-.0199091-1.2613264.3756182-2.4921474 1.0166909-3.6288.2734182-.4894106.4486182-.9894316.4539273-1.5106737l-.0053091-.2042527c-.0384909-.5424631-.0915819-1.0836-.1818364-1.6074947-.2628-1.5517895-.7645091-3.1261263-.5428545-4.758821.0159272-.1180422-.009291-.3010737.3915454-.2997546.2681091-.0013191.4340182.2042598.4340182.3037335-.0252182 1.1684842.1380364 2.2971789.3504 3.4351579.1592727.8514947.3371273 1.7189053.3902182 2.6314105l.0039818.3726948c-.0053091.4509473-.073.9072-.2495273 1.3528421-.0836182.2122105-.1712182.4482947-.3052727.6830526-.5229455.9270947-.7884 1.9324421-.8866182 3.0067579l-.0530909.424421-.0438.3501474s-.1446727.8780211-.3517273.8249684c-.2309454-.0570315-.3530545-.8952631-.3530545-.8952631l-.0318546-.2917895-.0066363-.0464211-.0185818-.1127368z" fill="#e1e1e1"/><path d="m45.7651273 73.3723621c-.0238909-.7812-.0185818-1.5610737-.0278728-2.3303368-.005309-.3939158-.1791818-.9735158-.034509-1.1737895.0836181-.1153895.3304909-.2108842.5826727-.1379369.3212.0915158.2787273.5411369.2787273.5411369.0039818.7825263.005309 1.5226105.0079636 2.3091158.0026545.6246947.0185818 1.2348.1088364 1.8236842.0305272.1843579.0650363.3660631.1088363.5437895.3145637 1.256021.7738 2.4616421 1.3578 3.6195158.2774.5557263.6317818 1.0981894.9516546 1.6857473.2017454.3740211.3570363.7772211.4234 1.2082737.0345091.2254737.0451272.4589053.0265454.6963158-.0504363.6366316-.1752 1.2639789-.3636727 1.8714316l-.0278727.2002737s-.2893455.7904842-.5083455.756c-.219-.0397895-.2349273-.9005685-.2402364-.9191369l-.0079636-.2347579.0252182-.1498737c.0968909-.4854315.1911273-.9682105.2813818-1.4509894.0331818-.1843579.0278727-.3713685-.0013273-.5689895l-.1061818-.4695158c-.1061818-.3793263-.3278363-.7400842-.5614363-1.1379789-.3623455-.6140843-.7485819-1.2440843-1.0299637-1.9483579-.2163454-.5384843-.4127818-1.0756421-.6171818-1.6035158-.2468727-.6286737-.4167636-1.2759158-.5189636-1.9324421-.0610546-.3939158-.0968909-.7944632-.1075091-1.1976632" fill="#e1e1e1"/><path d="m22.1581218 73.4862926s4.1795818.9151579 6.2541091 2.7786316c2.1024 1.8873474 1.6099818 2.1221053 1.6099818 2.1221053s-.9317454-1.1419579-2.3121091-2.0597684c-1.3803636-.9204632-5.5519818-2.8409685-5.5519818-2.8409685" fill="#010202"/><path d="m18.0168982 64.5284884s-29.4774-13.6345263-12.59980002-43.6875158c0 0 6.00325452-10.3877052 18.62694542-12.00581049 0 0 24.5545455-6.19522106 36.2783455 6.58383159 11.8910364 12.9634105 16.7302727 30.7798105-2.7647091 46.3971789 0 0-17.4523091 10.6237895-39.5407818 2.7123158" fill="#8e735e"/><path d="m22.24758 9.76490947s-23.19409091-19.01538947-15.8994 10.35322103" fill="#8e735e"/><path d="m8.63653091 19.3677011c-2.18070909-2.2560632-2.74745455-11.10656847.57072727-12.53898952 0 0 1.62325452-.31831579 2.74878182.53185263 0 0 8.0631818 5.66867369 4.5127273 9.80545259-3.0527273 3.5624843-6.4173637 3.6632843-7.83223639 2.2016843" fill="#7d6454"/><path d="m8.63653091 19.3677011.19909091-.1936422c-.41543637-.4270736-.80034546-1.1737894-1.08703637-2.0955789-.29067272-.9164842-.48578181-2.0040632-.56807272-3.1181684-.11149091-1.5053684-.00929091-3.0637895.34110909-4.32113686.17918182-.63.41543636-1.18307369.7154-1.61943158.30394545-.4363579.65832727-.75334737 1.08172727-.93637895l-.11149091-.25465263.05309091.27189474h.00530909c.02389091-.00530527.14732727-.02785264.34243637-.04111579.25483636-.01856842.62647275-.02254737 1.02465455.04774736.3955273.07029474.8069818.21088422 1.1547273.47349474l.0053091.00132632.0039818.00397894.0146.00663158c.1393636.10345264 1.4135454 1.02656842 2.6691454 2.33962106.6344364.65652627 1.2569273 1.40854737 1.7347455 2.20433687.4791454.7931368.8096363 1.6220842.8693636 2.4231789.0570727.8342526-.1539636 1.6446316-.8255636 2.4271579-1.7281091 2.0146737-3.5358546 2.8714737-4.9786 2.9762526-1.0591637.0782527-1.91923638-.2427157-2.44483638-.7891579l-.19909091.1936422-.19909091.1923157c.66496364.6857053 1.6975818 1.0424843 2.8841636.9549474 1.6259091-.1206947 3.5570909-1.0650316 5.3582-3.1645895.7618546-.8873052 1.0286364-1.8701052.9569637-2.8316842-.0690182-.9549473-.4592364-1.886021-.9967818-2.7521052-.797691-1.2944842-1.9272-2.44705267-2.856291-3.28528425-.9290909-.83027368-1.6630727-1.34488421-1.669709-1.34886316l-.1579455.22812632.1645818-.22149474c-.438-.33025263-.9383818-.50002105-1.3936363-.58092631-.4565819-.07825263-.8733455-.07162105-1.16003641-.0504-.24554545.0172421-.40216364.04907368-.41410909.0504l-.02654545.00397895-.02787273.01326315c-.53489091.22812632-.96890909.62734737-1.31532727 1.12869474-.5163091.75467368-.84016364 1.74808421-1.02598182 2.8383158-.18050909 1.0928842-.21501818 2.2905474-.13007273 3.4577053.08627273 1.155221.28934545 2.2772842.59461818 3.2454947.30394546.9695368.70212727 1.7812421 1.21578182 2.314421z" fill="#7d6454"/><path d="m4.17503636 27.9732358s-9.84703636 22.9545474 13.14929094 33.184421c0 0-18.65349094-13.1199157-13.14929094-33.184421" fill="#7d6454"/><path d="m43.2103927 8.33368211s19.9369637-22.40677891 17.3248909 7.74435789" fill="#8e735e"/><path d="m58.4454927 15.6646274c1.7984546-2.5690737.9742182-11.39968424-2.5284545-12.2949474 0 0-1.6471455-.06233684-2.628.95096842 0 0-7.0796727 6.86368418-2.9253091 10.39433688 3.5756727 3.0372631 6.9164182 2.616821 8.0817636.9496421" fill="#7d6454"/><path d="m58.4454927 15.6646274.2282909.1578315c.4114546-.5902105.6755819-1.4297684.8295455-2.4059368.1486545-.9735158.1831636-2.0849684.0995454-3.2096842-.1168-1.57964211-.4632181-3.19111579-1.0458909-4.4935579-.2973091-.64724211-.6477091-1.22286316-1.0737636-1.67911579-.4234-.45094737-.9224545-.78783158-1.4931818-.93372632l-.0318546-.00663157-.0318545-.00132632c-.0066364-.00397895-.1459987-.00530526-.3676546.00928421-.2800545.02122105-.7008.0756-1.1507454.22945263-.4459636.14722105-.9264364.39126316-1.3166546.79976842l.1977637.18966316-.1937818-.19894737c-.0079637.00928421-1.1374728 1.10614737-2.2417637 2.65528421-.5521454.77722106-1.095 1.66983158-1.4918545 2.6035579-.3955273.93240004-.6357637 1.90989474-.5707273 2.86086314.0716727.9761684.4937455 1.9205053 1.3909818 2.6818105 2.0904546 1.7772632 4.1264909 2.4178737 5.7457637 2.2985053 1.2078181-.0901895 2.1913272-.6074526 2.7461272-1.3992632l-.2282909-.1578315-.2256363-.1591579c-.4446364.63-1.2569273 1.0836-2.3333455 1.1645052-1.4400909.1074316-3.3380909-.4642105-5.3409454-2.1645473-.797691-.6830527-1.1361455-1.4562948-1.2011819-2.3038106-.0610545-.827621.1566182-1.7268631.5295819-2.60355785.5561272-1.32366316 1.4586727-2.60223158 2.2218545-3.53728421.3849091-.47084211.7339818-.85547369.9821818-1.12604211.1260909-.13263158.2256364-.23741052.2933273-.30770526.0358364-.03713684.0663636-.06498948.0822909-.07825263l.0252182-.02785263h.0053091l.0026545-.00663158c.3105818-.31964211.7087637-.53052632 1.1003091-.65785264.3888909-.13130526.7658364-.18435789 1.0113818-.20292631.1022-.00663158.1765273-.0079579.2309455-.0079579.0265454-.00132631.0517636-.00132631.0623818 0l.0146-.00132631.0106182-.27454737-.0690182.26658947c.4512727.11671579.8600727.38197895 1.2317091.77722106.5574545.59286315 1.0113818 1.47486315 1.3405454 2.50275789.3344728 1.02524211.5455091 2.18576842.6291273 3.33037898.0809637 1.0849263.0477818 2.1605684-.0955636 3.0863368-.1433455.9217895-.4008364 1.6963579-.7339818 2.1725053z" fill="#7d6454"/><path d="m62.4259836 39.4670884c.6862 9.2868632-6.0470545 17.6996842-15.9617818 21.1481053-2.3851091.8316-4.9586909 1.3740631-7.6543818 1.5743368-10.7801091.7957895-20.3922182-4.1487158-24.5585273-11.7869684-.1207818-.2214947-.2322727-.4469684-.3477454-.6724421-.9981091-2.0239579-1.6192728-4.2243158-1.7904909-6.5480211-.8534364-11.5256842 10.2093818-22.0433684 24.1032727-23.0699368 2.5855273-.1896632 5.0821273-.0384632 7.4420182.4058526 10.3447636 1.9549895 18.0734727 9.5653895 18.7676363 18.9490737" fill="#cfb089"/><path d="m27.77952 48.9145684c.146 1.9815158-.8056545 3.6685895-2.1289455 3.7667369-1.3232909.096821-2.5125272-1.4310948-2.6585272-3.4126106-.1486546-1.9828421.8056545-3.6685894 2.1276182-3.7667368 1.3232909-.0968211 2.5138545 1.4297684 2.6598545 3.4126105" fill="#222120"/><path d="m50.3795236 47.2463284c.146 1.9815158-.8069818 3.6685895-2.1289454 3.7654105-1.3232909.0981474-2.5138546-1.4297684-2.6598546-3.4112842-.1473272-1.9841684.8056546-3.6699158 2.1276182-3.7667368 1.3232909-.0968211 2.5151818 1.4297684 2.6611818 3.4126105" fill="#222120"/><path d="m16.4588127 53.4129011s-2.9730909-14.4953053.6437273-15.0616422c0 0 2.0280727 2.3303369 3.2903091 2.2374948.2375818-.0185684-1.2144546-7.3756421 2.6426-9.8943158 0 0 14.5230182 4.7906526 15.9949636 1.4509895-.5003818-.255979-5.8426545-1.9377474-5.7457636-4.237579.0544182-1.2825473 11.1490909-1.7255368 16.5564 8.7762316.8454727.4164632 1.9816182-1.6804421 2.1196545-4.6673053.2588182-5.5837894 5.0064728 9.1025053 5.0967273 9.3213474.0902546.2201684 1.1666727-.3859579 2.0320546-1.8037895.8653818-1.4165052 1.0591636 8.8902948.9144909 9.954-.146 1.0637053 3.3991454-4.5505894 2.4833272-11.4819158-.9158181-6.9140842-7.4977636-13.931621-13.0165636-15.8547789-5.2347636-1.8250105-14.0943091-5.1500842-27.1135273 2.3316632-13.83814543 7.9552421-9.8204909 22.7662105-9.7408545 23.0235157.5189636 1.6698316 3.2372182 5.8013053 3.8424545 5.9060843" fill="#222120"/><path d="m20.2630418 87.6742905c.1221091.3766737.3875637.9496421.9675818 1.6804421.1884728.2360842.0477819.5849053-.2548363.6154106-.7499091.0769263-1.7758909.4005473-1.8170364 1.6035157-.0663636 1.9059158 4.2180727 6.9313264 10.4509455 4.6009895 6.2342-2.3303368 7.5282909-9.0706737 6.132-11.663621-1.0804-2.0067158-3.7840546-4.2084-4.8405637-5.2057895-.2123636-.1989474-.5574545-.0994737-.6251454.1830316-.2747455 1.1326737-.8348546 3.2786526-2.9093818 4.8410526-2.1103637 1.5902526-4.8432182 2.8873895-6.7452 2.8621895-.2535091-.003979-.4366728.2413895-.3583637.4827789" fill="#9c9d9e"/><path d="m19.5761782 87.0293032c.4791454-.6220421 6.3669273-3.4868843 10.8836363-8.4260843.0438-.0477473 1.5927273 1.1393053 1.469291 1.2175579-.1977637.1220211-1.6644 2.7056843-4.1185273 5.0240843-2.6664909 2.5173473-7.0664 3.4033263-7.2190364 3.4643368-.292.1193684-1.2171091-1.0915579-1.0153636-1.2798947" fill="#010202" mask="url(#a)"/></g></svg>