<svg enable-background="new 0 0 263 168" viewBox="0 0 263 168" xmlns="http://www.w3.org/2000/svg" xmlns:xlink="http://www.w3.org/1999/xlink"><linearGradient id="a"><stop offset="0" stop-color="#6d4420"/><stop offset=".61" stop-color="#543210"/><stop offset="1" stop-color="#482a06"/></linearGradient><linearGradient id="b" gradientTransform="matrix(11.3166 0 0 -14.7137 5836.2231 6616.3838)" gradientUnits="userSpaceOnUse" x1="-494.2067" x2="-488.4432" xlink:href="#a" y1="435.2279" y2="425.2383"/><linearGradient id="c" gradientTransform="matrix(100.231 0 0 -142.0193 54816.0859 66313.0234)" gradientUnits="userSpaceOnUse" x1="-545.0375" x2="-545.0008" xlink:href="#a" y1="466.3146" y2="465.8715"/><linearGradient id="d" gradientTransform="matrix(12.9328 0 0 -13.7183 6755.5947 6135.6724)" gradientUnits="userSpaceOnUse" x1="-500.3033" x2="-494.4765" xlink:href="#a" y1="433.2115" y2="422.813"/><linearGradient id="e" gradientTransform="matrix(.7332 0 0 -1.98 -99.7467 768.328)" gradientUnits="userSpaceOnUse" x1="200.4565" x2="201.217" y1="319.4466" y2="316.7324"><stop offset="0" stop-color="#fff"/><stop offset="1" stop-color="#1a1a1a"/></linearGradient><mask id="f" height="9.7" maskUnits="userSpaceOnUse" width="12.4" x="94.5" y="141.6"><path d="m126.7 139.1 1.2 1.1c-.8-.7-1-1.9-.6-3.6l-1.2-1.1c-.4 1.6-.2 2.8.6 3.6" fill="#fff"/></mask><path d="m163.1 15.9s-8.6-4.1-11 2.7c-2.2 6.4 8.5 10.8 8.5 10.8z" fill="url(#b)"/><path d="m159.6 25.5s-5.4-3-4.5-6c.4-1.4 1.9-1.7 3.2-1.5.6.1 1.2.4 1.5 1s.3 1.2.1 1.8c-.7 1.4-.7 3.1-.3 4.7z" fill="#351800"/><path d="m240.1 147h-100.3c1.3-5.1 2.1-8.1 2.1-8.1l13.2-41.3c9.8-21.8 6.4-46.6 6.4-46.6s-6.6-7.2-5-24c1.2-12.7 6.9-17.7 19.7-21.2 14.1-3.9 26.4 7.8 30.8 15.6 3.7 6.6 6.8 16 12.5 31.6 4.8 12.1 10.3 23.8 16.7 35.2 0 0-2.3 48.4 3.6 58.3.1.2.2.3.3.5z" fill="url(#c)"/><path d="m215.5 147h-73.9c8.7-35.1 23.9-48 34.2-48.9 17.2-1.5 29.4 16.8 39.7 48.9z" fill="#8e5c27"/><path d="m180.6 8.2s2.1-9.3 8.9-7c6.4 2.1 3.2 13.4 3.2 13.4z" fill="url(#d)"/><path d="m190.5 11.4s1-6.1-1.9-7.4c-1.4-.5-2.5.4-3.2 1.7-.3.5-.4 1.2-.2 1.7s.7 1 1.3 1.1c1.6.5 3 1.5 4 2.9z" fill="#351800"/><ellipse cx="178.7" cy="22.4" fill="#231f20" rx="2.3" ry="3.1" transform="matrix(.8717 -.49 .49 .8717 11.9505 90.4468)"/><ellipse cx="160.3" cy="31.6" fill="#231f20" rx="2.3" ry="3.1" transform="matrix(.8717 -.49 .49 .8717 5.0805 82.5778)"/><path d="m163.5 29.6c6.1-2.5 14.9-2.6 20.1 10.3s.6 21.5-4.2 23.8-14.8-1.1-20.5-13.3-2-18.3 4.6-20.8z" fill="#b18438"/><path d="m160.3 41.5c1.9 1 4.2 1 6.2 0s3.4-2.7 3.9-4.8c1.2-4.5-2.4-6.1-7.9-3.5s-6.5 6.4-2.2 8.3z" fill="#231f20"/><path d="m248.5 147h-112.2c2.4-11.8 4.6-21.8 5.8-26.2 7-24.9 17.1-36.9 17.1-36.9-2.4 15.6 13.6 47.9 14.3 47 16.2-21.2 34.4-40.9 54.3-58.8 4.5 5.6 9.6 10.7 15.2 15.2-1.1 54.6 3.2 44.9 3.2 44.9.5 2.3 1.3 7.8 2.3 14.8z" fill="#212120"/><g fill="#fff"><path d="m143.2 129.1c0-.3.1-.7.2-1 .2-.3.4-.5.7-.7s.7-.4 1-.5c.4-.1.9-.2 1.3-.3l1.6-.2h1.7 2.5c.9 0 1.8.2 2.7.4.2 0 .3.1.4.3.1.1.2.2.2.4v.3c0 .1-.1.2-.2.3h-.3c-.1 0-.2 0-.3 0h-1.1-1.2-1.3-1.3c0 .5-.2 1.1-.3 1.7s-.3 1.2-.4 1.8l-.5 1.9-.5 1.7-.4 1.6c0 .4-.2.9-.3 1.2 0 .2-.1.3-.2.4l-.3.3c-.1.1-.2.2-.3.2h-.3c-.2 0-.5-.1-.6-.2-.2-.1-.3-.4-.3-.6 0-.1 0-.2 0-.3 0-.4 0-.8.2-1.2s.2-.8.4-1.2.3-.9.4-1.4c.2-.5.4-1 .6-1.6s.4-1.2.7-1.9l.8-2.4h-.7-.7-.6l-.5.2c-.2.2-.4.4-.4.6v.4c-.1.2-.2.5-.4.6s-.4.1-.6 0c-.2.1-.4.1-.6 0-.1-.1-.2-.2-.3-.3-.3-.3-.4-.4-.5-.5z"/><path d="m150.4 136.7c0-.2 0-.5 0-.7v-.8c0-.3 0-.6 0-.9s0-.6.2-.9 0-.5.2-.8c.1-.2.1-.4.2-.6 0-.1 0-.1 0-.2h.2.5v1 .7l.3-.6c.1-.2.2-.4.4-.6.1-.2.3-.3.5-.5.2-.1.4-.2.7-.2h.3.2l1.1.3v.3.3.4.4.4.4.3h.2.2.6l.6-.3c.2-.1.4-.3.6-.5v1.6l-.4.3-.5.3-.5.2c-.2 0-.4 0-.5 0-.3 0-.6-.1-.8-.2s-.4-.3-.5-.5-.2-.5-.3-.8c0-.3 0-.6 0-.9l-1.2 3.4c0 .2 0 .3-.2.4l-.2.3h-.3-.2c-.1.1-.3.1-.4 0s-.2-.2-.3-.3c0-.1 0-.3 0-.4-.3-.1-.5-.1-.7-.3z"/><path d="m163.5 136.5-.4.5c-.2.2-.4.4-.6.5-.2.2-.4.3-.7.4-.2.1-.5.2-.7.2-.3 0-.6-.1-.8-.3s-.4-.5-.5-.8c-.1.1-.3.3-.4.4-.2.1-.3.3-.5.4l-.5.4c-.2 0-.4 0-.6 0s-.4-.1-.6-.2-.4-.2-.5-.4c-.2-.2-.3-.4-.4-.6-.1-.3-.2-.5-.2-.8 0-.4.1-.7.2-1.1s.2-.7.4-1.1c.2-.3.4-.7.6-1s.5-.6.8-.8.5-.4.9-.5c.3-.1.6-.2.9-.2h.3.2.7.2v.2.4.7c0 .3 0 .5-.2.8s0 .6 0 .9v.8.5c0 .1.1.2.3.2h.3l.3-.2.3-.3.3-.3c.2-.3.5-.5.7-.8zm-5.9-.5v.3.3c0 .1.1.2.2.2h.3c.2 0 .3-.1.4-.2.2-.1.3-.3.4-.5s.2-.4.3-.6c0-.2 0-.4 0-.5l.4-2c-.2 0-.4 0-.5 0-.2.1-.4.2-.5.4-.2.2-.3.3-.4.5s-.2.4-.3.6-.2.5-.2.7c-.2.2-.2.5-.1.8z"/><path d="m166.8 136.7-.6.5c-.3.2-.5.3-.8.4l-.9.4c-.3 0-.6 0-.8 0s-.4 0-.6 0c-.3-.1-.5-.4-.6-.7 0-.2 0-.4 0-.6 0-.3 0-.7 0-1 0-.4.2-.8.3-1.2l.3-1.2c.1-.4.2-.7.3-1.1 0-.1.1-.2.2-.3l.3-.2h.4.4.4v.3.4c0 .2-.1.4-.2.6 0 .3 0 .5-.2.8s-.2.5-.2.8c-.1.3-.1.5-.2.8v.7.5c0 .1.2.2.3.2h.5l.6-.4.6-.5.5-.4zm-3.1-7c0-.1 0-.2 0-.4.1-.1.1-.3.2-.4l.4-.3h.6.4c.1 0 .3.1.4.2l.3.3v.4.5c0 .1-.1.3-.2.4l-.4.3c-.2 0-.4 0-.6 0-.3 0-.6-.1-.9-.3-.1-.2-.2-.5-.1-.7z"/><path d="m167.9 138.3c-.3 0-.5-.1-.7-.3-.2-.3-.4-.6-.5-.9-.2-.4-.3-.8-.4-1.3s-.1-1 0-1.5c0-.4 0-.9 0-1.3.1-.5.1-1 .3-1.5 0-.5.3-1 .4-1.5s.3-1 .5-1.5c.2-.4.4-.9.7-1.3.2-.4.5-.7.7-1.1.2-.3.5-.5.8-.7.2-.2.5-.2.8-.3.2-.1.3-.1.5 0 .1.1.2.2.3.4s.1.3.2.5v.5c0 .4 0 .9-.2 1.3-.1.5-.2.9-.4 1.3s-.4.9-.6 1.4l-.7 1.3-.7 1.3-.7 1.2v.2.2.3.3.3.3.2h.3.4l.4-.2.4-.3.9-.6.5 1.4c-.4.3-.8.5-1.2.8l-.5.3-.6.3-.5.2zm0-5.5.6-1.2c.3-.4.4-.9.7-1.4.2-.5.4-1 .5-1.4s.2-.9.3-1.3c0 0 0-.3 0-.4s0 0 0 0c-.2 0-.3.1-.4.3-.2.2-.3.4-.5.7 0 .3-.3.6-.4 1-.2.4-.3.8-.4 1.2 0 .4-.2.9-.3 1.3 0 .3-.1.7-.1 1.2z"/><path d="m178.6 132.8c.2-.3.5-.5.7-.8.2-.2.4-.3.6-.3s.5.1.7.2.4.3.5.5c.2.2.3.4.4.7v.8.7.6c0 .2-.1.4-.2.6s-.2.4-.3.6l.5-.3.5-.3.5-.4c.2-.1.4-.3.5-.5l.5 1.1c-.2.2-.5.4-.8.6-.2.2-.5.3-.8.4l-.8.3-.9.3-.3.2-.4.2-.5.2c-.4.1-.8.1-1.1 0s-.7-.2-1-.4c-.4-.1-.7-.3-1.1-.5 0-.4 0-.8 0-1.2s0-.9 0-1.4.2-1.2.3-1.8.2-1 .3-1.5l.4-1.7c.2-.6.3-1.1.5-1.6s.4-1 .6-1.4.4-.7.7-1c.2-.2.5-.4.9-.4.4-.1.9 0 1.2.2.2.1.4.3.5.5s.2.5.2.7v.9c0 .5-.1.9-.3 1.3-.2.5-.4 1-.6 1.4-.3.5-.6.9-.9 1.3zm.6.5h-.5c-.2.1-.3.2-.4.3-.2.2-.3.3-.4.5-.1.3-.2.5-.2.8v.7.5.5h.4.4.4.4c.1-.1.2-.2.3-.4.2-.3.4-.7.4-1.1 0-.2 0-.4 0-.6s0-.4 0-.6c0-.1 0-.2 0-.3s0-.2 0-.3c-.1-.1-.2-.2-.3-.2 0 0-.3 0-.5.2zm.7-6.4s0 0 0-.2v-.2c-.1 0-.2.1-.3.2-.1.2-.2.4-.3.5l-.3.8-.3.9c0 .3 0 .6-.2 1s0 .6-.2.9 0 .5-.2.8 0 .4 0 .6.3-.5.4-.8l.4-.8.5-.9.4-.9c.1-.3.2-.6.3-.9 0-.3-.1-.6-.2-1z"/><path d="m183.8 138.3c-.3 0-.5-.1-.7-.3-.2-.3-.4-.5-.5-.9-.2-.4-.3-.8-.4-1.3 0-.5 0-1 0-1.5 0-.4 0-.9 0-1.3.1-.5.1-1 .3-1.5.1-.5.2-1 .4-1.5.1-.5.3-1 .5-1.5s.4-.9.7-1.3c.2-.4.4-.7.7-1.1.2-.3.5-.5.8-.7.2-.2.5-.2.8-.3.2-.1.3-.1.5 0 .1.1.2.2.3.4s.1.3.2.5v.5c0 .4-.1.9-.2 1.3-.1.5-.2.9-.4 1.3-.2.5-.4.9-.6 1.4-.2.4-.4.9-.7 1.3l-.7 1.3c-.2.4-.5.8-.7 1.3v.2.3.3.4.3.2h.3.4l.4-.2.4-.2.9-.7.5 1.4c-.4.3-.8.5-1.2.8l-.5.3-.6.3h-.5c-.1.2-.2.3-.4.5zm0-5.5c.2-.4.4-.8.6-1.2l.7-1.4c.2-.5.4-.9.5-1.4.2-.4.2-.9.3-1.3v-.5c-.2 0-.3.1-.4.3-.2.2-.4.4-.5.7-.2.3-.3.7-.4 1-.2.4-.3.8-.4 1.2-.2.9-.3 1.8-.4 2.7z"/><path d="m193.4 136.6-.4.5c-.2.2-.4.4-.6.5-.2.2-.4.3-.7.5-.2 0-.5 0-.7 0-.3 0-.6-.1-.8-.3s-.4-.5-.5-.8l-.4.4c-.2.1-.3.3-.5.4s-.4.2-.6.3c-.2 0-.4 0-.6 0s-.4 0-.6 0c-.2-.1-.4-.2-.5-.4-.2-.2-.3-.4-.4-.6-.1-.3-.2-.5-.2-.8 0-.4.1-.7.2-1.1s.2-.7.4-1.1c.2-.3.4-.7.6-1s.5-.6.8-.8.6-.3.9-.4.6-.2.9-.2h.2.2v.2h.8.2v.2.3.7.8c-.1.3-.1.6-.2.8v.8.5c0 .1.1.2.3.2h.3c.1 0 .2-.1.3-.2l.3-.3.3-.3c.2-.3.5-.5.7-.8zm-5.8-.6v.3.3c0 .1.1.2.2.2h.3c.2 0 .3-.1.4-.2.1-.2.3-.3.4-.5s.2-.4.3-.6c0-.2 0-.4 0-.5l.4-2c-.2 0-.4 0-.5 0-.2.1-.4.2-.5.4-.2.2-.3.3-.4.5s-.2.4-.3.6-.2.5-.2.7c-.3.3-.2.6-.1.8z"/><path d="m191.4 137c0-.1 0-.2 0-.3s.1-.1.2-.2l.2-.2.3-.2 2.1-2.9h-.2-.2-.2-.5-.3-.2l-.2.3c-.1.2-.2.3-.4.5-.1 0-.2 0-.3 0 0 0 0 0-.2 0 0-.1 0-.2 0-.3v-.3c.1-.3.2-.7.3-1 .1-.2.2-.4.4-.6.1-.1.3-.2.5-.3h.5.4l.3.2.3.2h.4 1.3c.1-.1.2-.1.4 0v.4.4c-.1 0-.3 0-.4 0l-.3.4c-.1.2-.3.4-.4.6l-.6 1.2c-.2.2-.3.5-.5.7l-.4.5-.3.3h.3.3.3.5l.4-.2.4-.3.4-.3.3-.2h.3.3.2v.2.2c0 .2-.1.3-.2.4-.1.2-.3.3-.4.4l-.6.4-.7.3-.7.2c-.2 0-.5 0-.7 0h-.3l-.4-.2c-.2-.1-.4-.2-.5-.3h-.4-.4c-.1 0-.2-.1-.3-.2-.1.3-.2.2-.1.2-.1-.1 0-.1 0 0z"/><path d="m199 138.3c-.4 0-.8-.1-1.1-.2s-.6-.4-.8-.6c-.2-.3-.4-.6-.5-.9 0-.4 0-.7 0-1.1 0-.3 0-.5 0-.8.1-.6.3-1.1.6-1.6.1-.3.3-.5.5-.7s.4-.3.7-.4.6-.1.9 0h.5c.2.1.4.2.6.4.2.1.3.3.4.5v.7c0 .3-.1.6-.2.9-.2.3-.4.6-.6.8-.2.3-.5.5-.9.7-.3.2-.7.4-1.1.4.1.1.1.2.2.3l.2.2h.2.2.9l.9-.4.8-.5.6-.5.9.9c-.4.4-.8.8-1.3 1.1l-.6.4-.7.4c-.2.1-.3.2-.5.3-.3-.3-.5-.3-.8-.3zm-.9-3.2h.5c.2-.1.4-.2.5-.3.2-.1.3-.3.4-.4s.2-.3.2-.4c0-.2 0-.3 0-.5-.1-.1-.2-.2-.3-.2-.3 0-.6.1-.8.4-.1.1-.2.3-.2.4v.4.4c-.1 0-.2.1-.3.2z"/><path d="m201.5 136.8c0-.2 0-.5 0-.7 0-.3 0-.6 0-.9s0-.6.2-.9c0-.3.1-.6.2-.9l.2-.8c0-.2.1-.4.2-.6 0-.1 0-.2 0-.2v-.2h.2.5.2c.2 0 0 0 0 .2v.3 1.3c0-.2.2-.4.3-.6s.3-.4.4-.6.3-.4.5-.5.4-.2.6-.2h.3.2l.2.2v.3.3.4.4.4.4.3h.2.2.6c.2-.1.4-.2.6-.3l.6-.4v1.6l-.4.3-.5.3-.5.2c-.2 0-.4 0-.6 0-.3 0-.6-.1-.8-.2s-.4-.3-.5-.5-.2-.5-.3-.8c0-.3 0-.6 0-.8l-1.3 3.4c0 .2-.1.3-.2.4v.3l-.2.2h-.2c-.1 0-.3 0-.4 0-.1-.1-.2-.2-.3-.3 0-.2 0-.3 0-.5 0 0-.2-.1-.2-.3z"/></g><path d="m167 151.7 11.6 1.5c.7.1 1.5-.1 2-.6s.9-1.1 1-1.9v-1.1c.2-1.5-.8-3-2.4-3.2l-11.4-1.5c-1.5-.1-2.9 1-3 2.5v1.1c-.2 1.5.7 2.8 2.2 3.2z" fill="#989088"/><path d="m227.9 72.2s7-3.2 16.5 13.7c-17.7 10.1-36.2 18.8-55.2 26 0-.1 20.5-28 38.7-39.7z" fill="#010101"/><path d="m158.9 99.3-5.8 47.9h-2l3-48.5c0-.7.4-1.3.9-1.7s1.2-.6 1.8-.5c.7.1 1.3.4 1.7.9s.5 1.3.4 1.9z" fill="#fff"/><path d="m201.6 105.7-5.8 47.9h-2l2.8-48.5c.1-.7.4-1.3.9-1.7s1.2-.6 1.8-.6c.7 0 1.3.4 1.8.9s.6 1.3.5 2z" fill="#fff"/><path d="m162.9 105s11.4 26.9 11.4 30.1h-3.7l-10.4-30z" fill="#393839"/><path d="m193.3 110.4-1.4-2.3-18.4 22.9.7 2.7z" fill="#393839"/><path d="m202.2 127.5 14.3-2.1s13.3 8.3.7 33.4c-2.7 5.5-22.4.8-22.4.8s15.5-15.7 7.4-32.1z" fill="none"/><path d="m242.8 86.5c-8.3-3.6-15.1 22.4-17.9 32-1.8 6.4-5.7 10.6-13.9 9.8s-21.2-4.4-28.1-3.7c-7 .8-25.2 3.7-26.9 20.8-3.2 32 26.9 9.8 38.7 14.3s20.4 9 40.8 3.2c16-4.5 22.1-20.9 23.3-32 1.7-13.6 2.3-36.5-16-44.4z" fill="#67401d"/><path d="m208.5 129c0 3.2 5.9 8.5 12.1 8.5s10.8-14 10.8-17.3 3.2-20-3.2-20c-2.9 0-5.5 20.6-9.2 23.4s-10.5 3.6-10.5 5.4z"/><path d="m243.3 85.5s14 3.9 17.8 27.1c12.2 77.2-58.1 50.8-62.3 49 0 0 13.8-35.8.7-35.5 0 0 14.9 6.4 23.1-3.6 1.8-2.2-.1-38 20.7-37z" fill="#212120"/><path d="m201.9 126.8 8 1.1s5.6 22.5-5.2 35.9l-5.9-2.2c-.1 0 8.3-23.3 3.1-34.8z" fill="#010101"/><path d="m104.2 128.9s-3-2-4.9-.6-5.4 2.8-5.4 2.8-3.3 2.9-4.5-.2 8.3-10 8.3-10l14-.3s7.4 13.4-7.5 8.3" fill="#020303"/><path d="m94.8 129.2s-5.9 4-5 9.4c.9 5.3 8.4 10 10.5 10.3s9.6-7.9 9.6-7.9-5-3.6-3.8-7.6-11.3-4.2-11.3-4.2" fill="#8e735e"/><path d="m135 147h-36.9c0-.5.1-1 .1-1.6 0-.4.3-5.1.2-5.3-1.4-2.7-.1-1.2-.2-7.1 0-2.1 3.5-3 7.1-1.6 15.8 6 23.5-8.4 26.9-6.2 1.7 1.1 2.6 11.7 2.8 13 .2 1.4.1 6.2 0 8.8z" fill="#20201f"/><path d="m94.8 129.2s-8.4 4.4-7.5 11c.7 5.4 7.5 10.7 9.6 11s10.9-8.8 10.9-8.8-5.4-3.3-4.2-7.3c1.3-4-8.8-5.9-8.8-5.9" fill="#20201f"/><path d="m107.7 142.4c0-.2 0-.3 0-.5 0-.1.1-.3.2-.4s.2-.2.4-.3.4-.2.6-.3.4-.1.7-.2c.2-.1.5-.1.8-.2.4-.1.7-.1 1.1-.2s.8-.1 1.2-.1c.1 0 .2 0 .2.1.1 0 .1.1.1.2v.1s0 .1-.1.1c0 0-.1.1-.1.1s-.1 0-.1.1c-.2 0-.3.1-.5.1s-.4 0-.5.1c-.2 0-.4 0-.6.1-.2 0-.4 0-.6.1v.8s0 .6 0 .8 0 .6 0 .9 0 .6-.1.8c0 .3 0 .5-.1.7v.6.2c0 .1 0 .1-.1.2 0 .1-.1.1-.1.1s-.1.1-.1.1c-.1 0-.2 0-.3 0s-.1-.1-.2-.2v-.1c0-.2 0-.4 0-.6s0-.4 0-.6 0-.4.1-.7c0-.2.1-.5.1-.8s.1-.6.1-.9.1-.7.1-1.1c-.1 0-.2.1-.3.1s-.2.1-.3.1-.2.1-.3.1-.2.1-.2.1c-.1.1-.1.1-.1.2v.2.1.1c0 .1-.1.1-.1.2-.1.1-.1.1-.3.1-.1 0-.2 0-.3 0s-.1-.1-.2-.1c0-.1 0-.2-.1-.3" fill="#fefefe"/><path d="m111.7 145.2c0-.1 0-.2 0-.3s0-.2 0-.4c0-.1 0-.3 0-.4s0-.3 0-.4 0-.2 0-.4c0-.1 0-.2 0-.3v-.1-.1h.1.1.1s.1 0 .1 0v.1.1c0 .1 0 .2.1.3 0 .1 0 .2.1.3 0-.1.1-.2.1-.3s.1-.2.1-.3.1-.2.2-.3.2-.1.3-.2h.1s.1 0 .1 0 .1 0 .1.1c0 0 0 .1.1.1v.1s0 .1 0 .2v.2s0 .1 0 .2 0 .1.1.2c0 0 .1.1.1.1h.1.1c.1 0 .2-.1.3-.1.1-.1.2-.1.2-.2.1-.1.2-.2.2-.3l.1.7s-.1.1-.2.2-.1.1-.2.2-.1.1-.2.1-.2.1-.2.1c-.2 0-.3 0-.4 0s-.2-.1-.3-.2-.1-.2-.2-.3-.1-.2-.1-.4l-.2 1.6v.2c0 .1 0 .1-.1.1 0 0 0 .1-.1.1h-.1c-.1 0-.2 0-.2 0s-.1-.1-.1-.1c0-.1-.1-.1-.1-.2-.2.1-.2.1-.2 0" fill="#fefefe"/><path d="m114.8 144.2v.1s0 .1.1.1c0 0 .1.1.1.1h.1c.1 0 .1-.1.2-.1 0-.1.1-.2.1-.3s0-.2 0-.3 0-.2 0-.3v-.9c-.1 0-.2.1-.2.1-.1.1-.1.1-.2.2s-.1.2-.1.3-.1.2-.1.3v.3zm2.7-.4c0 .1-.1.2-.1.3-.1.1-.1.2-.2.3s-.2.2-.3.3-.2.1-.3.2c-.1 0-.3 0-.4-.1s-.2-.2-.3-.3c0 .1-.1.1-.1.2-.1.1-.1.1-.2.2s-.2.1-.2.2-.2.1-.3.1-.2 0-.3 0-.2-.1-.3-.1c-.1-.1-.2-.1-.2-.2-.1-.1-.1-.2-.1-.3 0-.2 0-.3 0-.5s0-.3.1-.5c0-.2.1-.3.2-.5s.2-.3.3-.4.2-.2.3-.3.3-.1.4-.2h.1.1s0 0 .1.1h.1.1.1.1.1.1.1s0 0 .1.1v.1.3.4s0 .3 0 .4v.4c0 .1 0 .2.1.2 0 .1.1.1.1.1s.1 0 .1-.1c0 0 .1-.1.1-.1s.1-.1.1-.1c0-.1.1-.1.1-.2.1-.1.2-.3.2-.4z" fill="#fefefe"/><path d="m117 140.8s0-.1 0-.2 0-.1.1-.2c0-.1.1-.1.2-.2s.2-.1.3-.1h.2.2c.1 0 .1.1.1.1s.1.1.1.2v.2c0 .1 0 .1-.1.2 0 .1-.1.1-.2.2-.1 0-.2.1-.3.1-.2 0-.3 0-.4 0-.1-.1-.2-.2-.2-.3zm2 2.8c-.1.1-.1.2-.2.3s-.2.2-.3.3-.2.2-.4.2c-.1.1-.2.1-.4.1-.1 0-.2 0-.3 0s-.1 0-.2-.1c-.1 0-.1-.1-.1-.2s-.1-.2-.1-.2c0-.1 0-.3 0-.5s0-.4 0-.5c0-.2 0-.4 0-.6s0-.4 0-.5 0-.1.1-.2c0 0 .1-.1.1-.1.1 0 .1-.1.2-.1h.2.2s.1.1.1.1v.2.3.4s0 .3 0 .4v.4.3c0 .1 0 .2.1.2 0 0 .1.1.1.1.1 0 .1-.1.2-.1.1-.1.2-.1.2-.2.1-.1.2-.2.2-.3.1-.1.1-.2.2-.2z" fill="#fefefe"/><path d="m119.1 141.8c.1-.2.1-.4.2-.6s.1-.5.2-.7c0-.2.1-.5.1-.7s0-.4 0-.6c0-.1 0-.1 0-.1v-.1c-.1 0-.1.1-.2.2s-.1.2-.1.4c0 .1-.1.3-.1.5s0 .4-.1.6v.6c-.1.1-.1.3 0 .5m.5 2.4c-.1 0-.2 0-.3-.1s-.2-.2-.3-.3-.2-.3-.3-.5-.1-.4-.2-.7c0-.2-.1-.4-.1-.6s0-.4 0-.7c0-.2 0-.5 0-.7s.1-.5.1-.7.1-.4.2-.6.1-.4.2-.5c.1-.2.2-.3.3-.4s.2-.2.4-.2h.2c.1 0 .1.1.2.1 0 .1.1.1.1.2s.1.2.1.2c0 .2.1.4.1.6s0 .4-.1.6c0 .2-.1.4-.1.7s-.1.4-.2.7c-.1.2-.1.4-.2.6s-.1.4-.2.6v.1.1.1.1c0 .1 0 .1.1.1 0 0 0 .1.1.1 0 0 0 .1.1.1h.1s.1 0 .1-.1.1-.1.1-.1c.1 0 .1-.1.2-.1s.1-.1.1-.1c.1-.1.2-.2.3-.4l.4.6c-.2.2-.3.3-.5.5-.1.1-.1.1-.2.2s-.1.1-.2.2-.2.1-.2.1c-.3.2-.4.2-.4.2" fill="#fefefe"/><path d="m41.1 115c-.5 0-11.4 2.6-11.4 2.6s-12.8 4.3-11.7 8.3c.7 2.4 2.4.8 4 .1 0 0 5.9-3.3 10-.6 0 0 9.6-10.4 9.1-10.4z"/><path d="m64.4 129.9c2.8-3.8 5-1.9 5.5-2.3.9-.8 1.8-1.7 3.6-3.2 1.2-1 3.9-3 4.1-.9.3 2.3-3.6 5.1-3.2 5.8 0 .1.1.1.1.2.6 0 1.4 0 1.6.7l.3 1.2c.1.4 0 .8-.3 1.1-.1.1-.1.2-.1.3s.1.2.2.3c.4.2.6.6.5 1v1.4c0 .4-.3.8-.7 1-.2.1-.3.5-.2.7s.2.5.1.8c0 .5-.1 1-.4 1.5-.4.9-4.3 4.4-7.8 4.3-2.4-.1-4.5-2.3-5.7-7.2-.3-.7-.4-1.4-.5-2.1 0-1.4 2-3.4 2.9-4.6z" fill="#f9c6a3"/><path d="m69.8 127.6c.9-.8 1.8-1.7 3.6-3.2 1.2-1 3.9-3 4.1-.9.3 2.3-3.6 5.1-3.2 5.8 0 .1.1.1.1.2h-1.5c0-.1 0-.2-.1-.4-.7-.7-1.8-1.2-3-1.5z" fill="#fed6a8" opacity=".5"/><path d="m69.2 132.1c-.6 1.5-.7 3.1-.3 4.6.1 1.1.7 2.1 1.6 2.8 1.1.7 3.1.6 4.8.4-.8 1.5-5.5 3.8-7.6 4.5-6.3 1.9-4.4-4.4-4.4-4.4s3.2-.7 3.6-3.6c.5-5.5 1.5-4.2 2.3-4.3z" fill="#fed6a8" opacity=".59"/><path d="m64.3 147h-3.3c-.4-2.6-2.1-10.4-5.7-14.8 2.6 1.8 6.7.9 6.7.9s-1 7 9.2 10.4c.1.3 0 .7-.2 1-2.2 1-4.4 1.8-6.7 2.5z" fill="#1c1c1c"/><path d="m36.8 123.3-.3 3.3c2 3.1 5.5 4.9 9.2 4.7 2.5-.2 5.8-1.1 6-2.5.3-1.1.3-2.2 0-3.3z" fill="#fed6a8"/><path d="m37.9 128.1c4.8 1.3 9.9 1.3 14.7-.1l-.2-2-14.9-2.2z" fill="#ceaf88"/><path d="m42.2 135.4 3.8 4.3 4.7-.5s1-5-.1-7.4l-.6-1-8.3.9z" fill="#dbdcda"/><path d="m47.1 133.2 3.7 5.6s-.3 3-1.7 4.3c.1.1-2.8-3.1-4-4.4l.1-5.5z" fill="#179bd7"/><path d="m47.6 133.9c-.7.6-1.6.7-2.4.2v-.7l2-.1z" fill="#1b80b0"/><path d="m45.2 133.4-.3 5.1.2.2z" fill="#c2c1bf"/><path d="m9.8 147c-.8-3.2-.6-6.1.4-7.3 1.6-2 1.7-1.4 5.3-9.5s15.2-6.9 15.2-6.9l16.8 16.2c1-2.3 6.5-14.9 6.5-14.9s-1.9 1.5-1.3 2 2.8 3.7 3.2 4c1.7 1.4 4 9.3 5.5 16.5z" fill="#212121"/><path d="m19.6 145.5s3.8-4 3.2-8.8c-.4 3.2-1.5 6.2-3.2 8.8z"/><path d="m50.9 137.8c-.6-.7-2.3-2.9-2.3-2.9l2.4 2.7c0-.1 0 .2-.1.2z" fill="#c2c1bf"/><path d="m36.2 131.9 5.2 8.6-5.1-8.8z" fill="#0d243c"/><path d="m50.9 137.8c.4.4.8.8 1.2 1.1l-1.2-1.4z" fill="#0d243c"/><path d="m27.5 147h-7.3c-.1-.5-.3-1-.5-1.5 0 0 2.9-5.1 3.2-8.8.9 2 3 6.5 4.6 10.3z" opacity=".2"/><path d="m72.8 129.3c.4-.8-.2 2-1.7 2.6-1 .4-2 .4-3 .1 0 0 3.4 0 4.7-2.7z" fill="#ddae85"/><path d="m37.4 127.4h-2.6l.3 2.3 6.2 10.9 4.1-7.8.9-.7 6.2 7.1c.7-1.9 1-4 1-6 0-.3 0-3.4-1.1-4 0 .1-9 6-15-1.8z" fill="#fff"/><ellipse cx="46.2" cy="132.3" fill="#179bd7" rx="2.2" ry="1.5"/><ellipse cx="39.2" cy="124.3" rx="14.3" ry="5.3"/><path d="m63.2 117.7c2.9-4.5 9.9 1.4 11.8 3s-.7-4.6-3.2-5.5c0 0 5.6-.2 6.5 3.7.4-2.6-.6-5.3-2.6-7 0 0 5.6 4.7 6.9 6.6-.2-1.2-.5-2.7-.5-2.7l4.2.6s1.1-10.9-6.3-12.9.5-1 .5-1 2.2-3.9 8.8-2.3c0 0-2.8-22.4-16.4-24.2 0 0 1.3-4.9 6-3.9 0 0-.7-2.5-2.7-2.4l3.8-2s-11.7-6.7-21.1 3.7c0 0-3.3-15-3.3-17s-.1-4.1.6-5.3c0 0-4.5.8-4.5 2.9-.4-1-.1-2.1.7-2.8 0 0-7.7 3.1-7.1 6.9l-.6-3.1s-2.4 1.1-2.5 2.6-.6-3.3-.6-3.3-7.7 3-8.2 14.4c0 0-20.2-7.6-26.8 12.9l5.1-.9s-3.9 1.6-4.5 4.2c0 0-6.2 1.7-6.2 17 0 0 1.5-6.4 6.2-7.1 0 0-6.8 2.9-7.2 17.3 1.4-1.2 3-2.2 4.8-2.9 0 0-5 3.2-3.2 11.3 0 0 .9-2.1 4.7-2.5l-.6 1.5 3.1-1.5s9.7.8 12.2 3.8c0 0 .4-3.9 3.4-1.9z" fill="#f2f2f2"/><path d="m18.2 110.9c.6 8.5 6.3 17.2 18 16.9 2.4-.1 4.9.5 7.4.3 10.3-.8 20.3.6 21.5-14.1.1-.2.1-.4.2-.7.7-2 .9-4.1.8-6.2-.8-10.5-12.7-18.5-25.9-17.5-2.4.2-4.7.6-7 1.4-9.4 3.4-15.7 11.3-15 19.9z" fill="#f9c6a3"/><path d="m50.6 90.8c-3.4-1-6.9-1.3-10.4-1.1-2.4.2-4.7.6-7 1.4-9.5 3.2-15.7 11.2-15 19.7.3 3.9 3.1 16.4 17 17 0 0-19-12.8-2.7-26.8 5.4-4.4 11.5-7.9 18.1-10.2z" fill="#f8b585"/><path d="m53.3 109.2s-.5-3.9 2.2-3.6c-.6.3-.9 1.1-.6 1.8 0 0 1.5-4.6 7.3 0 0 0-1.9-.7-2.6-.3 0 0 2.6.2 2.7 1.7 0 0-1.1-.3-1.5.1 0 0 1.7 1.4-.6 3.2 0-.2-3.9-3.6-6.9-2.9z" fill="#e9e8e7"/><path d="m53.6 114.7c.1 1.6 1.1 2.9 2.2 2.8s1.8-1.5 1.7-3.1-1.1-2.9-2.2-2.8-1.9 1.5-1.7 3.1z" fill="#242221"/><path d="m34.6 114.7c.1 1.6 1.1 2.9 2.2 2.8s1.8-1.5 1.7-3.1-1.1-2.9-2.2-2.8-1.8 1.5-1.7 3.1z" fill="#242221"/><path d="m63.2 117.7s.4-14-3-13.9c0 0-1.5 2.5-2.7 2.6-.2 0-.1-7-4-8.7 0 0-12.6 6.8-14.5 3.9.4-.3 5.1-2.7 4.6-4.8-.3-1.2-10.5.2-13.8 10.8-.7.5-2.1-1.2-2.7-4-1.1-5.1-3.1 9.2-3.1 9.4s-1.1-.2-2.2-1.3.7 8.1 1 9c-2.4-1.6-4.3-2.4-5.2-9.4-.9-6.5 3.9-15.1 9.3-18.6 4.4-2.9 14.4-5.2 26.9-1.5 14.9 4.4 13 17.3 12.7 19.4-.3 3.6-3.2 6-3.3 7.1z" fill="#f2f2f2"/><g fill="#e9e8e7"><path d="m37.1 110.4s-4.4 0-6.4 2.2c0 0-3-1.4.3-3-.5-.2-1.1-.1-1.6.2 0 0-.1-2.1 3.3-2-.7-.3-1.5-.4-2.2-.1 0 0 3-3.1 5.1-.3-.2-.7-.7-1.3-1.3-1.6 1.1-.1 4.6-.3 4.3 4.4z"/><path d="m63.2 115.4s3.3-3.5 8.9 1c0 0-8-1.6-9 1.3z"/><path d="m62.7 108.1.2 1.9.2 1.9c4.3-1.4 9.1-.7 12.8 2 0 0-1-5-7.3-4.8 0 0 3.2-1.9 9.1 1.6 0 .1-5.5-7.1-15-2.6z"/><path d="m80.2 100s-12.2-6.2-20 3.8c5.9-4.1 13.2-5.5 20-3.8z"/><path d="m13.5 114.3c-2.6-1.1-5.6-.5-7.6 1.4-.3.3-.2 1.6-.2 1.6l3.1-1.5s11.1 2.7 14.1 4.8c-2.6-2.8-5.8-5-9.4-6.3z"/><path d="m0 109.9s2.7-9.4 6.4-9.3c0 0-5.5-2.3-6.4 9.3z"/><path d="m30.8 69.8s-16.8-4.7-24.1 9.7c0-.1 8.7-12 24.1-9.7z"/><path d="m1 100s.4-14.3 7.1-15c.3-2.5 1.5-4.8 3.4-6.4 0 0-3.8 1.5-4.3 4.1.1 0-7.2 1.8-6.2 17.3z"/><path d="m33.1 70.7s3.1-14.5 8.6-18.5c0 0-8.2 3-8.2 14.4z"/><path d="m75.7 67.7s-14.9-4.6-22.7 15.7c4.7-8.5 13.1-14.2 22.7-15.7z"/><path d="m75.7 71.5s-5.3-.6-6.9 6c0 0-.9-9.2 6.9-6z"/><path d="m89.3 100s-6.4-19.9-16.3-23.9c0 0 12.7.1 16.3 23.9z"/><path d="m54.4 97.4c4.4-1.6 14.9-7 12.7-13.7 0 0 4.8 7-4.8 11 0 0 5.6-1.6 7.8.2 0 0-9.2 1.4-14.7 4.4-.5-.7-1.2-1.3-2-1.7.1.1.8-.1 1-.2z"/><path d="m39 101.6s17.3-9.1 6.2-10c.1-.1 19.8-2.7-6.2 10z"/><path d="m39 101.6s1 3.1 12.5-3c.1 0-8.8 3.6-12.5 3z"/><path d="m56.2 49s-1.7 3.4 2.7 22.3c0 0-10.7-16.6-2.7-22.3z"/><path d="m36.3 83.7s-6.4-6.4-11.9-3.9c2.8-2.5 6.9-3.1 10.4-1.6-1.2-1-2.5-1.7-4-2.2 0 0 3.7-.1 4.9.8 0 0 2.3-6.5 15-3.4 0 0-13.5-1.2-14.4 10.3z"/><path d="m38 71.3c3-2.9 6.3-6.4 6.9-9.2.3-1.6.3-3.3.1-4.9-.4-4.2 1.8-6.4 7.4-8.1 0 0-4.7 2.3-4.8 11.6 1-1 2.1-1.8 3.3-2.5-3 2.2-2 4.8-3.2 6.5-1.1 1.7-9.7 6.6-9.7 6.6z"/><path d="m49.8 120.1c2.8-2.2 11.3-3.8 10.2 9.9 0 0-.6-2.2-1.9-2.1 0 0 .6 3.4-1.2 4.1 0 0-.8-3.4-2.2-2.6 0 0-2.5 4.1-4.8 4.4 0 0 .6-2.9-.9-3l-2.3 3.4-2.2-3.8s-1.5 1.8-.6 2.5c-1.3 0-2.4-.9-2.5-2.2 0 0-2.5.9-2.1 3.2-1.3-.8-2-2.2-1.9-3.7l-2.1 2.8-.6-4.5s-3.5 1.4-3.6 2.9c-.5-2.4.2-4.9 2-6.6l-3.6.6s7.8-9.1 14.3-4.2c1.1.8 2.4 1.8 6-1.1z"/></g><g fill="#dbdcda"><path d="m40.5 124.4s-8.9.2-9.3 6.7c0 0 3.4-6.1 9.3-6.7z"/><path d="m50 133.9s.1-6.4-2.4-8.1c0-.1 5.2 1.7 2.4 8.1z"/><path d="m39.5 134s-1.5-4.4 1-5.9c0 0-4.7 1.3-1 5.9z"/><path d="m46.8 134.3s-2.2-4.8-1.7-7c-.4.4-.6.9-.7 1.5-.3 1.2-.1 3.1 2.4 5.5z"/><path d="m45.6 125.2s-2.2 4.4-.9 5.4l-.1.7c-.5.1-.9.6-.9 1.1 0 .2-1.6-3.5 1.9-7.2z"/><path d="m50.1 133.6s3.8-5.8.8-8.5c0 0 5.5 4.6-.8 8.7"/><path d="m56.9 132.1s-1.4-4.6-3.6-4.8c.1-.1 5.2-1.2 3.6 4.8z"/><path d="m60.1 130c-.6-1.5-2.2-2.4-3.8-2.3l-1.1-.5s4.3-1.8 4.9 2.8z"/><path d="m47.9 123.3s8.8-8.2 11.3 2c0 0-1.9-4-4.5-3.5 0 0 1.4.6 1.4 1.8 0 0-2.5-2.8-8.2-.3z"/><path d="m44.7 122.8s-6.4-4.1-11.2.6c0-.1 3.5-2.5 11.2-.6z"/></g><ellipse cx="46.8" cy="120" fill="#f9c7a3" rx="4.6" ry="3.3" transform="matrix(.9959 -.0899373 .0899373 .9959 -10.5991 4.6981)"/><path d="m51.3 120.4c-.1.1-.3.2-.4.3-.9.9-2.9 1.4-5.3.8-1.6-.4-2-2.5-2.1-3.8-.9.6-1.3 1.6-1.3 2.6.2 1.8 2.3 3.1 4.9 2.9 2.1-.1 3.8-1.3 4.2-2.8z" fill="#fdd5a6" opacity=".5"/><path d="m33.5 66.6s-20.2-7.6-26.8 12.9l5.1-.9s-3.9 1.6-4.5 4.2c0 0-6.2 1.7-6.2 17 0 0 1.5-6.4 6.2-7.1 0 0-6.8 2.9-7.2 17.3 1.4-1.2 3-2.2 4.8-2.9 0 0-5 3.2-3.2 11.3 0 0 .9-2.1 4.7-2.5l-.6 1.5 3.1-1.5s10.5 2.5 14.1 4.8c0 0-1.7-9.5-1.1-9 1.6 1.6 2.4 1.3 2.4 1.3s.3-2.4 1.3-8.2c.4-2.2.6-5.7-1.3-8.4-1.3-1.8-11.6-5-8.4-12.4 1.6-3.8 7.1-.1 6.1-1.1-8.4-7.9 1.4-1.8 2.8-3.2 5.1-5 10-.7 11.4-2.9s-5-8.5-2.7-10.2z" fill="#f7f8f8" opacity=".8"/><path d="m9.5 109.2c-1.3-1.3.3-8.6.3-8.6s-.1.5 1 5.2 5.4 4.9 6.1 5l.6.1 4 .7c-.1.6-.1 1.2 0 1.8-1.2-.4-2.5-.8-3.8-.9l-.6-.1c-11-.9-15.6 5.9-15.6 5.9.1-4.6 3.5-8.5 8-9.1z" fill="#e9e8e7"/><path d="m22.7 120.6.1.1s-.1-.1-.1-.1z" fill="#eaeaec" opacity=".8"/><path d="m22.8 120.5c-.2-.6-.5-2.1-.7-3.8.2 1.4.5 3.2.7 3.8z" fill="#eaeaec" opacity=".8"/><path d="m22 116.7c0-.2 0-.3-.1-.4.1.1.1.3.1.4z" fill="#f2f2f2"/><path d="m22.8 120.7s0-.1 0-.2z" fill="#f2f2f2"/><path d="m5.8 96.3c6.8-1.9 12 0 15.3 2.5 2.7 2.1 4.2 4.6 4.4 5.9 0 .1 0 .2-.1.3-5.3-11.7-16.7-9.5-19.6-8.7z" fill="#e9e8e7"/><path d="m15.9 93.7c-1.3-1.9-2.1-4.1-2.4-6.3-1.1-6.9 6.6-4.8 6.6-4.8s-5.9-.5-5.2 4.4 9.2 9.6 9.2 9.6c-.7-3-.6-6.4 2.3-8 0 0-2.2 5.5 1.5 14.8.8-16.4 10.9-15.7 10.9-15.7-8.5 2-9.8 16.3-9.9 18 .3.6.6 1.2.9 1.8 0 0-1.4 1.6-3.4-5l-1 2.5c-5.4-11.7-16.8-9.5-19.6-8.7-.4.1-.7.2-.7.2 2.3-4.3 8.7-3.4 10.8-2.8z" fill="#e9e8e7"/><path d="m4.8 107c-1.7.7-3.3 1.7-4.8 2.9.1-2.4.4-4.7.8-7 .4-1.9 1.1-3.8 2-5.6 1-.4 1.9-.7 2.9-1 2.9-.8 14.3-3 19.6 8.7-.7 3-1.4 7.8-1.4 7.9s-1.1-.2-2.2-1.3c0 0-.1-.1-.1-.1-.3.2 0 2.5.4 4.7 0 .1 0 .3.1.4.3 1.6.6 3.1.7 3.8v.2l-.2-.1c-3.2-2.1-13.9-4.7-13.9-4.7l-3 1.5c-.1-.5 0-1 .1-1.5-1.4.1-2.7.6-3.7 1.5-.2.3-.5.6-.7.9-1.7-8 3.4-11.2 3.4-11.2z" fill="#eaeaec" opacity=".65"/><path d="m49.2 147h-1.3l-.7-7.5 1.3-.3z"/><path d="m45.6 145.4c.1 0 .1 0 .2-.1 0 0 .1-.1.1-.1s.1-.1.1-.1c0-.1 0-.1 0-.2s0-.1-.1-.2c0 0-.1-.1-.1-.1h-.1c-.1 0-.1 0-.2 0s-.2 0-.2.1c-.1 0-.1.1-.1.1s-.1.1-.1.1v.1c0 .1.1.2.1.3.2.2.3.2.4.1z" fill="#fff"/><path d="m39.5 147h-.6c0-.1 0-.1 0-.2 0-.2.1-.5.2-.7s.1-.6.2-.9l-.2.1c-.1 0-.2 0-.3.1l-.2.1-.2.1s-.1.1-.1.1v.2.1.1s-.1.1-.1.1c-.1 0-.1.1-.2.1s-.2 0-.2 0-.1 0-.1-.1c0 0-.1-.1-.1-.1 0-.1 0-.2 0-.4 0-.1.1-.2.2-.3s.2-.2.3-.2c.1-.1.3-.1.5-.2s.4-.1.5-.1c.2 0 .4-.1.6-.1.3-.1.6-.1.9-.1h1c.1 0 .1 0 .2.1 0 0 .1.1.1.1v.1.1l-.1.1h-.1c-.1 0-.3 0-.4 0h-.4l-.6.1c-.2 0-.3 0-.5 0v.6s0 .4-.1.7c-.2 0-.2.2-.2.4z" fill="#fff"/><path d="m46.7 147h-.8c0-.1 0-.2-.1-.3 0-.2 0-.3 0-.5s0-.4 0-.5c0-.2.1-.4.1-.6s.1-.4.1-.6.1-.3.2-.5c.1-.1.1-.3.2-.4s.2-.2.2-.3c.1-.1.2-.1.3-.1h.2c.1 0 .1.1.1.1.1.1.2.2.2.3v.2.5c0 .2-.1.3-.1.5s-.1.3-.1.5c-.1.2-.1.3-.2.5s-.1.3-.2.5l-.2.5v.1zm.6 0 .1-.1.1.1zm-6.4 0c0-.1 0-.2 0-.3v-.1s0 0 0-.1h.1.1v.1.1.2zm.3 0c0-.1.1-.2.1-.3s.1-.1.2-.2.1-.1.2-.1h.1.1l.1.1v.1.3.1zm1.5 0c0-.1.1-.1.1-.2.1-.1.1-.2.2-.3s.2-.2.3-.2c.1-.1.2-.1.3-.1h.1.3.1v.1.1.3.3.1h-.7l.1-.5c-.1 0-.1 0-.2.1-.1 0-.1.1-.2.2s-.1.1-.1.2v.1h-.3zm2 0v-.1l.1-.4c0-.1 0-.3 0-.4v-.1l.1-.1h.1.1.2v.1.2.2.3.3.1zm2.2-2.5c0-.2 0-.4 0-.5v-.1c-.1 0-.1.1-.1.1-.1.1-.1.2-.1.3s-.1.2-.1.4-.1.3-.1.5v.5.5l.2-.5c.1-.2.1-.4.2-.5-.1-.3-.1-.5 0-.7z" fill="#fff"/><path d="m60.2 144.2c-.1.1-.1.1-.2.1s-.1.1-.2.1h-.1s0-.1-.1-.1v-.1-.1c0-.1 0-.1 0-.2s0-.1 0-.2v-.1-.1s0-.1-.1-.1h-.1-.1c-.1 0-.2 0-.2.1-.1.1-.1.1-.2.2 0 .1-.1.2-.1.2 0 .1-.1.2-.1.2 0-.1 0-.2 0-.3v-.2c0-.1 0-.1 0-.1v-.1h-.1-.2-.1v.1.2.3.3.5c-.1.1-.2.1-.2.2-.1.1-.2.1-.3.2-.1 0-.2.1-.3.1h-.1-.1s-.1 0-.1-.1l-.1-.1c.1-.1.3-.1.4-.2s.2-.2.3-.3c-.1-.1-.1-.2-.2-.3 0-.1 0-.2 0-.3s0-.2-.1-.2c0-.1-.1-.1-.2-.2-.1 0-.1-.1-.2-.1s-.2 0-.3 0-.2.1-.3.1c-.1.1-.2.1-.2.2-.1.1-.1.2-.2.3 0 .1-.1.2-.1.3v.3.3.2l-.1.1-.1.1-.1.1s-.1.1-.2.1-.1.1-.2.1h-.1-.1-.1v-.1l.1-.1.1-.2.2-.3.2-.3.1-.2c0-.1.1-.1.1-.2 0 0 .1 0 .1-.1 0 0 0 0 0-.1v-.1c0-.1 0-.1-.1-.2h-.1-.1-.1-.2-.2-.1-.1-.1-.1-.2c-.1 0-.1.1-.2.1-.1.1-.1.1-.1.2s-.1.2-.1.4v.1.1h.1s.1 0 .1-.1.1-.1.1-.2l.1-.1h.1.4.1.1.1l-.5 1s0 .1-.1.1l-.1.1h-.1-.1c0-.1 0-.1 0-.2s0-.2 0-.3 0-.2 0-.3 0-.2 0-.3 0-.2 0-.3v-.1s0 0 0-.1c0 0 0 0-.1 0h-.3-.1-.1c-.1 0-.2 0-.3.1s-.2.1-.3.2-.2.2-.2.3c-.1.1-.1.2-.2.4 0 .1-.1.3-.1.4v.2l-.1.1-.1.1-.1.1h-.1v.2-.1-.1-.1-.1-.1s0 0 0-.1l.2-.5c.1-.2.1-.3.2-.5l.2-.5c.1-.2.1-.3.2-.5 0-.2.1-.3.1-.5s0-.3 0-.5c0-.1 0-.1 0-.2s0-.1-.1-.2c0 0-.1-.1-.1-.1-.1 0-.1 0-.2 0s-.2.1-.3.1c-.2 0-.4.1-.6.2-.1.1-.2.3-.2.4-.1.2-.1.3-.2.5 0 .2-.1.4-.1.5s-.1.4-.1.6 0 .4 0 .5v.5c0 .2.1.3.1.4l-.1.1c-.1 0-.1.1-.2.1l-.2.1c0-.1.1-.2.1-.2 0-.1 0-.1 0-.2s0-.1 0-.2 0-.2 0-.2c0-.1 0-.2-.1-.3 0-.1-.1-.2-.2-.2-.1-.1-.1-.1-.2-.1s-.2 0-.3 0-.2.1-.2.1l-.2.3c.1-.1.2-.3.3-.5s.2-.3.3-.5.1-.3.2-.5c0-.2 0-.3 0-.5 0-.1 0-.2-.1-.3 0-.1-.1-.2-.1-.2-.1-.1-.1-.1-.2-.1s-.2 0-.3 0-.2.1-.3.2-.2.2-.2.4c-.1.2-.1.4-.2.5 0 .2-.1.4-.1.6s0 .4-.1.6 0 .4 0 .6v.7.5.4l.4.1.4.1h.4.1l.2-.1.1-.1s.1-.1.1-.1l.3-.1.3-.2c.1 0 .1-.1.2-.1v.1c.1.1.1.2.2.3s.2.1.2.1h.2l.2-.1.2-.1.2-.2h.1s.1.1.1.1c.1.1.1.1.2.1h.2c.1 0 .1 0 .2-.1.1 0 .1-.1.2-.1s.1-.1.2-.1l.1-.1c.1.1.1.2.2.3s.2.1.3.1.2 0 .2-.1c0 0 .1-.1.1-.1h.2l.2.1h.2.1.1l.2-.1.2-.1c.1 0 .2-.1.2-.1.1 0 .1-.1.2-.2v.1c.1.1.2.2.3.2h.4c.1 0 .2 0 .3-.1l.3-.1c.1 0 .2-.1.2-.2l.1-.1c0 .1 0 .1.1.1 0 0 .1.1.1.1h.2.1s0 0 .1-.1v-.1s0-.1 0-.2l.3-1.3c0 .1 0 .2.1.3 0 .1.1.2.1.3l.2.2h.3c.1 0 .1 0 .2-.1.1 0 .1-.1.2-.1l.2-.1.1-.1v-.6c-.1 0-.1.1-.1.1zm-10.7.4c0-.1 0-.2 0-.3s0-.2 0-.3 0-.2 0-.4l.1-.3c0-.1 0-.2.1-.3 0-.1.1-.1.1-.2 0 0 0-.1.1-.1h.1v.1.3c0 .1 0 .2-.1.3 0 .1-.1.2-.1.3l-.1.3c0 .1-.1.2-.1.3s-.1.2-.1.3c-.2.1 0 0 0 0zm1 1v.2.2c0 .1 0 .1-.1.2 0 .1-.1.1-.1.1s-.1.1-.1.1h-.4-.2v-.6c0-.1 0-.2 0-.3s.1-.1.2-.2c0-.1.1-.1.1-.1.1 0 .1 0 .2-.1h.2.1l.1.1v.1c-.1.1-.1.2 0 .3zm1.2-1.4c0-.2 0-.3 0-.5 0-.1 0-.3 0-.4s.1-.3.1-.4.1-.2.1-.3.1-.1.1-.1v.1.5c0 .2-.1.4-.1.5s-.1.4-.2.5-.1.3-.2.5c.1 0 .1-.2.2-.4zm2 1.1v.2l-.1.2c0 .1-.1.1-.1.2s-.1.1-.2.1h-.1s0 0-.1-.1v-.1-.1c0-.1 0-.2 0-.2 0-.1 0-.2 0-.2 0-.1.1-.2.1-.2l.1-.2c0-.1.1-.1.2-.2.1 0 .1-.1.2-.1zm3.1-.5c0-.1 0-.1 0-.2s0-.1 0-.2 0-.1.1-.1c0 0 .1-.1.1-.1.1 0 .1-.1.2-.1 0 0 .1 0 .1.1s.1.1.1.2v.2c-.1.1-.2.2-.3.3-.1 0-.1.1-.2.1-.1-.1-.1-.2-.1-.2z" fill="#fff"/><path d="m47.8 141.6c0-.1 0-.1.1-.1h.3c.1 0 .1.1.1.1v.1c0-.1-.1-.1-.1-.1h-.4c0-.1 0-.1 0 0z" fill="#5c5c5c"/><path d="m46.7 139.4c0 .2.1.4.3.5.1.2.2.3.2.5v.1.1c0 .5.1 1 .1 1.4v.3c0 .1.1.2.2.2h.5.5c.1 0 .1-.1.1-.2s0-.2-.1-.3c-.1-.4-.2-.9-.3-1.4v-.1-.1c0-.2 0-.4.1-.5.1-.2.1-.3.1-.5 0-.1 0-.1 0-.2-.2-.4-.6-.3-.9-.3s-.7 0-.8.4v.2zm.8 3.1-.1-.5c0-.1 0-.1.1-.2h.8c.1 0 .1.1.2.2l.1.4v.1c-.3 0-.5 0-.8 0h-.1c-.1 0-.1 0-.2 0z" fill="#b3b3b3" opacity=".7"/><path d="m46.6 139.2c.1.2.1.4.3.5.1.2.2.3.2.5v.1c.1.8.2 1.7.2 1.8s.1.2.2.2h.5c.2 0 .4 0 .5-.1.1 0 .1-.1.1-.2s-.2-1-.3-1.8v-.1c0-.2 0-.4.1-.5.1-.2.1-.3.1-.5 0-.1-.1-.3-.1-.4-.2-.4-.6-.3-.9-.3s-.7 0-.8.4c-.1.2-.1.3-.1.4zm.8 2.7c0-.1 0-.1.1-.2h.8c.1 0 .1.1.1.2l.1.4c0 .1 0 .1-.1.2-.3 0-.5 0-.8 0-.1 0-.1-.1-.1-.2z" fill="#535353"/><path d="m47.1 140.2c.1.8.2 2 .2 2.1s.1.2.2.2h.5c.2 0 .4 0 .5-.1.1 0 .1-.1.1-.2s-.3-1.3-.4-2.1c0-.2 0-.4.1-.6.2-.3.2-.6 0-.9-.2-.4-.6-.3-.9-.3s-.7 0-.8.4 0 .5.2.9c.2.2.3.4.3.6zm.3 1.7c0-.1 0-.1.1-.2h.8c.1 0 .1.1.1.2l.1.4c0 .1 0 .1-.1.2-.3 0-.5 0-.8 0-.1 0-.1-.1-.1-.2z" fill="#777"/><path d="m46.7 138.9c0-.2.2-.3.5-.3h.4c.3 0 .5 0 .6.3.1.2.1.5 0 .7v.1c-.1.2-.1.4-.1.6.1.6.2 1.4.3 1.8v.3s0 .1-.1.1h-.1s.1-.1 0-.1l-.1-.4c0-.1-.1-.1-.1-.2-.3 0-.5 0-.8 0-.1 0-.1.1-.1.2l.1.4c0 .1 0 .1.1.1-.1 0-.1-.1-.1-.1s0-.1 0-.3c0-.4-.1-1.2-.2-1.8 0-.2-.1-.4-.2-.6l-.1-.1c0-.2 0-.5 0-.7z" fill="#8b8a8b"/><path d="m46.9 139.6.1.1c.1.2.2.4.2.6.1.6.2 1.4.2 1.8v.3c0 .1.1.1.1.1h.5.5s.1-.1.1-.1c0-.1 0-.2 0-.3-.1-.4-.2-1.2-.3-1.8 0-.2 0-.4.1-.6v-.1c.1-.2.1-.5 0-.7s-.3-.3-.6-.3h-.4c-.3 0-.5 0-.5.3-.2.3-.2.6 0 .7zm.5 2.3c0-.1 0-.1.1-.2h.8c.1 0 .1.1.1.2l.1.4c0 .1 0 .1-.1.2-.3 0-.5 0-.8 0-.1 0-.1-.1-.1-.2z" fill="#777"/><path d="m47.3 142.4c0 .1.1.2.2.2.4.1.7.1 1.1 0 .1 0 .1-.1.1-.2 0-.2-.5-2.5-.5-2.7 0-.1-.1-.2-.2-.2-.3-.1-.6-.1-.8 0-.1 0-.1.1-.1.2s.2 2.5.2 2.7zm.1-.5c0-.1 0-.1.1-.2h.8c.1 0 .1.1.1.2l.1.4c0 .1 0 .1-.1.2-.3 0-.5 0-.8 0-.1 0-.1-.1-.1-.2z" fill="#9e9e9e"/><path d="m47.3 142.4c0 .1.1.2.2.2.4.1.7.1 1.1 0 .1 0 .1-.1.1-.2 0-.2-.5-2.5-.5-2.7 0-.1-.1-.2-.2-.2-.3-.1-.6-.1-.8 0-.1 0-.1.1-.1.2s.2 2.5.2 2.7zm.1-.5c0-.1 0-.1.1-.2h.8c.1 0 .1.1.1.2l.1.4c0 .1 0 .1-.1.2-.3 0-.5 0-.8 0-.1 0-.1-.1-.1-.2z" fill="#9e9e9e"/><path d="m47.8 141c-.3 0-.5-.2-.5-.5l-.2-1.1c.3-.1.6-.1.8 0l.2 1.1c0 .1 0 .2-.1.3s-.1.2-.2.2z" fill="#c1c0c0"/><path d="m47.8 141c-.2 0-.5-.2-.5-.5l-.2-1.1c.3-.1.6-.1.8 0l.2 1.1c0 .1 0 .2-.1.3s-.1.2-.2.2z" fill="#908f8f"/><path d="m48 139.4v.2c-.3-.1-.5-.1-.8 0v-.2z" fill="#777"/><path d="m47.1 139.6c-.1-.1 0-.2 0-.2.3-.1.6-.1.8 0 .1 0 .2.1.2.2h-.1c-.2-.1-.5-.1-.9 0z" fill="#9e9e9e"/><path d="m47.5 140.5c0 .2.1.3.3.3.1 0 .1 0 .2-.1 0-.1.1-.1 0-.2l-.2-1.4c0-.2-.1-.3-.3-.3-.1 0-.1 0-.2.1s-.1.1 0 .2z" fill="#535353"/><path d="m47.5 140.3c0 .2.1.3.3.3.1 0 .1 0 .2-.1s.1-.1 0-.2l-.2-1.4c0-.2-.1-.3-.3-.3-.1 0-.1 0-.2.1 0 .1-.1.1 0 .2z" fill="#c2c2c2"/><path d="m47.6 142.5h.8c.1 0 .1-.1.1-.2 0 .1 0 .1-.1.2-.2 0-.5 0-.8 0-.1 0-.1-.1-.1-.2 0 .1.1.2.1.2z" fill="#908f8f"/><path d="m47.4 141.1h.8c.1 0 .1.1.1.2l.1.6c0-.1-.1-.1-.1-.2-.3 0-.5 0-.8 0-.1 0-.1.1-.1.2l-.1-.6c0-.1.1-.2.1-.2z" fill="#908f8f"/><path d="m48.3 141.1c-.3-.1-.6-.1-.8 0 0 0-.1 0-.1.1 0-.1 0-.1.1-.1.2-.1.5-.1.8 0 0 .1 0 .1 0 0z" fill="#818181"/><path d="m47.5 141.5h.8c.1 0 .1.1.1.2v.2c0-.1-.1-.1-.1-.2-.3 0-.5 0-.8 0-.1 0-.1.1-.1.2v-.2c0-.1 0-.1.1-.2z" fill="#535353"/><path d="m47.5 140.4c0 .2.1.3.3.3.1 0 .1 0 .2-.1s.1-.1 0-.2l-.2-1.4c0-.2-.2-.3-.3-.3s-.1 0-.2.1c0 .1-.1.1 0 .2z" fill="url(#e)"/><path d="m122.6 138.3c0-.1 0-.1-.1-.1 0 0 0 0-.1-.1h-.1s-.1 0-.1.1-.1.2-.1.3 0 .2-.1.4v.4.5.4s0 .3 0 .4v.3c0-.1.1-.2.1-.4 0-.1.1-.3.1-.4s.1-.3.1-.4.1-.3.1-.4 0-.3 0-.4.2-.4.2-.6zm.3 2.9c-.1 0-.1 0-.2.1-.1 0-.1.1-.2.2 0 .1-.1.2-.1.3v.4.3.3.2h.2.2.2c.1 0 .1 0 .2-.1 0-.1.1-.1.1-.2s.1-.2.1-.3 0-.2 0-.3 0-.2 0-.3 0-.2 0-.3 0-.1 0-.1 0-.1-.1-.1c0 0-.1 0-.1-.1-.2-.1-.3-.1-.3 0zm-.4-.2c.1-.2.2-.3.2-.4.1-.1.2-.2.3-.2h.3c.1 0 .2.1.3.2s.2.2.2.3.1.2.1.3 0 .2.1.3v.3.3c0 .1 0 .2-.1.3l.2-.2.2-.2.2-.2c.1-.1.1-.2.2-.3l.3.5c-.1.1-.2.2-.3.3s-.2.2-.3.3-.2.2-.3.2c-.1.1-.2.1-.4.2 0 0-.1.1-.1.1-.1 0-.1.1-.2.1s-.1.1-.2.1h-.1c-.2 0-.3 0-.5 0s-.3 0-.5-.1c-.2 0-.3-.1-.5-.1 0-.2-.1-.4-.1-.6s0-.4-.1-.6c0-.2 0-.5-.1-.8 0-.2 0-.4 0-.7s0-.5 0-.8 0-.5.1-.8c0-.3.1-.5.1-.7.1-.2.1-.4.2-.5s.2-.2.3-.2h.4c.1 0 .2.1.3.2s.1.2.2.3c0 .1.1.2.1.4v.6c0 .2-.1.4-.2.7s-.2.5-.3.7c.2.3.1.5 0 .7z" fill="#fefefe"/><path d="m124.9 140.5c.1-.2.1-.4.2-.6s.1-.5.2-.7c0-.2.1-.5.1-.7s0-.4 0-.6c0-.1 0-.1 0-.1v-.1c-.1 0-.1.1-.2.2s-.1.2-.1.4c0 .1-.1.3-.1.5s0 .4-.1.6v.6c-.1.1-.1.3 0 .5m.5 2.5c-.1 0-.2 0-.3-.1s-.2-.2-.3-.3-.2-.3-.3-.5-.2-.4-.2-.7c0-.2-.1-.4-.1-.6s0-.4 0-.7c0-.2 0-.5 0-.7s.1-.5.1-.7.1-.4.2-.6.1-.4.2-.5c.1-.2.2-.3.3-.4s.2-.2.4-.2h.2s.1.1.2.1c0 .1.1.1.1.2s.1.2.1.2c0 .2.1.4.1.6s0 .4-.1.6c0 .2-.1.4-.1.7s-.1.4-.2.7c-.1.2-.1.4-.2.6s-.1.4-.2.6v.1.1.1.1c0 .1 0 .1.1.1 0 0 0 .1.1.1 0 0 0 .1.1.1h.1s.1 0 .1-.1c0 0 .1-.1.1-.1.1 0 .1-.1.2-.1s.1-.1.1-.1c.1-.1.2-.2.3-.4l.4.6c-.2.2-.3.3-.5.5-.1.1-.1.1-.2.2s-.1.1-.2.2-.2.1-.2.1c-.3.1-.3.1-.4.2" fill="#fefefe"/><path d="m126.8 141.6v.1s0 .1.1.1c0 0 .1.1.1.1h.1c.1 0 .1-.1.2-.1 0-.1.1-.2.1-.3s0-.2 0-.3 0-.2 0-.3v-.9c-.1 0-.2.1-.2.1-.1.1-.1.1-.2.2s-.1.2-.1.3-.1.2-.1.3v.3zm2.7-.3c0 .1-.1.2-.1.3-.1.1-.1.2-.2.3s-.2.2-.3.3-.2.1-.3.2c-.1 0-.3 0-.4-.1s-.2-.2-.3-.3c0 .1-.1.1-.1.2-.1.1-.1.1-.2.2s-.2.1-.2.2-.2.1-.3.1-.2 0-.3 0-.2-.1-.3-.1c-.1-.1-.2-.1-.2-.2-.1-.1-.1-.2-.1-.3 0-.2 0-.3 0-.5s0-.3.1-.5c0-.2.1-.3.2-.5s.2-.3.3-.4.2-.2.3-.3.3-.1.4-.2h.1.1s0 0 .1.1h.1.1.1.1.1.1.1s0 0 .1.1v.1.3.4.4.4c0 .1 0 .2.1.2 0 .1.1.1.1.1s.1 0 .1-.1c0 0 .1-.1.1-.1s.1-.1.1-.1c0-.1.1-.1.1-.2.1-.1.2-.3.2-.4z" fill="#fefefe"/><path d="m128.6 141.7v-.1-.1s0-.1.1-.1c0 0 .1-.1.1-.1l.7-1.5h-.1-.1s0 0-.1 0c0 0 0 0-.1 0s-.1 0-.2 0h-.1s0 0-.1.1c0 0 0 .1-.1.1 0 .1-.1.2-.1.2 0 .1-.1.1-.1.1h-.1v-.1s0 0 0-.1 0 0 0-.1c0-.2 0-.3 0-.5 0-.1.1-.2.1-.3l.2-.2c.1 0 .1-.1.2-.1h.2.2.2.2.1.1.2s.1 0 .1 0h.1.2s.1.1.1.2v.2.1s-.1.1-.2.1c0 .1 0 .1-.1.2 0 .1-.1.2-.1.3-.1.1-.1.2-.2.4-.1.1-.1.2-.2.3s-.1.2-.1.3-.1.1-.1.2v.1h.1.1.2.1c.1 0 .2 0 .2-.1.1 0 .1-.1.2-.1.1-.1.1-.1.1-.2s.1-.1.1-.2c0 0 .1-.1.1-.1s.1-.1.1-.1h.1s.1 0 .1.1c0 0 .1.1.1.1v.1.2c0 .1-.1.1-.1.2-.1.1-.1.2-.2.2-.1.1-.2.1-.3.2s-.2.1-.3.2c-.1 0-.2.1-.3.1 0 0 0 0-.1 0h-.1c-.1 0-.1 0-.2 0s-.2 0-.3-.1c-.1 0-.1.1-.2.1s-.1 0-.2 0c0 0-.1 0-.1-.1 0 0-.1-.1-.1-.1z" fill="#fefefe"/><path d="m131.4 140.2c.1 0 .1-.1.2-.1s.1-.1.2-.2.1-.2.1-.2c0-.1 0-.2 0-.2 0-.1-.1-.2-.1-.2 0-.1-.1-.1-.1-.1-.1 0-.2.1-.2.1-.1 0-.1.1-.1.2s-.1.1-.1.2v.2.2c.1 0 .1.1.1.1m.7 1.4c-.2 0-.4 0-.5 0-.2 0-.3-.1-.4-.2s-.2-.2-.3-.4-.1-.3-.2-.5c0-.1 0-.2 0-.4 0-.1 0-.3 0-.4s.1-.3.1-.4.1-.2.2-.3.2-.2.3-.3.2-.1.4-.2h.3c.1 0 .2 0 .3.1s.2.1.2.2c.1.1.1.2.1.3v.4c0 .1-.1.3-.2.4s-.2.3-.3.4-.3.2-.4.3c0 0 .1.1.1.1s.1.1.1.1h.1.1c.1 0 .2-.1.4-.2.1-.1.2-.2.4-.3s.2-.2.3-.3.2-.2.2-.3l.5.3c-.1.2-.3.4-.5.6-.1.1-.2.2-.2.2-.1.1-.2.2-.3.2s-.2.1-.3.2-.4.3-.5.4" fill="#fefefe"/><path d="m133.1 140.7c0-.1 0-.2 0-.3s0-.3 0-.4 0-.3 0-.4 0-.3 0-.4 0-.2 0-.4 0-.2 0-.3v-.1-.1h.1.1.1.1v.1.1c0 .1 0 .2.1.3 0 .1 0 .2.1.3 0-.1.1-.2.1-.3s.1-.2.1-.3.1-.2.2-.3.2-.1.3-.1h.1.1s.1 0 .1.1c0 0 0 .1.1.1v.1.2.2.2c0 .1 0 .1.1.2 0 0 .1.1.1.1h.1.1c.1 0 .2-.1.3-.1.1-.1.2-.1.2-.2.1-.1.2-.2.2-.3l.1.7s-.1.1-.2.2-.1.1-.2.2-.1.1-.2.1-.2.1-.2.1c-.2 0-.3 0-.4 0s-.2-.1-.3-.2-.1-.2-.2-.3-.1-.2-.1-.4l-.2 1.6v.2c0 .1 0 .1-.1.1 0 0 0 .1-.1.1h-.1c-.1 0-.2 0-.2 0-.1 0-.1-.1-.1-.1 0-.1-.1-.1-.1-.2-.2.1-.2 0-.2-.1" fill="#fefefe"/><path d="m97.8 131s24.9 8.2 36.2-8.2c0 0-1.7-2.3-10 4.3-4.2 3.3-29.2 1.3-29.2 2-.1.4 3 1.9 3 1.9" fill="#010202"/><path d="m121.9 147h.1zm-.3 0h-.3v-.1h.3.2c-.1.1-.1.1-.2.1zm-1-8.5c-.1 0-.1 0-.2 0 0 0 0 0 0-.1.1-.1.3-.1.5-.1v.2c-.1 0-.2 0-.3 0zm-.5-1.9c.1-.1.3-.1.5-.1v.2c-.1 0-.2 0-.3 0 0-.1-.1-.1-.2-.1zm.2-2.8v.1c-.1 0-.2 0-.3 0h-.1s0 0 0-.1c.1.1.2 0 .4 0-.1 0-.1 0 0 0zm.3 2.3v.2c-.2 0-.3 0-.5 0 0-.1 0-.1 0-.1h.1c.1-.1.2-.1.4-.1zm-.4.9c0-.1 0-.1 0 0 .1-.1.1-.1.2-.1s.2 0 .3-.1v.2c-.2 0-.3 0-.5 0zm-.3-2.3c.2-.1.3-.2.4-.2v.2c-.1.1-.2.1-.4 0zm-.3-1.8c0-.1 0-.1 0 0 .1-.1.1-.1 0 0 .2-.1.3-.2.4-.2v.1c0 .1-.2.1-.4.1zm.9 2.8v.2c-.2 0-.3 0-.5 0 0 0 0 0 0-.1.2-.1.3-.1.5-.1zm.2 1.5v.1c-.1 0-.3 0-.5 0 .2-.1.3-.1.5-.1zm-.4.5c.1-.1.1-.1.2-.1s.2 0 .3-.1v.2c-.2.1-.3.1-.5 0zm-.7-5.3c.1-.1.3-.1.5-.1v.2c-.1 0-.2 0-.4 0 0 0 0 0-.1-.1 0 .1 0 .1 0 0zm.9 3.1c-.1 0-.2 0-.4 0h-.1s0 0 0 0c.1 0 .1 0 .2-.1h.1.2zm-.6-.4c.1-.1.3-.1.5-.1v.2c-.1 0-.2 0-.3 0 0-.1-.1-.1-.2-.1zm-.2-1.9c.1-.1.3-.1.5-.1v.2c-.1 0-.2 0-.3 0-.1-.1-.1-.1-.2-.1zm.5 1.7c-.1.1-.3.1-.5.1 0-.1 0-.1 0-.2.1 0 .3 0 .5.1 0-.1 0-.1 0 0zm-.7-1c0-.1 0-.1 0-.2h.4s0 0 0 0c0 .1-.3.2-.4.2zm.9 2.5c-.1.1-.3.1-.5.1 0-.1 0-.1 0-.2h.3s.1 0 .2.1c-.1-.1 0-.1 0 0zm-.1-2.2v.2c-.2 0-.3 0-.5 0 .2-.2.3-.2.5-.2zm-.7.4c0-.1 0-.1 0-.2h.3.1c0 .2-.2.2-.4.2zm.9 2.5c-.1.1-.3.1-.5.1 0-.1 0-.1 0-.2h.1c.1.1.2.1.4.1-.1 0-.1 0 0 0zm-.3-3.7v.2c-.2 0-.3 0-.5 0 0-.1 0-.1 0-.1.2 0 .4-.1.5-.1zm-.9-1.2h.5v.1c-.1.1-.3.1-.4.1-.1-.1-.1-.1-.1-.2zm.6 4.7c0-.1 0-.1 0-.2h.4s.1 0 0 0c0 .1-.2.2-.4.2.1 0 .1 0 0 0zm-.1-.8c0-.1 0-.1 0-.2h.4.1c-.1.2-.3.2-.5.2.1 0 .1 0 0 0zm.3 2.1h.3.2c-.1.1-.3.1-.5.1 0 0 0 0 0-.1zm-.3-2.4c0-.1 0-.1 0-.2h.2.3v.1c-.2 0-.3 0-.5.1zm.3 2h.3.1c-.1 0-.1.1-.2.1s-.1 0-.2 0 0 0 0-.1zm-.4-2.4c0-.1 0-.1 0-.2h.3.2c-.1 0-.2.1-.3.1-.1.1-.1.1-.2.1zm-.3-2.4c.1 0 .1 0 0 0h.5c-.1 0-.2.1-.3.1h-.1c-.1 0-.1-.1-.1-.1zm.6 4.6c0-.1 0-.1 0-.2h.1.3c0 .2-.2.2-.4.2zm.8.3v.2c-.2 0-.3 0-.5 0 .2-.1.3-.2.5-.2zm-1.2-3.6c0-.1 0-.1 0-.2h.3.1c.1 0 .1 0 .1.1-.1 0-.4.1-.5.1zm.3-1.7c-.1.1-.3.2-.5.2 0-.1 0-.1 0-.2zm-.4.9c0-.1 0-.1 0-.2h.3.1c.1 0 .1 0 .1.1-.2.1-.3.1-.5.1zm1.4 5.2v.2c-.2 0-.3 0-.5 0s0 0 0 0c.2-.1.4-.1.5-.2zm.4 6.5c.1-.1.3-.1.5-.1v.2c-.1 0-.2 0-.3 0 0 0-.1 0-.2-.1 0 .1 0 .1 0 0zm.1-2.7v.1c-.1 0-.2 0-.3 0h-.1s0 0 0-.1zm.3 2.2v.2c-.2 0-.3 0-.5 0 0-.1 0-.1 0-.1h.1c.2 0 .3 0 .4-.1zm-.3 1c0-.1 0-.1 0 0 .1-.1.1-.1.2-.1s.2 0 .3-.1v.2c-.2 0-.4 0-.5 0zm-.4-6.2v.2c-.1 0-.3 0-.5 0 0 0 0 0 0-.1.2 0 .4-.1.5-.1zm.1 3.9c0-.1 0 0 0 0 .2-.1.3-.2.4-.2v.2c-.1 0-.3 0-.4 0zm-.3-1.9s.1 0 0 0c.2-.1.3-.2.4-.2v.1c-.1.2-.2.2-.4.1zm.9 2.9v.2c-.2 0-.3 0-.5 0 0 0 0 0 0-.1.2-.1.3-.1.5-.1zm-.6-4.2v.2c-.1 0-.2 0-.4 0 0 0 0 0-.1 0 .2-.1.4-.1.5-.2zm.8 5.7v.1c-.1 0-.3 0-.5 0 .2-.1.3-.1.5-.1zm-.4.5c0-.1 0 0 0 0 .1-.1.1-.1.2-.1s.2 0 .3-.1v.2c-.2 0-.4 0-.5 0zm-.7-5.3c.1-.1.3-.1.5-.1v.2c-.1 0-.2 0-.4 0 0 0-.1 0-.1-.1 0 .1 0 .1 0 0zm.8 3.1c-.1 0-.2 0-.4 0h-.1c.1 0 .1 0 .2-.1h.1.2c0-.1 0 0 0 .1zm-.5-.5c.1-.1.3-.1.5-.1v.2c-.1 0-.2 0-.3 0 0 0-.1 0-.2-.1 0 .1 0 .1 0 0zm-.2-1.8c.1-.1.3-.1.5-.1v.2c-.1 0-.2 0-.3 0-.1-.1-.2-.1-.2-.1zm.4 1.7c-.1.1-.3.1-.5.1 0-.1 0-.1 0-.2.2 0 .4 0 .5.1 0-.1 0-.1 0 0zm-.6-1c0-.1 0-.1 0-.2h.4c-.1.1-.3.2-.4.2zm.8 2.5c-.1.1-.3.1-.5.1 0-.1 0-.1 0-.2h.3c.1 0 .1 0 .2.1 0-.1 0-.1 0 0zm0-2.2v.2c-.2 0-.3 0-.5 0 .2-.2.3-.2.5-.2zm-.7.4c0-.1 0-.1 0-.2h.3.1c0 .2-.3.2-.4.2zm.8 2.5c-.1.1-.3.1-.5.1 0-.1 0-.1 0-.2h.1c.2 0 .3 0 .4.1zm-.2-3.7v.2c-.2 0-.3 0-.5 0 0-.1 0-.1 0-.1.2 0 .3-.1.5-.1zm-1-1.9h.3.2c.1 0 .1 0 .1.1-.1.1-.3.1-.5.1-.1-.1-.1-.2-.1-.2zm.1.7h.5v.1c-.1.1-.3.1-.4.1-.1-.1-.1-.1-.1-.2zm.6 4.7c0-.1 0-.1 0-.2h.4s.1 0 0 0zm-.1-.8c0-.1 0-.1 0-.2h.4.1c-.2.2-.3.2-.5.2zm-.7-5.6c0-.1 0-.1 0-.2h.5c-.2.1-.4.2-.5.2zm.7 5.2c0-.1 0-.1 0-.2h.2.3v.1c-.2.1-.4.1-.5.1zm.2 2.1h.3.1c-.1 0-.1.1-.2.1s-.1 0-.2 0c.1 0 .1 0 0-.1zm-.3-2.4c0-.1 0-.1 0-.2h.3.2c-.1 0-.2.1-.3.1-.1.1-.1.1-.2.1zm-.3-2.4s.1 0 0 0h.5c-.1 0-.2.1-.3.1h-.1c-.1 0-.1-.1-.1-.1zm.1-1c.1-.1.3-.1.5-.1v.2c-.1 0-.3 0-.5-.1 0 .1 0 .1 0 0zm.4-.8v.2c-.2 0-.3 0-.5 0 0 0 0 0 0-.1.2-.1.3-.1.5-.1zm-.7 0c0-.1 0-.1 0-.2h.5v.1s0 0-.1 0c-.2.1-.3.1-.4.1zm.6-.8v.2c-.2 0-.3 0-.5 0v-.1c.2 0 .3-.1.5-.1zm-.2.4c-.1.1-.3.1-.5.1 0-.1 0-.1 0-.2h.1c.1 0 .2 0 .4.1 0-.1 0-.1 0 0zm.4 6.8c0-.1 0-.1 0-.2h.1.3c-.1.2-.2.2-.4.2zm.8.3v.2c-.2 0-.3 0-.5 0 .2-.1.3-.2.5-.2zm-1.5-5.9c0-.1 0-.1 0-.2h.4.1c-.2.1-.4.2-.5.2zm.3 2.2c0-.1 0-.1 0-.2h.3.1c.1 0 .1 0 .1.1-.2.1-.4.1-.5.1zm.2-1.6c-.1.1-.3.2-.5.2 0-.1 0-.1 0-.2.2-.1.4-.1.5 0zm-.3.9c0-.1 0-.1 0-.2h.3.1c.1 0 .1 0 .1.1-.2 0-.4.1-.5.1zm-.5-3.4c0-.1 0-.1 0-.2h.1.3c-.1 0-.2.1-.3.1 0 .1 0 .1-.1.1z" fill="#fefefe"/><path d="m117.6 145.4c0-1.3.4-2.5 1-3.6.3-.5.4-1 .5-1.5v-.2c0-.5-.1-1.1-.2-1.6-.3-1.6-.8-3.1-.5-4.8 0-.1 0-.3.4-.3.3 0 .4.2.4.3 0 1.2.1 2.3.4 3.4.2.9.3 1.7.4 2.6v.4c0 .5-.1.9-.2 1.4-.1.2-.2.4-.3.7-.5.9-.8 1.9-.9 3l-.1.4v.4s-.1.9-.4.8c-.2-.1-.4-.9-.4-.9v-.3z" fill="#e1e1e1"/><path d="m120.8 136.4c0-.8 0-1.6 0-2.3 0-.4-.2-1 0-1.2.1-.1.3-.2.6-.1s.3.5.3.5v2.3c0 .6 0 1.2.1 1.8 0 .2.1.4.1.5.3 1.3.8 2.5 1.4 3.6.3.6.6 1.1 1 1.7.2.4.4.8.4 1.2v.7c-.1.6-.2 1.3-.4 1.9v.2s-.3.8-.5.8-.2-.9-.2-.9v-.2-.1c.1-.5.2-1 .3-1.5 0-.2 0-.4 0-.6l-.1-.5c-.1-.4-.3-.7-.6-1.1-.4-.6-.7-1.2-1-1.9-.2-.5-.4-1.1-.6-1.6-.2-.6-.4-1.3-.5-1.9-.3-.5-.3-.9-.3-1.3" fill="#e1e1e1"/><path d="m97.2 136.5s4.2.9 6.3 2.8 1.6 2.1 1.6 2.1-.9-1.1-2.3-2.1c-1.5-.9-5.6-2.8-5.6-2.8" fill="#010202"/><path d="m93 127.5s-29.5-13.6-12.6-43.7c0 0 6-10.4 18.6-12 0 0 24.6-6.2 36.3 6.6 11.9 13 16.7 30.8-2.8 46.4.1 0-17.4 10.6-39.5 2.7" fill="#8e735e"/><path d="m97.2 72.8s-23.2-19-15.9 10.4" fill="#8e735e"/><path d="m83.6 82.4c-2.2-2.3-2.7-11.1.6-12.5 0 0 1.6-.3 2.7.5 0 0 8.1 5.7 4.5 9.8-3 3.5-6.3 3.6-7.8 2.2" fill="#7d6454"/><path d="m83.6 82.4.2-.2c-.4-.4-.8-1.2-1.1-2.1s-.5-2-.6-3.1c-.1-1.5 0-3.1.3-4.3.2-.6.4-1.2.7-1.6s.7-.8 1.1-.9l-.1-.3.1.3h.3 1c.4.1.8.2 1.2.5.1.1 1.4 1 2.7 2.3.6.7 1.3 1.4 1.7 2.2.5.8.8 1.6.9 2.4s-.2 1.6-.8 2.4c-1.7 2-3.5 2.9-5 3-1.1.1-1.9-.2-2.4-.8l-.2.2-.2.2c.7.7 1.7 1 2.9 1 1.6-.1 3.6-1.1 5.4-3.2.8-.9 1-1.9 1-2.8-.1-1-.5-1.9-1-2.8-.8-1.3-1.9-2.4-2.9-3.3-.9-.8-1.7-1.3-1.7-1.3l-.1.2.2-.2c-.4-.3-.9-.5-1.4-.6s-.9-.1-1.2-.1c-.2 0-.4 0-.4.1-.5.2-1 .6-1.3 1.1-.5.8-.8 1.7-1 2.8s-.2 2.3-.1 3.5.3 2.3.6 3.2c.3 1 .7 1.8 1.2 2.3z" fill="#7d6454"/><path d="m79.2 91s-9.8 23 13.1 33.2c0 0-18.6-13.2-13.1-33.2" fill="#7d6454"/><path d="m118.2 71.3s19.9-22.4 17.3 7.7" fill="#8e735e"/><path d="m133.4 78.7c1.8-2.6 1-11.4-2.5-12.3 0 0-1.6-.1-2.6 1 0 0-7.1 6.9-2.9 10.4 3.5 3 6.9 2.5 8 .9" fill="#7d6454"/><path d="m133.4 78.7.2.2c.4-.6.7-1.4.8-2.4s.2-2.1.1-3.2c-.1-1.6-.5-3.2-1-4.5-.3-.6-.6-1.2-1.1-1.7-.4-.5-.9-.8-1.5-.9s-.1 0-.4 0-.7.1-1.2.2c-.4.1-.9.4-1.3.8l.2.2-.2-.2s-1.1 1.1-2.2 2.7c-.6.8-1.1 1.7-1.5 2.6s-.6 1.9-.6 2.9c.1 1 .5 1.9 1.4 2.7 2.1 1.8 4.1 2.4 5.7 2.3 1.2-.1 2.2-.6 2.7-1.4l-.1-.3-.2-.2c-.4.6-1.3 1.1-2.3 1.2-1.4.1-3.3-.5-5.3-2.2-.8-.7-1.1-1.5-1.2-2.3s.2-1.7.5-2.6c.6-1.3 1.5-2.6 2.2-3.5.4-.5.7-.9 1-1.1.1-.1.2-.2.3-.3 0 0 .1-.1.1-.1.3-.3.7-.5 1.1-.7.4-.1.8-.2 1-.2h.2.1v-.3l-.1.3c.5.1.9.4 1.2.8.6.6 1 1.5 1.3 2.5s.5 2.2.6 3.3 0 2.2-.1 3.1-.4 1.7-.7 2.2z" fill="#7d6454"/><path d="m137.4 102.5c.7 9.3-6 17.7-16 21.1-2.4.8-5 1.4-7.7 1.6-10.7.8-20.3-4.2-24.4-11.8-.1-.2-.2-.4-.3-.7-1-2-1.6-4.2-1.8-6.5-.9-11.5 10.2-22 24.1-23.1 2.6-.2 5.1 0 7.4.4 10.3 2 18 9.6 18.7 19" fill="#cfb089"/><path d="m102.8 111.9c.1 2-.8 3.7-2.1 3.8s-2.5-1.4-2.7-3.4c-.1-2 .8-3.7 2.1-3.8s2.5 1.4 2.7 3.4" fill="#222120"/><path d="m125.4 110.2c.1 2-.8 3.7-2.1 3.8s-2.5-1.4-2.7-3.4c-.1-2 .8-3.7 2.1-3.8s2.5 1.5 2.7 3.4" fill="#222120"/><path d="m91.5 116.4s-3-14.5.6-15.1c0 0 2 2.3 3.3 2.2.2 0-1.2-7.4 2.6-9.9 0 0 14.5 4.8 16 1.5-.5-.3-5.8-1.9-5.7-4.2.1-1.3 11.1-1.7 16.6 8.8.8.4 2-1.7 2.1-4.7.3-5.6 5 9.1 5.1 9.3s1.2-.4 2-1.8c.9-1.4 1.1 8.9.9 10-.1 1.1 3.4-4.6 2.5-11.5s-7.5-13.9-13-15.9c-5.2-1.8-14.1-5.2-27.1 2.3-13.8 8-9.8 22.8-9.7 23 .4 1.8 3.2 5.9 3.8 6" fill="#222120"/><path d="m95.3 150.7c.1.4.4.9 1 1.7.2.2 0 .6-.3.6-.7.1-1.8.4-1.8 1.6-.1 1.9 4.2 6.9 10.5 4.6 6.2-2.3 7.5-9.1 6.1-11.7-1.1-2-3.8-4.2-4.8-5.2-.2-.2-.6-.1-.6.2-.3 1.1-.8 3.3-2.9 4.8-2.1 1.6-4.8 2.9-6.7 2.9-.4 0-.6.2-.5.5" fill="#9c9d9e"/><path d="m94.6 150c.5-.6 6.4-3.5 10.9-8.4 0 0 1.6 1.1 1.5 1.2-.2.1-1.7 2.7-4.1 5-2.7 2.5-7.1 3.4-7.2 3.5-.4.1-1.3-1.1-1.1-1.3" fill="#010202" mask="url(#f)"/></svg>