<svg height="101" viewBox="0 0 100 101" width="100" xmlns="http://www.w3.org/2000/svg"><path d="m47.9834717 58.2701914c1.1239011 1.123901 2.8097527 1.123901 3.9336538 0l42.3336071-39.3365376c.9365842-1.4985348.7492674-3.9336538-2.2478021-3.9336538l-83.91794694.1873168c-2.24780214 0-4.1209706 2.0604853-2.43511899 3.9336538zm47.0165283-23.9765563c0-1.8731684-2.2478021-2.9970695-3.7463369-1.6858516l-33.1550817 30.5326459c-2.2478022 2.0604853-5.0575549 3.1843863-8.0546244 3.1843863s-5.8068222-1.123901-8.0546244-2.9970695l-32.96776481-30.7199627c-1.49853476-1.3112179-3.74633691-.3746337-3.74633691 1.6858516-.18731685 8.4292581-.18731685 31.2819133-.18731685 42.520924 0 4.1209706 3.37170323 7.4926738 7.49267387 7.4926738h74.9267383c4.1209706 0 7.4926738-3.3717032 7.4926738-7.4926738z" fill="#16325c" transform="translate(0 1)"/></svg>