<svg height="100" viewBox="0 0 100 100" width="100" xmlns="http://www.w3.org/2000/svg" xmlns:xlink="http://www.w3.org/1999/xlink"><mask id="a" fill="#fff"><path d="m42.38 1.82c.535 2.945.82 6.01.82 9.205 0 13.1291667-4.5093576 24.2745833-12.3750948 32.0764399l-1.0449052.9985601h-14.54v-11.295c4.4246429-2.9621429 7.4740051-7.2823214 8.7237391-12.3880667l.2562609-1.1919333h-24.22v-17.405z" fill="#fff" fill-rule="evenodd"/></mask><mask id="b" fill="#fff"><path d="m19.82 3.55c3.54 10.635 13.46 18.55 25.18 18.55 5.5504167 0 10.3445833-1.3402431 14.2091927-3.6433044l1.0308073-.6516956 14.54 11.295c-7.445 6.87-17.63 10.9-29.78 10.9-17.0726471 0-31.9126557-9.5004888-39.54147504-23.5046287l-.67352496-1.2853713v-11.66z" fill="#fff" fill-rule="evenodd"/></mask><mask id="c" fill="#fff"><path d="m19.82 4.79v11.66c-.9 2.7-1.41 5.585-1.41 8.55 0 2.4708333.3541667 4.8861111.9930556 7.1850694l.4169444 1.3649306-15.035 11.66c-3.045-6.075-4.785-12.95-4.785-20.21 0-6.655 1.46208333-12.9864931 4.05118924-18.6748235l.73381076-1.5351765z" fill="#fff" fill-rule="evenodd"/></mask><mask id="d" fill="#fff"><path d="m40.5 0c11.552381 0 21.3405896 4.04535147 28.9802181 10.702084l1.1297819 1.017916-12.91 12.905c-4.66-4.455-10.595-6.725-17.2-6.725-11.3293333 0-20.9766667 7.3961278-24.804903 17.4957591l-.375097 1.0542409-15.035-11.66c7.405-14.705 22.625-24.79 40.215-24.79z" fill="#fff" fill-rule="evenodd"/></mask><g fill="none" fill-rule="evenodd"><path d="m-.1 44.6h43.8v-43.2h-43.8z" fill="#318af5" mask="url(#a)" transform="translate(50 40)"/><path d="m4.7 40.4h70.2v-37.2h-70.2z" fill="#3da751" mask="url(#b)" transform="translate(5 55)"/><path d="m-.1 45.8h20.4v-41.4h-20.4z" fill="#fdb900" mask="url(#c)" transform="translate(5 25)"/><path d="m.2 37h70.8v-37.2h-70.8z" fill="#ea3e36" mask="url(#d)" transform="translate(9.5 5)"/></g></svg>