<svg height="101" viewBox="0 0 100 101" width="100" xmlns="http://www.w3.org/2000/svg"><path d="m54.5105566 18.2936288c6.5259117 0 12.2840691 3.631579 15.3550864 8.9833795 2.6871401-1.1468144 5.5662188-1.9113573 8.6372361-1.9113573 11.9001919 0 21.4971209 9.5567867 21.4971209 21.4072022s-9.596929 21.4072022-21.4971209 21.4072022c-1.5355087 0-2.8790787-.1911357-4.2226488-.3822715-2.6871401 4.7783934-7.8694817 8.0277009-13.8195777 8.0277009-2.4952015 0-4.7984645-.5734072-6.9097889-1.5290859-2.6871401 6.3074792-9.0211132 10.7036011-16.5067178 10.7036011-7.6775432 0-14.3953935-4.7783934-16.890595-11.6592798-1.1516315.1911358-2.303263.3822715-3.4548945.3822715-9.21305179 0-16.6986564-7.4542936-16.6986564-16.6288089 0-6.1163435 3.26295585-11.468144 8.25335893-14.33518-.9596929-2.2936288-1.53550864-4.9695291-1.53550864-7.6454294 0-10.5124654 8.63723611-19.1135734 19.38579651-19.1135734 6.7178503.1911357 12.2840691 3.0581717 15.7389636 7.6454294 3.2629558-3.2493075 7.6775432-5.3518006 12.6679462-5.3518006z" fill="#fff" transform="translate(0 1)"/></svg>