<svg xmlns="http://www.w3.org/2000/svg" xmlns:xlink="http://www.w3.org/1999/xlink" display="none">
	<symbol viewBox="0 0 52 52" id="apps" xmlns="http://www.w3.org/2000/svg">
		<path d="M13 4H7C5.3 4 4 5.3 4 7v6c0 1.7 1.3 3 3 3h6c1.7 0 3-1.3 3-3V7c0-1.7-1.3-3-3-3zM13 36H7c-1.7 0-3 1.3-3 3v6c0 1.7 1.3 3 3 3h6c1.7 0 3-1.3 3-3v-6c0-1.7-1.3-3-3-3zM13 20H7c-1.7 0-3 1.3-3 3v6c0 1.7 1.3 3 3 3h6c1.7 0 3-1.3 3-3v-6c0-1.7-1.3-3-3-3zM29 4h-6c-1.7 0-3 1.3-3 3v6c0 1.7 1.3 3 3 3h6c1.7 0 3-1.3 3-3V7c0-1.7-1.3-3-3-3zM29 36h-6c-1.7 0-3 1.3-3 3v6c0 1.7 1.3 3 3 3h6c1.7 0 3-1.3 3-3v-6c0-1.7-1.3-3-3-3zM29 20h-6c-1.7 0-3 1.3-3 3v6c0 1.7 1.3 3 3 3h6c1.7 0 3-1.3 3-3v-6c0-1.7-1.3-3-3-3zM45 4h-6c-1.7 0-3 1.3-3 3v6c0 1.7 1.3 3 3 3h6c1.7 0 3-1.3 3-3V7c0-1.7-1.3-3-3-3zM45 36h-6c-1.7 0-3 1.3-3 3v6c0 1.7 1.3 3 3 3h6c1.7 0 3-1.3 3-3v-6c0-1.7-1.3-3-3-3zM45 20h-6c-1.7 0-3 1.3-3 3v6c0 1.7 1.3 3 3 3h6c1.7 0 3-1.3 3-3v-6c0-1.7-1.3-3-3-3z" />
	</symbol>
	<symbol viewBox="0 0 52 52" id="copy" xmlns="http://www.w3.org/2000/svg">
		<path d="M44 2H18c-2.2 0-4 1.8-4 4v2h24c2.2 0 4 1.8 4 4v28h2c2.2 0 4-1.8 4-4V6c0-2.2-1.8-4-4-4z" />
		<path d="M38 16c0-2.2-1.8-4-4-4H8c-2.2 0-4 1.8-4 4v30c0 2.2 1.8 4 4 4h26c2.2 0 4-1.8 4-4V16zm-18 7c0 .6-.4 1-1 1h-8c-.6 0-1-.4-1-1v-2c0-.6.4-1 1-1h8c.6 0 1 .4 1 1v2zm8 16c0 .6-.4 1-1 1H11c-.6 0-1-.4-1-1v-2c0-.6.4-1 1-1h16c.6 0 1 .4 1 1v2zm4-8c0 .6-.4 1-1 1H11c-.6 0-1-.4-1-1v-2c0-.6.4-1 1-1h20c.6 0 1 .4 1 1v2z" />
	</symbol>
	<symbol viewBox="0 0 52 52" id="down" xmlns="http://www.w3.org/2000/svg">
		<path d="M8.3 14h35.4c1 0 1.7 1.3.9 2.2L27.3 37.4c-.6.8-1.9.8-2.5 0L7.3 16.2c-.7-.9-.1-2.2 1-2.2z" />
	</symbol>
	<symbol viewBox="0 0 52 52" id="edit" xmlns="http://www.w3.org/2000/svg">
		<g>
			<path d="M9.5 33.4l8.9 8.9c.4.4 1 .4 1.4 0L42 20c.4-.4.4-1 0-1.4l-8.8-8.8c-.4-.4-1-.4-1.4 0L9.5 32.1c-.4.4-.4 1 0 1.3zM36.1 5.7c-.4.4-.4 1 0 1.4l8.8 8.8c.4.4 1 .4 1.4 0l2.5-2.5c1.6-1.5 1.6-3.9 0-5.5l-4.7-4.7c-1.6-1.6-4.1-1.6-5.7 0l-2.3 2.5zM2.1 48.2c-.2 1 .7 1.9 1.7 1.7l10.9-2.6c.4-.1.7-.3.9-.5l.2-.2c.2-.2.3-.9-.1-1.3l-9-9c-.4-.4-1.1-.3-1.3-.1l-.2.2c-.3.3-.4.6-.5.9L2.1 48.2z" />
		</g>
	</symbol>
	<symbol viewBox="0 0 52 52" id="lock" xmlns="http://www.w3.org/2000/svg">
		<g>
			<path d="M11 19h4c.6 0 1-.3 1-.9V18c0-5.7 4.9-10.4 10.7-10 5.3.4 9.3 5 9.3 10.4v-.3c0 .6.4.9 1 .9h4c.6 0 1-.3 1-.9V18c0-9.1-7.6-16.4-16.8-16-8.5.4-15 7.6-15.2 16.1.1.5.5.9 1 .9zM10 18.1v0zM46 27c0-2.2-1.8-4-4-4H10c-2.2 0-4 1.8-4 4v19c0 2.2 1.8 4 4 4h32c2.2 0 4-1.8 4-4V27zM30.6 42.7c.2.6-.3 1.3-1 1.3h-7.3c-.7 0-1.1-.6-1-1.3l1.8-6c-1.5-1-2.4-2.8-2.1-4.8.4-1.9 1.9-3.4 3.9-3.8 3.2-.6 6 1.7 6 4.7 0 1.6-.8 3.1-2.1 3.9l1.8 6z" />
		</g>
	</symbol>
	<symbol viewBox="0 0 52 52" id="photo" xmlns="http://www.w3.org/2000/svg">
		<g>
			<path d="M26 20c-4.4 0-8 3.6-8 8s3.6 8 8 8 8-3.6 8-8-3.6-8-8-8z" />
			<path d="M46 14h-5.2c-1.4 0-2.6-.7-3.4-1.8l-2.3-3.5C34.4 7 32.7 6 30.9 6h-9.8c-1.8 0-3.5 1-4.3 2.7l-2.3 3.5c-.7 1.1-2 1.8-3.4 1.8H6c-2.2 0-4 1.8-4 4v24c0 2.2 1.8 4 4 4h40c2.2 0 4-1.8 4-4V18c0-2.2-1.8-4-4-4zM26 40c-6.6 0-12-5.4-12-12s5.4-12 12-12 12 5.4 12 12-5.4 12-12 12z" />
		</g>
	</symbol>
	<symbol viewBox="0 0 52 52" id="world" xmlns="http://www.w3.org/2000/svg">
		<path d="M26 2C12.7 2 2 12.7 2 26s10.7 24 24 24 24-10.7 24-24S39.3 2 26 2zm0 5zm2 .1h-.2.2zM26 45C15.5 45 7 36.5 7 26c0-1 .1-2.1.3-3 1.3.2 2.9.7 3.7 1.5 1.7 1.8 3.6 3.9 5.4 4.3 0 0-.2.1-.4.4-.2.3-.4.9-.4 1.9 0 4.7 4.4 1.9 4.4 6.6 0 4.7 5.3 6.6 5.3 2.8s3.5-5.6 3.5-8.5-2.7-2.8-4.4-3.8c-1.8-.9-2.7-2.4-6.1-1.9-1.8-1.7-2.8-3.1-2-4.7.9-1.7 4.6-2 4.6-4.6s-2.5-3.1-4.3-3.1c-.8 0-2.5-.6-3.9-1.3 1.7-1.7 3.8-3.1 6-4.1 1.6.7 4.3 1.8 6.6 1.8 2.7 0 4.1-1.9 3.7-3.1 4.5.7 8.5 3 11.4 6.2-1.5.9-3.5 1.9-7 1.9-4.6 0-4.6 4.7-1.9 5.6 2.8.9 5.6-1.8 6.5 0 .9 1.8-6.5 1.8-4.6 6.4 1.9 4.6 3.7-.1 5.6 4.5 1.9 4.6 5.6-.7 2.8-4.3-1.2-1.6-.9-6.5 1.9-6.5h.9c.4 1.6.7 3.3.7 5C45 36.5 36.5 45 26 45z" />
	</symbol>
</svg>
