<svg height="100" viewBox="0 0 100 100" width="100" xmlns="http://www.w3.org/2000/svg"><g fill="none" fill-rule="nonzero"><circle cx="50" cy="50" fill="#16325c" r="50"/><path d="m48.8348948 54.972973c.649365.6486486 1.6234126.6486486 2.2727777 0l24.4594175-22.7027027c.5411375-.8648649.43291-2.2702703-1.2987302-2.2702703l-48.4859249.1081081c-1.2987301 0-2.3810052 1.1891892-1.4069576 2.2702703zm27.1651052-13.8378379c0-1.081081-1.2987301-1.7297297-2.1645502-.9729729l-19.1562694 17.6216216c-1.2987302 1.1891892-2.9221428 1.8378378-4.653783 1.8378378s-3.3550529-.6486486-4.653783-1.7297297l-19.0480419-17.7297297c-.8658201-.7567568-2.1645502-.2162163-2.1645502.9729729-.1082275 4.8648649-.1082275 18.0540541-.1082275 24.5405406 0 2.3783784 1.9480952 4.3243243 4.3291004 4.3243243h43.2910044c2.3810052 0 4.3291004-1.9459459 4.3291004-4.3243243z" fill="#fff"/></g></svg>
