<svg height="100" viewBox="0 0 100 100" width="100" xmlns="http://www.w3.org/2000/svg"><g fill="none" fill-rule="evenodd"><circle cx="50" cy="50" fill="#1877f2" r="50"/><path d="m77 50.6619505c0-14.7249995-11.8644434-26.6619505-26.5-26.6619505s-26.5 11.936951-26.5 26.6619505c0 13.3077502 9.690667 24.3378825 22.359375 26.3380495v-18.6310794h-6.7285156v-7.7069701h6.7285156v-5.873961c0-6.6821513 3.9562637-10.3731651 10.0094434-10.3731651 2.8993173 0 5.9319628.5207412 5.9319628.5207412v6.5613394h-3.3415878c-3.2919522 0-4.3185684 2.0552094-4.3185684 4.1636906v5.0013549h7.3496094l-1.1749024 7.7069701h-6.174707v18.6310794c12.668708-2.000167 22.359375-13.0302993 22.359375-26.3380495" fill="#fff"/></g></svg>