<svg height="35" viewBox="0 0 23 35" width="23" xmlns="http://www.w3.org/2000/svg"><g fill="none" fill-rule="evenodd" transform="translate(2 2)"><path d="m4.2 0h13.2l-4.8 10.9661538h6.6l-16.8 20.7138462 3.6-15.84h-6z" fill="#00a1e0"/><g fill-rule="nonzero"><path d="m4.50369473 17.0343936h-4.50369473c-.78405387 0-1.35544832-.7426454-1.15449917-1.5005108l4.2-15.84c.1388477-.52365418.6127498-.8882764 1.15449917-.8882764h13.2c.8614297 0 1.4395845.88417819 1.0941679 1.67332231l-4.0675694 9.29283154h4.7734015c1.0052343 0 1.5608547 1.16603035.9276428 1.94675985l-16.80000003 20.7138461c-.79623481.9817313-2.37247219.2155337-2.09233521-1.017069zm.61527661-15.84-3.56660946 13.4512128h4.44763812c.76646694 0 1.33455769.7116893 1.16469244 1.4590964l-2.46428419 10.8428505 11.99302615-14.7870059h-4.0934344c-.8614297 0-1.4395845-.8841781-1.0941679-1.6733223l4.0675694-9.2928315z" fill="#032e61"/><path d="m7.15350917 11.2759807 1.8-6.70153847c.17111264-.63706552-.20661681-1.29222337-.84368233-1.46333601s-1.29222337.2066168-1.46333601.84368232l-1.8 6.70153846c-.17111264.6370655.20661681 1.2922234.84368233 1.463336.63706552.1711127 1.29222337-.2066168 1.46333601-.8436823z" fill="#fff"/></g></g></svg>