<svg height="100" viewBox="0 0 100 100" width="100" xmlns="http://www.w3.org/2000/svg"><g fill="none" fill-rule="nonzero"><circle cx="50" cy="50" fill="#000" r="50"/><path d="m51.1085936 32.7692308c2.2742189 0 5.125-1.556262 6.8226564-3.6312778 1.5375-1.8804833 2.6585936-4.5066752 2.6585936-7.1328673 0-.3566432-.0320311-.7132865-.0960936-1.0050857-2.5304689.0972664-5.5734375 1.7183725-7.3992189 3.8906547-1.4414061 1.6535285-2.7546875 4.2472983-2.7546875 6.9059124 0 .3890653.0640628.7781309.0960939.9078194.1601561.0324223.4164061.0648443.6726561.0648443zm-8.0078122 39.2307692c3.1070311 0 4.484375-2.1074381 8.3601561-2.1074381 3.9398439 0 4.8046875 2.0425937 8.2640625 2.0425937 3.3953125 0 5.6695314-3.1773679 7.815625-6.2898917 2.4023436-3.5664337 3.3953125-7.0680229 3.459375-7.2301336-.2242186-.0648441-6.7265625-2.7558806-6.7265625-10.3102352 0-6.5492689 5.125-9.4996822 5.4132811-9.726637-3.3953122-4.9281628-8.5523436-5.0578512-9.9617186-5.0578512-3.8117186 0-6.91875 2.3343929-8.8726564 2.3343929-2.1140622 0-4.9007811-2.2047045-8.2-2.2047045-6.278125 0-12.6523436 5.252384-12.6523436 15.1735538 0 6.1602033 2.3703125 12.6770502 5.2851564 16.8919261 2.4984372 3.5664338 4.6765622 6.4844248 7.815625 6.4844248z" fill="#fff"/></g></svg>