<svg viewbox="0 0 100 100" xmlns="http://www.w3.org/2000/svg"><path d="M50.581 21.77c3.941 0 8.882-2.747 11.824-6.409 2.664-3.318 4.607-7.953 4.607-12.587 0-.63-.056-1.26-.167-1.774-4.385.172-9.658 3.032-12.822 6.866-2.498 2.918-4.774 7.495-4.774 12.187 0 .686.11 1.373.166 1.602.278.057.722.114 1.166.114zM36.704 91c5.384 0 7.77-3.719 14.488-3.719 6.827 0 8.326 3.605 14.321 3.605 5.884 0 9.825-5.608 13.545-11.1 4.163-6.294 5.884-12.473 5.995-12.76-.389-.114-11.657-4.863-11.657-18.194 0-11.557 8.881-16.764 9.38-17.164-5.883-8.697-14.82-8.926-17.263-8.926-6.606 0-11.99 4.12-15.376 4.12-3.664 0-8.493-3.891-14.21-3.891C25.046 22.97 14 32.24 14 49.748c0 10.87 4.108 22.37 9.16 29.809C27.488 85.85 31.263 91 36.703 91z"/></svg>
