<svg height="97" width="71" xmlns="http://www.w3.org/2000/svg"><mask id="a" fill="#fff"><path d="m51.675 76.055 1.208 1.129c-.795-.745-.987-1.933-.562-3.559l-1.208-1.129c-.425 1.626-.235 2.816.562 3.559" fill-rule="evenodd"/></mask><g fill="none" fill-rule="evenodd"><path d="M29.226 65.874s-3.004-1.977-4.928-.594c-1.923 1.382-5.386 2.797-5.386 2.797s-3.34 2.868-4.513-.241c-1.172-3.109 8.284-9.962 8.284-9.962l13.994-.268s7.472 13.387-7.45 8.268" fill="#020303"/><path d="M19.835 66.205s-5.867 4.038-4.991 9.37c.877 5.332 8.353 10.042 10.466 10.327 2.112.284 9.61-7.94 9.61-7.94s-4.97-3.562-3.77-7.55c1.198-3.989-11.315-4.207-11.315-4.207" fill="#8e735e"/><path d="M57.269 62.131c1.717 1.108 2.619 11.706 2.775 13.017.172 1.447.028 6.23-.037 8.852h-36.89c.032-.474.07-.996.135-1.615.04-.387.335-5.055.185-5.347-1.395-2.726-.109-1.211-.22-7.079-.039-2.06 3.546-2.996 7.104-1.648 15.821 5.987 23.452-8.436 26.948-6.18z" fill="#20201f"/><path d="M19.835 66.205s-8.35 4.394-7.47 11.03c.713 5.356 7.525 10.67 9.637 10.956 2.113.285 10.89-8.792 10.89-8.792s-5.42-3.339-4.221-7.327c1.199-3.987-8.836-5.867-8.836-5.867" fill="#20201f"/><g fill="#fefefe"><path d="M32.741 79.425a.954.954 0 0 1 .012-.468.993.993 0 0 1 .229-.386 1.8 1.8 0 0 1 .41-.316c.166-.094.353-.18.558-.257s.43-.147.672-.208a14.939 14.939 0 0 1 1.87-.365 12.11 12.11 0 0 1 1.245-.096c.101 0 .177.023.228.067a.294.294 0 0 1 .093.289.457.457 0 0 1-.05.12.346.346 0 0 1-.212.156 5.49 5.49 0 0 1-.494.078c-.174.019-.355.037-.543.054l-.58.059c-.2.02-.404.046-.613.08.01.233.016.489.013.762-.003.273-.01.554-.021.84-.012.287-.025.574-.043.86l-.053.821-.052.724c-.017.222-.029.412-.035.57a.75.75 0 0 1-.117.38.508.508 0 0 1-.11.126.284.284 0 0 1-.116.061.491.491 0 0 1-.304-.024c-.086-.038-.142-.12-.168-.241a.514.514 0 0 1-.008-.131 6.208 6.208 0 0 1-.008-.567c.006-.188.018-.384.038-.59.017-.207.043-.427.072-.658l.1-.77A85.826 85.826 0 0 0 35 78.348c-.106.032-.212.062-.321.097a4.163 4.163 0 0 0-.315.107c-.1.039-.194.081-.279.128a1.049 1.049 0 0 0-.216.148.537.537 0 0 0-.131.18.36.36 0 0 0-.019.214.557.557 0 0 1 .007.068.327.327 0 0 1-.025.143.433.433 0 0 1-.117.162.586.586 0 0 1-.27.118.577.577 0 0 1-.296-.003.435.435 0 0 1-.175-.103.414.414 0 0 1-.1-.182"/><path d="M36.666 82.168a6.212 6.212 0 0 1-.086-.699 10.076 10.076 0 0 1-.023-1.18c.005-.109.015-.2.027-.272a.615.615 0 0 1 .026-.117.237.237 0 0 1 .043-.074.188.188 0 0 1 .074-.046.664.664 0 0 1 .116-.032c.053-.012.094-.018.124-.019s.056.007.073.024a.141.141 0 0 1 .043.077l.037.148c.016.075.033.168.056.274.02.106.046.21.071.313l.034-.007.08-.301c.031-.11.07-.216.119-.318.047-.101.108-.191.181-.268a.529.529 0 0 1 .278-.151.321.321 0 0 1 .224.032.288.288 0 0 1 .134.192c.007.034.012.083.015.147.002.064.005.131.006.203l.008.204c.003.066.01.12.019.163a.617.617 0 0 0 .06.178c.022.046.05.08.08.106.03.024.06.04.091.045a.223.223 0 0 0 .098-.001.757.757 0 0 0 .27-.12 2.239 2.239 0 0 0 .476-.452l.104.722a9.094 9.094 0 0 1-.156.152c-.058.057-.12.113-.188.166a1.602 1.602 0 0 1-.22.145.812.812 0 0 1-.242.088.66.66 0 0 1-.388-.014.707.707 0 0 1-.273-.198 1.245 1.245 0 0 1-.192-.313 4.35 4.35 0 0 1-.142-.366l-.05.01-.23 1.633a1.99 1.99 0 0 1-.039.213.692.692 0 0 1-.05.142.243.243 0 0 1-.072.087.256.256 0 0 1-.096.04c-.085.019-.155.015-.213-.01s-.108-.066-.146-.12a.708.708 0 0 1-.099-.192 1.998 1.998 0 0 1-.062-.234"/><path d="M39.81 81.15c.011.05.024.1.04.145.019.048.04.087.065.12a.293.293 0 0 0 .092.077c.037.018.077.02.123.011a.279.279 0 0 0 .185-.14.986.986 0 0 0 .11-.267 1.848 1.848 0 0 0 .052-.561l-.001-.934a.547.547 0 0 0-.231.114.924.924 0 0 0-.188.215c-.055.086-.104.18-.143.284a1.88 1.88 0 0 0-.129.642c-.002.107.006.205.026.294zm2.651-.3a2.68 2.68 0 0 1-.352.572c-.08.098-.17.189-.272.265a.772.772 0 0 1-.317.153.476.476 0 0 1-.36-.06 1.076 1.076 0 0 1-.311-.327 1.653 1.653 0 0 1-.344.419 1.509 1.509 0 0 1-.24.17.912.912 0 0 1-.263.104.725.725 0 0 1-.298-.001.744.744 0 0 1-.281-.12.86.86 0 0 1-.227-.235.943.943 0 0 1-.138-.347 1.854 1.854 0 0 1-.034-.482c.009-.17.035-.337.08-.506.042-.17.101-.333.176-.49.073-.158.162-.299.261-.426.101-.128.213-.235.336-.322a1.03 1.03 0 0 1 .394-.176.186.186 0 0 1 .116.004c.029.014.055.03.077.05l.065.058a.137.137 0 0 0 .071.036.31.31 0 0 0 .079.004.792.792 0 0 0 .147-.027.625.625 0 0 1 .155-.025.14.14 0 0 1 .077.025.194.194 0 0 1 .065.076c.02.034.036.082.048.146.021.096.033.207.039.33.004.123.007.25.009.38.001.13.004.258.01.388.006.128.02.25.044.36a.78.78 0 0 0 .072.22c.028.05.07.067.127.056a.34.34 0 0 0 .13-.06.953.953 0 0 0 .121-.112c.043-.045.081-.094.12-.149.04-.053.074-.107.107-.163.077-.13.153-.274.224-.433z"/><path d="M41.96 77.79a.522.522 0 0 1 .218-.52.691.691 0 0 1 .274-.112.853.853 0 0 1 .206-.016.48.48 0 0 1 .18.04c.055.024.1.06.14.108.038.05.065.112.08.187a.608.608 0 0 1 .01.209.464.464 0 0 1-.072.195.534.534 0 0 1-.158.16.674.674 0 0 1-.256.105c-.18.036-.32.021-.423-.045a.463.463 0 0 1-.198-.31zm2.014 2.847a2.87 2.87 0 0 1-.888.794c-.122.07-.242.118-.36.142a.735.735 0 0 1-.275.01.436.436 0 0 1-.2-.085.49.49 0 0 1-.137-.174 1.044 1.044 0 0 1-.081-.246 2.518 2.518 0 0 1-.048-.453 8.39 8.39 0 0 1-.002-.55c.004-.19.011-.381.022-.572s.017-.365.022-.524a.281.281 0 0 1 .057-.155.568.568 0 0 1 .125-.121.912.912 0 0 1 .312-.135c.084-.019.146-.015.183.01s.06.065.072.118c.01.044.012.11.01.2a5.87 5.87 0 0 1-.018.302l-.025.363a12.7 12.7 0 0 0-.022.389c-.004.13-.005.253 0 .375.003.12.015.228.035.321a.64.64 0 0 0 .076.212c.031.05.078.067.142.055a.526.526 0 0 0 .228-.128 2.11 2.11 0 0 0 .23-.24c.078-.091.152-.185.222-.28.072-.095.136-.177.192-.245z"/><path d="M44.068 78.754c.058-.182.117-.385.178-.609.06-.224.113-.453.16-.688.046-.234.08-.464.103-.692.024-.229.024-.437.004-.625a4.521 4.521 0 0 0-.036-.15c-.012-.041-.026-.06-.042-.057-.06.013-.114.065-.167.154a1.64 1.64 0 0 0-.14.351c-.04.145-.074.31-.1.495a6.106 6.106 0 0 0-.042 1.21c.015.212.043.416.082.611m.505 2.435a.43.43 0 0 1-.337-.08 1.281 1.281 0 0 1-.327-.338 2.677 2.677 0 0 1-.283-.53 3.812 3.812 0 0 1-.199-.662 4.864 4.864 0 0 1-.083-.597 7.085 7.085 0 0 1-.021-.68c.004-.236.017-.474.04-.716.022-.242.056-.477.102-.705.045-.227.1-.441.165-.644.067-.205.141-.385.227-.544.085-.16.184-.288.291-.393a.73.73 0 0 1 .353-.193.373.373 0 0 1 .396.143c.045.058.083.127.114.207s.054.162.073.246c.038.191.058.39.056.597a4.73 4.73 0 0 1-.054.633 7.076 7.076 0 0 1-.132.655c-.056.222-.116.442-.18.662a37.73 37.73 0 0 1-.196.65 17.51 17.51 0 0 0-.184.625 1.05 1.05 0 0 0-.024.196 3.534 3.534 0 0 0-.007.127c-.001.044 0 .09.003.13l.006.043a.853.853 0 0 0 .118.276.43.43 0 0 0 .072.083c.024.019.043.028.06.024a.444.444 0 0 0 .127-.052c.047-.026.095-.06.145-.098.05-.038.1-.083.153-.13.05-.048.1-.095.148-.143.11-.113.223-.239.34-.38l.384.588c-.156.167-.31.32-.465.459l-.212.176a3.55 3.55 0 0 1-.226.162c-.077.05-.151.093-.227.128a.919.919 0 0 1-.216.075M47.581 75.309a.361.361 0 0 0-.016-.05.27.27 0 0 0-.1-.143.107.107 0 0 0-.09-.018c-.04.01-.077.046-.107.113-.033.067-.06.153-.082.26a3.77 3.77 0 0 0-.054.367 10.054 10.054 0 0 0-.053.883 16.717 16.717 0 0 0-.002.81l.006.273a6.32 6.32 0 0 1 .116-.368 9.715 9.715 0 0 0 .256-.817c.04-.142.072-.286.098-.432.025-.146.041-.293.048-.44.007-.145 0-.292-.02-.438zm.281 2.85a.596.596 0 0 0-.373.268.856.856 0 0 0-.111.27c-.028.107-.038.23-.032.37.004.113.01.218.017.312l.022.252.025.234c.072.004.143.008.212.008.061 0 .126-.002.193-.004.067-.003.13-.011.188-.024a.323.323 0 0 0 .177-.1.62.62 0 0 0 .12-.195c.028-.077.05-.163.066-.257.015-.093.02-.191.022-.29a2.527 2.527 0 0 0-.05-.546.603.603 0 0 0-.047-.14.284.284 0 0 0-.225-.166.539.539 0 0 0-.204.008zm-.32-.166c.084-.166.165-.3.24-.406a.435.435 0 0 1 .257-.188.664.664 0 0 1 .336.013.747.747 0 0 1 .281.16c.082.074.154.164.213.27.058.106.1.222.124.346a2.172 2.172 0 0 1 .061.576 1.577 1.577 0 0 1-.033.281c-.02.097-.049.196-.09.302a8.55 8.55 0 0 1 .195-.17c.068-.056.134-.117.2-.182a2.572 2.572 0 0 0 .39-.47l.338.452a2.86 2.86 0 0 1-.578.603c-.106.08-.217.152-.335.22-.12.067-.247.131-.381.192a.673.673 0 0 1-.121.134 2.34 2.34 0 0 1-.158.13c-.06.048-.126.094-.198.14l-.074.016a1.91 1.91 0 0 1-.53.035 3.75 3.75 0 0 1-1.003-.199 12.256 12.256 0 0 1-.078-.565 20.01 20.01 0 0 1-.134-2.171c-.003-.255.004-.515.017-.779.014-.264.037-.522.07-.777.033-.253.081-.483.143-.687.062-.207.141-.377.237-.513a.563.563 0 0 1 .349-.248.778.778 0 0 1 .389.001c.105.034.19.09.261.17.07.08.125.179.167.297a3.3 3.3 0 0 1 .105.385c.04.193.045.4.016.619-.029.22-.08.444-.154.672a6.16 6.16 0 0 1-.264.678 12.57 12.57 0 0 1-.313.64z"/><path d="M49.886 77.524c.057-.182.116-.385.176-.61.061-.223.114-.453.16-.688a7.59 7.59 0 0 0 .104-.692c.023-.228.024-.436.003-.625a2.723 2.723 0 0 0-.035-.15c-.011-.04-.026-.06-.043-.055-.059.012-.114.064-.166.152a1.626 1.626 0 0 0-.14.353 3.5 3.5 0 0 0-.1.494c-.027.185-.043.38-.05.584-.01.206-.006.414.008.626.014.211.042.416.083.61m.503 2.436a.428.428 0 0 1-.336-.081 1.264 1.264 0 0 1-.328-.337 2.676 2.676 0 0 1-.281-.53 3.7 3.7 0 0 1-.2-.662 4.62 4.62 0 0 1-.083-.597 6.68 6.68 0 0 1-.021-.68c.002-.237.017-.474.04-.717a6.97 6.97 0 0 1 .102-.704c.044-.227.1-.442.166-.645.065-.204.14-.384.227-.544.085-.157.181-.287.29-.392a.73.73 0 0 1 .353-.194.373.373 0 0 1 .395.143.775.775 0 0 1 .115.207c.03.08.054.162.072.247.04.191.058.39.055.597a4.55 4.55 0 0 1-.051.634 7.14 7.14 0 0 1-.133.654c-.056.221-.116.441-.18.662-.066.218-.13.436-.197.65-.066.213-.127.423-.183.624a.505.505 0 0 0-.016.086c-.005.035-.007.072-.01.11a3.627 3.627 0 0 0-.003.258l.008.042c.01.053.027.102.05.15.02.048.044.09.068.126a.43.43 0 0 0 .071.084c.024.018.043.028.059.024a.415.415 0 0 0 .129-.052c.046-.025.094-.06.143-.098.05-.039.1-.083.153-.13a5.142 5.142 0 0 0 .488-.523l.385.588c-.155.167-.31.32-.465.459l-.213.176a3.186 3.186 0 0 1-.225.162 1.72 1.72 0 0 1-.228.127.898.898 0 0 1-.216.076"/><path d="M51.84 78.628c.012.05.026.1.041.145.018.048.04.088.066.12a.279.279 0 0 0 .091.078c.037.017.077.02.124.01a.282.282 0 0 0 .184-.14.986.986 0 0 0 .11-.267 2 2 0 0 0 .052-.561l-.001-.932a.53.53 0 0 0-.231.112.924.924 0 0 0-.187.215c-.056.086-.105.18-.144.284a1.88 1.88 0 0 0-.13.642 1.36 1.36 0 0 0 .025.294zm2.652-.3a2.422 2.422 0 0 1-.352.573 1.66 1.66 0 0 1-.272.265.772.772 0 0 1-.317.152.475.475 0 0 1-.36-.06 1.076 1.076 0 0 1-.311-.327 1.653 1.653 0 0 1-.344.419 1.509 1.509 0 0 1-.24.171.927.927 0 0 1-.263.103.724.724 0 0 1-.298 0 .744.744 0 0 1-.28-.12.84.84 0 0 1-.228-.236.943.943 0 0 1-.138-.346 1.799 1.799 0 0 1-.034-.483c.009-.17.035-.337.08-.506.042-.17.1-.332.176-.49.073-.158.16-.299.261-.426s.213-.235.336-.322c.122-.088.252-.146.394-.175a.186.186 0 0 1 .116.004c.029.013.055.03.077.049l.065.058a.137.137 0 0 0 .071.036.3.3 0 0 0 .077.004.768.768 0 0 0 .08-.01l.069-.017a.684.684 0 0 1 .155-.025.14.14 0 0 1 .077.025.194.194 0 0 1 .065.076c.02.034.036.082.048.146.021.097.033.207.039.33.004.123.006.25.009.38 0 .13.004.258.01.388.004.129.02.25.043.36.02.096.044.168.072.22.029.05.071.069.128.057a.326.326 0 0 0 .128-.06.88.88 0 0 0 .123-.113 1.819 1.819 0 0 0 .227-.312c.077-.13.153-.274.225-.433z"/><path d="M53.612 78.696a.23.23 0 0 1 .001-.117.46.46 0 0 1 .047-.097.94.94 0 0 1 .076-.1c.027-.035.057-.076.084-.124l.683-1.468a2.803 2.803 0 0 1-.104-.027l-.08-.024a.297.297 0 0 0-.146-.005 3.847 3.847 0 0 0-.16.036.357.357 0 0 0-.104.044.233.233 0 0 0-.067.071.696.696 0 0 0-.057.121c-.042.11-.081.192-.113.247-.033.054-.068.086-.102.091a.072.072 0 0 1-.079-.029.363.363 0 0 1-.043-.113.869.869 0 0 1-.011-.066c-.003-.024-.004-.049-.005-.073a1.493 1.493 0 0 1 .042-.456.844.844 0 0 1 .137-.295.549.549 0 0 1 .195-.167.729.729 0 0 1 .204-.075c.048-.01.1-.01.153.004.054.013.107.029.16.047.055.019.108.035.164.048a.437.437 0 0 0 .16.005 2.702 2.702 0 0 0 .206-.04 2.632 2.632 0 0 0 .303-.078.468.468 0 0 0 .051-.022.08.08 0 0 1 .024-.01c.07-.013.126 0 .169.044.042.043.07.108.089.193a.837.837 0 0 1 .018.18c0 .017-.015.041-.047.074s-.088.07-.168.11a2.508 2.508 0 0 1-.083.215 36.187 36.187 0 0 1-.307.667l-.167.344-.14.278c-.038.081-.066.134-.078.162l-.002.064.06.01.13.023c.05.007.103.012.157.015a.52.52 0 0 0 .141-.007.695.695 0 0 0 .226-.086.887.887 0 0 0 .175-.137c.052-.05.098-.103.14-.158l.124-.153c.04-.05.08-.09.122-.126a.3.3 0 0 1 .138-.068.22.22 0 0 1 .11.005.308.308 0 0 1 .163.14.343.343 0 0 1 .04.102.329.329 0 0 1-.03.197.949.949 0 0 1-.14.224 1.735 1.735 0 0 1-.225.228 2.794 2.794 0 0 1-.283.211c-.1.063-.204.118-.312.167a1.489 1.489 0 0 1-.31.103 1.544 1.544 0 0 1-.212-.01 4.306 4.306 0 0 1-.213-.035 2.778 2.778 0 0 1-.27-.064.786.786 0 0 1-.196.078.362.362 0 0 1-.164 0 .314.314 0 0 1-.13-.064.358.358 0 0 1-.09-.111.5.5 0 0 1-.054-.143"/><path d="M56.416 77.214a.623.623 0 0 0 .227-.106 1.13 1.13 0 0 0 .21-.195c.062-.073.11-.151.147-.23a.341.341 0 0 0 .036-.217.475.475 0 0 0-.097-.215c-.047-.052-.095-.073-.142-.062a.474.474 0 0 0-.344.253.704.704 0 0 0-.064.198 1.441 1.441 0 0 0-.001.41c.01.066.018.12.028.164m.702 1.348a1.19 1.19 0 0 1-.522 0 1.05 1.05 0 0 1-.417-.206 1.202 1.202 0 0 1-.298-.36 1.851 1.851 0 0 1-.212-.836 2.072 2.072 0 0 1 .122-.778c.046-.124.106-.238.181-.342.076-.103.165-.19.27-.265a.947.947 0 0 1 .367-.154.884.884 0 0 1 .328-.01c.105.015.2.049.286.099a.766.766 0 0 1 .345.505.86.86 0 0 1-.015.397c-.036.14-.097.276-.183.41a1.896 1.896 0 0 1-.33.38c-.132.117-.282.22-.45.305.043.05.082.088.12.12a.43.43 0 0 0 .108.066.29.29 0 0 0 .105.021.458.458 0 0 0 .11-.009c.122-.025.244-.076.37-.154.125-.075.244-.164.357-.264.113-.1.217-.204.312-.314s.175-.211.239-.305l.478.326a4.21 4.21 0 0 1-.467.608c-.076.08-.158.159-.246.238a2.474 2.474 0 0 1-.605.405c-.113.052-.231.09-.353.117"/><path d="M58.103 77.692a3.795 3.795 0 0 1-.049-.314 7.735 7.735 0 0 1-.037-.385 13.601 13.601 0 0 1-.03-.822c0-.13.004-.25.009-.358s.013-.2.025-.272a.615.615 0 0 1 .027-.117.298.298 0 0 1 .043-.076.21.21 0 0 1 .073-.046.861.861 0 0 1 .242-.05.097.097 0 0 1 .072.023.162.162 0 0 1 .043.079c.011.035.023.086.036.148l.057.272c.022.107.045.21.07.314l.035-.008.08-.3c.03-.11.069-.217.118-.319.049-.1.11-.19.183-.268a.51.51 0 0 1 .276-.15.29.29 0 0 1 .117-.004.267.267 0 0 1 .191.113c.025.03.041.07.05.115.007.034.012.083.015.148l.007.201.008.206c.004.065.009.12.018.162a.613.613 0 0 0 .06.179.38.38 0 0 0 .08.104c.03.024.06.04.093.047a.239.239 0 0 0 .096-.001.77.77 0 0 0 .271-.12c.09-.06.169-.126.24-.192.083-.08.162-.166.238-.26l.102.721a9.094 9.094 0 0 1-.155.153 2.611 2.611 0 0 1-.19.166c-.068.054-.14.102-.219.143a.838.838 0 0 1-.243.09.67.67 0 0 1-.387-.014.697.697 0 0 1-.274-.2 1.275 1.275 0 0 1-.192-.311c-.052-.12-.1-.241-.142-.366l-.05.01-.228 1.633a3.151 3.151 0 0 1-.04.212.717.717 0 0 1-.051.142.24.24 0 0 1-.072.088.28.28 0 0 1-.095.04.345.345 0 0 1-.214-.012.356.356 0 0 1-.146-.118.688.688 0 0 1-.097-.193 1.997 1.997 0 0 1-.064-.233"/></g><path d="M22.806 68.045s24.876 8.197 36.214-8.247c0 0-1.733-2.317-10.03 4.285-4.179 3.324-29.22 1.336-29.242 1.965-.013.424 3.1 2.001 3.058 1.997" fill="#010202"/><path d="M42.635 82.398c-.02-1.262.376-2.493 1.017-3.63.273-.489.448-.989.454-1.51l-.006-.204a16.309 16.309 0 0 0-.182-1.608c-.262-1.551-.764-3.126-.542-4.758.015-.119-.01-.302.391-.3.268-.002.434.204.434.303-.025 1.169.138 2.298.35 3.436.16.851.338 1.719.39 2.631l.005.373c-.006.45-.073.907-.25 1.353-.083.212-.171.448-.305.683-.523.927-.789 1.932-.887 3.006l-.053.425-.044.35s-.144.878-.351.825c-.231-.057-.353-.895-.353-.895l-.032-.292-.007-.047-.018-.112zM45.765 73.372c-.024-.78-.018-1.56-.028-2.33-.005-.394-.179-.973-.034-1.174.083-.115.33-.21.582-.138.322.092.28.541.28.541l.007 2.31c.003.624.019 1.234.109 1.823.03.185.065.366.109.544a17.427 17.427 0 0 0 1.358 3.62c.277.555.631 1.098.951 1.685.202.374.357.778.424 1.209.034.225.045.458.026.696a8.615 8.615 0 0 1-.363 1.871l-.028.2s-.29.791-.509.757c-.219-.04-.235-.901-.24-.92l-.008-.234.025-.15c.097-.486.191-.968.282-1.451a1.742 1.742 0 0 0-.002-.57l-.106-.469c-.106-.379-.328-.74-.561-1.138-.363-.614-.749-1.244-1.03-1.948-.217-.539-.413-1.076-.617-1.604a9.11 9.11 0 0 1-.52-1.932 9.448 9.448 0 0 1-.107-1.198" fill="#e1e1e1"/><path d="M22.158 73.486s4.18.915 6.254 2.779c2.103 1.887 1.61 2.122 1.61 2.122s-.932-1.142-2.312-2.06c-1.38-.92-5.552-2.84-5.552-2.84" fill="#010202"/><path d="M18.017 64.528s-29.478-13.634-12.6-43.687c0 0 6.003-10.388 18.627-12.006 0 0 24.555-6.195 36.278 6.584 11.891 12.963 16.73 30.78-2.764 46.397 0 0-17.453 10.624-39.541 2.712" fill="#8e735e"/><path d="M22.248 9.765S-.947-9.25 6.348 20.118" fill="#8e735e"/><path d="M8.637 19.368c-2.181-2.256-2.748-11.107.57-12.54 0 0 1.624-.318 2.749.533 0 0 8.063 5.668 4.513 9.805-3.053 3.563-6.418 3.663-7.832 2.202" fill="#7d6454"/><path d="m8.637 19.368.199-.194c-.416-.427-.8-1.174-1.087-2.096-.291-.916-.486-2.004-.568-3.118-.112-1.505-.01-3.063.34-4.32.18-.63.416-1.184.716-1.62.304-.437.658-.754 1.082-.937l-.112-.254.053.272h.006a4.238 4.238 0 0 1 1.367.007c.395.07.807.21 1.154.473l.006.001.004.004.014.007c.14.103 1.414 1.026 2.67 2.34.634.656 1.256 1.408 1.734 2.204.48.793.81 1.622.87 2.423.057.834-.154 1.644-.826 2.427-1.728 2.015-3.536 2.871-4.979 2.976-1.059.078-1.919-.242-2.444-.789l-.2.194-.199.192c.665.686 1.698 1.043 2.885.955 1.626-.12 3.557-1.065 5.358-3.165.762-.887 1.028-1.87.957-2.831-.07-.955-.46-1.886-.997-2.752-.798-1.295-1.927-2.447-2.856-3.286a19.816 19.816 0 0 0-1.67-1.349l-.158.229.165-.222c-.438-.33-.939-.5-1.394-.58a4.84 4.84 0 0 0-1.16-.051c-.246.017-.402.049-.414.05l-.027.004-.028.013c-.534.229-.968.628-1.315 1.13-.516.754-.84 1.747-1.026 2.837-.18 1.093-.215 2.29-.13 3.458.086 1.155.29 2.277.595 3.246.304.97.702 1.78 1.215 2.314zM4.175 27.973s-9.847 22.955 13.15 33.185c0 0-18.654-13.12-13.15-33.185" fill="#7d6454"/><path d="M43.21 8.334s19.937-22.407 17.325 7.744" fill="#8e735e"/><path d="M58.445 15.665c1.799-2.57.975-11.4-2.528-12.295 0 0-1.647-.063-2.628.95 0 0-7.08 6.864-2.925 10.395 3.575 3.037 6.916 2.617 8.081.95" fill="#7d6454"/><path d="m58.445 15.665.229.157c.411-.59.675-1.43.83-2.405a14.54 14.54 0 0 0 .099-3.21c-.117-1.58-.463-3.191-1.046-4.494-.297-.647-.648-1.223-1.074-1.679-.423-.45-.922-.788-1.493-.934l-.032-.006-.032-.002a4.686 4.686 0 0 0-1.518.239c-.446.147-.927.391-1.317.8l.198.19-.194-.2c-.008.01-1.137 1.107-2.242 2.656-.552.777-1.095 1.67-1.491 2.604-.396.932-.636 1.91-.571 2.86.072.977.494 1.92 1.39 2.682 2.091 1.777 4.127 2.418 5.747 2.299 1.207-.09 2.191-.608 2.746-1.4l-.229-.157-.225-.16c-.445.63-1.257 1.084-2.333 1.165-1.44.107-3.339-.464-5.341-2.165-.798-.683-1.137-1.456-1.202-2.303-.06-.828.157-1.727.53-2.604.556-1.324 1.459-2.602 2.222-3.537.385-.471.734-.856.982-1.126l.293-.308c.036-.037.067-.065.083-.078l.025-.028h.005l.003-.007c.31-.32.709-.53 1.1-.658a4.263 4.263 0 0 1 1.011-.202 3.487 3.487 0 0 1 .294-.008l.014-.002.011-.274-.069.266c.451.117.86.382 1.232.777.557.593 1.011 1.475 1.34 2.503.335 1.025.546 2.186.63 3.33.08 1.086.047 2.161-.096 3.087-.144.922-.401 1.696-.734 2.172z" fill="#7d6454"/><path d="M62.426 39.467c.686 9.287-6.047 17.7-15.962 21.148a30.013 30.013 0 0 1-7.654 1.575c-10.78.795-20.392-4.15-24.559-11.787-.12-.222-.232-.447-.347-.673a17.685 17.685 0 0 1-1.79-6.548c-.854-11.526 10.208-22.043 24.102-23.07a28.803 28.803 0 0 1 7.442.406c10.345 1.955 18.074 9.565 18.768 18.95" fill="#cfb089"/><path d="M27.78 48.915c.146 1.981-.806 3.668-2.13 3.766-1.323.097-2.512-1.43-2.658-3.412-.149-1.983.806-3.669 2.128-3.767 1.323-.097 2.514 1.43 2.66 3.413M50.38 47.246c.146 1.982-.807 3.669-2.13 3.766-1.323.098-2.513-1.43-2.66-3.412-.147-1.984.806-3.67 2.128-3.766 1.324-.097 2.516 1.43 2.662 3.412" fill="#222120"/><path d="M16.459 53.413s-2.973-14.495.644-15.062c0 0 2.028 2.33 3.29 2.238.237-.019-1.215-7.376 2.642-9.895 0 0 14.523 4.791 15.995 1.451-.5-.256-5.842-1.937-5.745-4.237.054-1.283 11.149-1.726 16.556 8.776.846.417 1.982-1.68 2.12-4.667.259-5.584 5.006 9.102 5.096 9.321.09.22 1.167-.386 2.032-1.804.866-1.416 1.06 8.89.915 9.954-.146 1.064 3.4-4.55 2.483-11.482-.916-6.914-7.497-13.931-13.016-15.854-5.235-1.825-14.095-5.15-27.114 2.331-13.838 7.956-9.82 22.767-9.74 23.024.518 1.67 3.237 5.801 3.842 5.906" fill="#222120"/><path d="M20.263 87.674c.122.377.388.95.968 1.68a.378.378 0 0 1-.255.616c-.75.077-1.776.4-1.817 1.604-.067 1.906 4.218 6.931 10.45 4.6 6.235-2.33 7.529-9.07 6.133-11.663-1.08-2.007-3.784-4.208-4.84-5.206a.376.376 0 0 0-.626.183c-.275 1.133-.835 3.279-2.91 4.841-2.11 1.59-4.843 2.888-6.745 2.863a.37.37 0 0 0-.358.482" fill="#9c9d9e"/><path d="M19.576 87.03c.48-.623 6.367-3.488 10.884-8.427.044-.048 1.593 1.14 1.47 1.218-.199.122-1.665 2.705-4.12 5.024-2.666 2.517-7.066 3.403-7.218 3.464-.292.12-1.218-1.091-1.016-1.28" fill="#010202" mask="url(#a)"/></g></svg>