<svg viewbox="0 0 101 100" xmlns="http://www.w3.org/2000/svg"><path d="M47.983 59.27c1.124 1.124 2.81 1.124 3.934 0l42.334-39.336C95.187 18.435 95 16 92.003 16l-83.918.187c-2.248 0-4.121 2.06-2.435 3.934zM95 35.294c0-1.874-2.248-2.997-3.746-1.686L58.099 64.14c-2.248 2.06-5.058 3.185-8.055 3.185s-5.807-1.124-8.055-2.997L9.022 33.608c-1.499-1.311-3.747-.375-3.747 1.686-.187 8.429-.187 31.282-.187 42.52 0 4.122 3.372 7.493 7.493 7.493h74.926c4.121 0 7.493-3.371 7.493-7.492z" fill="#16325c"/></svg>
