<svg height="32" viewBox="0 0 23 32" width="23" xmlns="http://www.w3.org/2000/svg"><g fill="none" fill-rule="evenodd" transform="translate(2 1)"><path d="m.08502326 29.2256478h19.53041864v-23.50883717h-19.53041864z" fill="#00a1e0"/><g fill="#032e61" fill-rule="nonzero"><path d="m.08502326 30.3251381h19.53041864c.6072316 0 1.0994902-.4922586 1.0994902-1.0994903v-23.50883717c0-.60723169-.4922586-1.09949023-1.0994902-1.09949023h-19.53041864c-.60723169 0-1.09949024.49225854-1.09949024 1.09949023v23.50883717c0 .6072317.49225855 1.0994903 1.09949024 1.0994903zm1.09949023-23.50883724h17.33143811v21.30985674h-17.33143811z"/><path d="m7.13767442 11.2941746h5.42511628c.6072317 0 1.0994902-.4922585 1.0994902-1.0994902s-.4922585-1.09949025-1.0994902-1.09949025h-5.42511628c-.60723169 0-1.09949023.49225855-1.09949023 1.09949025s.49225854 1.0994902 1.09949023 1.0994902z"/><path d="m4.42511628 25.8472643h10.85023252c.6072317 0 1.0994903-.4922585 1.0994903-1.0994902s-.4922586-1.0994902-1.0994903-1.0994902h-10.85023252c-.60723169 0-1.09949023.4922585-1.09949023 1.0994902s.49225854 1.0994902 1.09949023 1.0994902z"/></g><path d="m4.42511628 20.2699003h10.85023252v-5.5973422h-10.85023252z" fill="#fff"/><path d="m4.42511628 21.3693906h10.85023252c.6072317 0 1.0994903-.4922586 1.0994903-1.0994903v-5.5973422c0-.6072316-.4922586-1.0994902-1.0994903-1.0994902h-10.85023252c-.60723169 0-1.09949023.4922586-1.09949023 1.0994902v5.5973422c0 .6072317.49225854 1.0994903 1.09949023 1.0994903zm1.09949023-2.1989805v-3.3983617h8.65125209v3.3983617z" fill="#032e61" fill-rule="nonzero"/><path d="m10.5501296 11.0426366.1693791-.1446077.2131192-.1917257c.1557844-.1432705.3381033-.3171953.5417057-.520259.6717376-.66996059 1.3424523-1.43116856 1.9699234-2.27277657 1.8244068-2.44702188 2.9305821-5.07199325 2.9305821-7.79379919 0-.60723169-.4922586-1.09949023-1.0994903-1.09949023s-1.0994902.49225854-1.0994902 1.09949023c0 2.17586847-.9282434 4.37860474-2.4945342 6.4794234-.5592731.75013617-1.16007 1.43199299-1.759844 2.03018024l-.25028339.24506859-.21462435.20218173c-.13030576.12019814-.23416641.21092285-.30623714.2704098-.46831106.38654246-.53459761 1.0795382-.14805514 1.5478492.38654246.4683111 1.07953812.5345976 1.54784922.1480552z" fill="#032e61" fill-rule="nonzero"/><path d="m7.059707 5.15937553c-.98615627-1.67658133-1.53488348-3.37212003-1.53488348-5.03990709 0-.60723169-.49225855-1.09949023-1.09949024-1.09949023-.60723168 0-1.09949023.49225854-1.09949023 1.09949023 0 2.100937.66788923 4.16468016 1.83845382 6.15477729.30786291.52340305.98173711.69813287 1.50514016.39026996.52340306-.3078629.69813287-.98173711.39026997-1.50514016z" fill="#032e61" fill-rule="nonzero"/><path d="m.08502326 29.2256478h19.53041864v-23.50883717h-19.53041864z" fill="#00a1e0"/><path d="m.08502326 30.1739582h19.53041864c.5237373 0 .9483103-.424573.9483103-.9483104v-23.50883717c0-.52373733-.424573-.94831032-.9483103-.94831032h-19.53041864c-.52373734 0-.94831033.42457299-.94831033.94831032v23.50883717c0 .5237374.42457299.9483104.94831033.9483104zm.94831032-1.8966207v-21.61221654h17.63379792v21.61221654z" fill="#032e61" fill-rule="nonzero"/><path d="m7.13767442 11.2941746h5.42511628c.6072317 0 1.0994902-.4922585 1.0994902-1.0994902s-.4922585-1.09949025-1.0994902-1.09949025h-5.42511628c-.60723169 0-1.09949023.49225855-1.09949023 1.09949025s.49225854 1.0994902 1.09949023 1.0994902z" fill="#032e61" fill-rule="nonzero"/><path d="m4.42511628 25.6960844h10.85023252c.5237374 0 .9483104-.424573.9483104-.9483103s-.424573-.9483103-.9483104-.9483103h-10.85023252c-.52373733 0-.94831033.424573-.94831033.9483103s.424573.9483103.94831033.9483103z" fill="#032e61" fill-rule="nonzero"/><path d="m4.42511628 20.2699003h10.85023252v-5.5973422h-10.85023252z" fill="#fff"/><path d="m4.42511628 21.2182107h10.85023252c.5237374 0 .9483104-.424573.9483104-.9483104v-5.5973422c0-.5237373-.424573-.9483103-.9483104-.9483103h-10.85023252c-.52373733 0-.94831033.424573-.94831033.9483103v5.5973422c0 .5237374.424573.9483104.94831033.9483104zm.94831032-5.5973422h8.9536119v3.7007215h-8.9536119z" fill="#032e61" fill-rule="nonzero"/><path d="m10.4538938 10.9260431.1667598-.142396.2104955-.1894051c.1540327-.1416842.3345938-.3139416.5364258-.5152396.6667902-.6650262 1.332698-1.42077878 1.9554805-2.25609811 1.8066614-2.4232204 2.9006038-5.01916311 2.9006038-7.70343585 0-.52373733-.424573-.94831033-.9483104-.94831033-.5237373 0-.9483103.424573-.9483103.94831033 0 2.21340168-.9404762 4.44516661-2.5245125 6.56978674-.5639617.75642486-1.1695655 1.44373706-1.7742869 2.04685873l-.25293039.24764558-.21725725.20462409c-.13205741.12178436-.23766357.21401412-.3114801.27494205-.40391829.33339287-.46109043.93110167-.12769756 1.33501997s.9311017.4610904 1.33502.1276975z" fill="#032e61" fill-rule="nonzero"/><path d="m6.92939755 5.23602286c-.99883434-1.69813555-1.55575394-3.4189883-1.55575394-5.11655442 0-.52373733-.424573-.94831033-.94831033-.94831033s-.94831032.424573-.94831032.94831033c0 2.07115794.65969684 4.10958704 1.81758336 6.07812996.26553176.45143514.84674826.6021396 1.29818339.33660785.45143513-.26553176.60213959-.84674826.33660784-1.29818339z" fill="#032e61" fill-rule="nonzero"/></g></svg>