<svg height="100" viewBox="0 0 100 100" width="100" xmlns="http://www.w3.org/2000/svg" xmlns:xlink="http://www.w3.org/1999/xlink"><mask id="a" fill="#fff"><path d="m24.5804.0556c.3103 1.7081.4756 3.4858.4756 5.3389 0 7.6149167-2.6154274 14.0792583-7.177555 18.6043351l-.606045.5791649h-8.4332v-6.5511c2.5662929-1.7180429 4.334923-4.2237464 5.0597687-7.1850787l.1486313-.6913213h-14.0476v-10.0949z" fill="#fff" fill-rule="evenodd"/></mask><mask id="b" fill="#fff"><path d="m9.4956.059c2.0532 6.1683 7.8068 10.759 14.6044 10.759 3.2192417 0 5.9998583-.777341 8.2413318-2.11311655l.5978682-.37798345 8.4332 6.5511c-4.3181 3.9846-10.2254 6.322-17.2724 6.322-9.9021353 0-18.50934031-5.5102835-22.93405552-13.63268462l-.39064448-.74551538v-6.7628z" fill="#fff" fill-rule="evenodd"/></mask><mask id="c" fill="#fff"><path d="m11.4956.7782v6.7628c-.522 1.566-.8178 3.2393-.8178 4.959 0 1.4330833.2054167 2.8339444.5759722 4.1673403l.2418278.7916597-8.7203 6.7628c-1.7661-3.5235-2.7753-7.511-2.7753-11.7218 0-3.8599.84800833-7.53216597 2.34968976-10.83139763l.42561024-.89040237z" fill="#fff" fill-rule="evenodd"/></mask><mask id="d" fill="#fff"><path d="m23.49 0c6.700381 0 12.377542 2.34630385 16.8085265 6.20720872l.6552735.59039128-7.4878 7.4849c-2.7028-2.5839-6.1451-3.9005-9.976-3.9005-6.5710133 0-12.1664667 4.2897541-14.38684372 10.1475403l-.21755628.6114597-8.7203-6.7628c4.2949-8.5289 13.1225-14.3782 23.3247-14.3782z" fill="#fff" fill-rule="evenodd"/></mask><g fill="none" fill-rule="evenodd"><circle cx="50" cy="50" fill="#fff" r="50"/><path d="m50 0c27.6142375 0 50 22.3857625 50 50s-22.3857625 50-50 50-50-22.3857625-50-50 22.3857625-50 50-50zm0 2c-26.509668 0-48 21.490332-48 48s21.490332 48 48 48 48-21.490332 48-48-21.490332-48-48-48z" fill="#e2e2e2" fill-rule="nonzero"/><path d="m-.058 24.868h25.404v-25.056h-25.404z" fill="#318af5" mask="url(#a)" transform="translate(50.1 45.3)"/><path d="m.726 21.432h40.716v-21.576h-40.716z" fill="#3da751" mask="url(#b)" transform="translate(26 55)"/><path d="m-.058 24.564h11.832v-24.012h-11.832z" fill="#fdb900" mask="url(#c)" transform="translate(24 37.6)"/><path d="m.116 21.46h41.064v-21.576h-41.064z" fill="#ea3e36" mask="url(#d)" transform="translate(26.61 24)"/></g></svg>
