<svg viewbox="0 0 100 100" xmlns="http://www.w3.org/2000/svg"><mask id="a" fill="#fff"><path d="M42.38 1.82c.535 2.945.82 6.01.82 9.205 0 13.13-4.51 24.275-12.375 32.076l-1.045.999H15.24V32.805c4.425-2.962 7.474-7.282 8.724-12.388l.256-1.192H0V1.82z" fill-rule="evenodd"/></mask><mask id="b" fill="#fff"><path d="M19.82 3.55C23.36 14.185 33.28 22.1 45 22.1c5.55 0 10.345-1.34 14.21-3.643l1.03-.652L74.78 29.1C67.335 35.97 57.15 40 45 40c-17.073 0-31.913-9.5-39.541-23.505l-.674-1.285V3.55z" fill-rule="evenodd"/></mask><mask id="c" fill="#fff"><path d="M19.82 4.79v11.66c-.9 2.7-1.41 5.585-1.41 8.55 0 2.47.354 4.886.993 7.185l.417 1.365L4.785 45.21A45.025 45.025 0 0 1 0 25 45.004 45.004 0 0 1 4.051 6.325l.734-1.535z" fill-rule="evenodd"/></mask><mask id="d" fill="#fff"><path d="M40.5 0c11.552 0 21.34 4.045 28.98 10.702l1.13 1.018L57.7 24.625C53.04 20.17 47.105 17.9 40.5 17.9c-11.33 0-20.977 7.396-24.805 17.496l-.375 1.054L.285 24.79C7.69 10.085 22.91 0 40.5 0z" fill-rule="evenodd"/></mask><g fill="none" fill-rule="evenodd"><path d="M-.1 44.6h43.8V1.4H-.1z" fill="#318af5" mask="url(#a)" transform="translate(50 40)"/><path d="M4.7 40.4h70.2V3.2H4.7z" fill="#3da751" mask="url(#b)" transform="translate(5 55)"/><path d="M-.1 45.8h20.4V4.4H-.1z" fill="#fdb900" mask="url(#c)" transform="translate(5 25)"/><path d="M.2 37H71V-.2H.2z" fill="#ea3e36" mask="url(#d)" transform="translate(9.5 5)"/></g></svg>
