<svg height="32" viewBox="0 0 32 32" width="32" xmlns="http://www.w3.org/2000/svg"><g fill="none" fill-rule="evenodd"><circle cx="16.5" cy="16.5" fill="#00a1e0" r="14.5"/><g fill-rule="nonzero"><path d="m16.2600003.89599998c-8.48530309 0-15.36400032 6.87869723-15.36400032 15.36400032 0 8.485303 6.87869723 15.3640002 15.36400032 15.3640002 8.485303 0 15.3640002-6.8786972 15.3640002-15.3640002 0-8.48530309-6.8786972-15.36400032-15.3640002-15.36400032zm0 2.20800004c7.2658583 0 13.1560002 5.89014194 13.1560002 13.15600028 0 7.2658583-5.8901419 13.1560002-13.1560002 13.1560002-7.26585834 0-13.15600028-5.8901419-13.15600028-13.1560002 0-7.26585834 5.89014194-13.15600028 13.15600028-13.15600028z" fill="#032e61"/><path d="m5.53937748 14.8241566c.2972262 0 .55729912.2600729.55729912.5572991v1.1889048c0 .2972262-.26007292.5572991-.55729912.5572991h-1.18890479c-.2972262 0-.55729912-.2600729-.55729912-.5572991v-1.1889048c0-.2972262.26007292-.5572991.55729912-.5572991zm-.26007292-14.8241566c2.89795542 0 5.27576504 2.37780958 5.27576504 5.27576501 0 2.22919648-1.33751793 4.12401349-3.26948821 4.90423229h-.03715327c-.66875895.2972262-1.15175152 1.0031384-1.15175152 1.7833571l-.07430655.1486131c0 .3343795-.2972262.5572992-.59445239.5572992h-1.18890479c-.2972262 0-.52014585-.2229197-.52014585-.5201459v-.5572991c0-1.5604375 1.00313842-2.97226197 2.4892694-3.49240782.4458393-.1486131.8916786-.37153275 1.22605807-.74306549l.03715327-.03715328c.48299257-.55729912.78021877-1.26321134.78021877-2.0434301 0-1.67189737-1.33751789-3.00941525-3.00941525-3.00941525-1.44897771 0-2.67503578 1.04029169-2.9351087 2.41496285v.07430655c-.03715327.22291965-.26007292.40868602-.55729912.40868602h-1.18890479c-.33437947 0-.59445239-.26007292-.55729912-.59445239v-.03715328c.37153275-2.56357595 2.60072923-4.53269951 5.27576501-4.53269951z" fill="#fff" stroke="#fff" stroke-width=".4" transform="translate(11.2 7.52)"/></g></g></svg>