<svg height="32" viewBox="0 0 21 32" width="21" xmlns="http://www.w3.org/2000/svg" xmlns:xlink="http://www.w3.org/1999/xlink"><mask id="a" fill="#fff"><path d="m0 31.4406392h20.5990395v-31.4406392h-20.5990395z" fill="#fff" fill-rule="evenodd"/></mask><g fill="none" fill-rule="evenodd"><g fill="#00a1e0"><path d="m14.9071996 11.1047254c-.5984563 0-1.0841599-.4857037-1.0841599-1.08416 0-1.73248765-1.646297-3.25247994-3.52352-3.25247994-.59845626 0-1.08415993-.48570366-1.08415993-1.08415997 0-.5984563.48570367-1.08415997 1.08415993-1.08415997 3.0849772 0 5.6918399 2.48218426 5.6918399 5.42079988 0 .5984563-.4857037 1.08416-1.08416 1.08416m-4.6076799-8.93618862c-4.33121905 0-8.13119975 3.54628727-8.13119975 7.58911981 0 1.73357181.5686419 3.36414841 1.64358652 4.71718001.35614655.393008 2.29462458 2.6144518 2.9874028 5.0402597h7.00042093c.6922362-2.42635 2.6312563-4.6477938 2.9874028-5.0408017 1.0749446-1.3524896 1.6435865-2.9830662 1.6435865-4.71663801 0-4.04283254-3.7999807-7.58911981-8.1311998-7.58911981"/><path d="m7.04703983 23.8515194h6.50495987v-2.1683199h-6.50495987z" mask="url(#a)"/><path d="m7.04703983 28.1881593h3.25247987 3.25248v-2.1683199h-6.50495987z" mask="url(#a)"/></g><path d="m13.7997302 19.5148795h-7.00042093c-.69277822-2.4258079-2.63125625-4.6472517-2.9874028-5.0402597-1.07494462-1.3530316-1.64358652-2.9836082-1.64358652-4.71718004 0-4.04283254 3.7999807-7.58911981 8.13119975-7.58911981 4.3312191 0 8.1311998 3.54628727 8.1311998 7.58911981 0 1.73357184-.5686419 3.36414844-1.6435865 4.71663794-.3561465.3935501-2.2951666 2.6144518-2.9874028 5.0408018zm-6.75269037 4.3366399h6.50495987v-2.1683199h-6.50495987zm6.50495987 4.3366399h-3.25248-3.25247987v-2.1683199h6.50495987zm-3.25248-28.1881593c-5.58288174 0-10.2995197 4.46836533-10.2995197 9.75743976 0 2.21114424.75999614 4.37675384 2.14067387 6.09894194.01517824.0184307.03035648.0363193.0460768.054208.74861246.8174566 2.69196921 3.3522226 2.69196921 5.2305298v3.7945599 4.3366399c0 .5984563.48516159 1.0841599 1.08415997 1.0841599h3.25247992c0 .5984564.48516159 1.08416 1.08415993 1.08416.5984564 0 1.08416-.4857036 1.08416-1.08416h3.2524799c.5984563 0 1.08416-.4857036 1.08416-1.0841599v-4.3366399-3.7945599c0-1.8696339 1.9433568-4.4103628 2.6925113-5.231614.0151782-.0173465.0308986-.0352352.0455347-.0531238 1.3806777-1.7221881 2.1406739-3.8877977 2.1406739-6.09894194 0-5.28907443-4.716638-9.75743976-10.2995198-9.75743976z" fill="#032e61" mask="url(#a)"/><path d="m10.2995197 4.59976552c-.59845626 0-1.08415993.48570367-1.08415993 1.08415997 0 .59845631.48570367 1.08415997 1.08415993 1.08415997 1.877223 0 3.52352 1.51999229 3.52352 3.25247994 0 .5984563.4857036 1.08416 1.0841599 1.08416s1.08416-.4857037 1.08416-1.08416c0-2.93861562-2.6068627-5.42079988-5.6918399-5.42079988" fill="#fff" mask="url(#a)"/></g></svg>