<svg width="100" height="100" viewBox="0 0 50 50" fill="rgb(0, 161, 224)" version="1.1" id="Layer_1" xmlns="http://www.w3.org/2000/svg" xmlns:xlink="http://www.w3.org/1999/xlink" x="0px" y="0px" xml:space="preserve">
<path d="M25,0C11.2,0,0,11.2,0,25s11.2,25,25,25s25-11.2,25-25S38.8,0,25,0z M37.9,24c0,3.1-2.4,5.6-5.5,5.6c-0.4,0-0.8,0-1.2-0.1
	c-1,1.9-3.4,2.6-5.3,1.7c-1,2.4-3.7,3.5-6,2.5c-1.2-0.5-2.1-1.5-2.6-2.7C17,31,16.7,31,16.4,31c-2.4-0.1-4.3-2.1-4.2-4.5
	c0.1-1.4,0.8-2.7,2-3.5c-1.1-2.5,0.1-5.5,2.7-6.5c2.1-0.9,4.5-0.2,5.9,1.5c0.8-0.9,2-1.4,3.3-1.4c1.7,0,3.2,0.9,4,2.4
	c0.7-0.3,1.5-0.5,2.2-0.5C35.4,18.5,37.8,21,37.9,24z"/>
</svg>
