<svg viewbox="0 0 101 100" xmlns="http://www.w3.org/2000/svg"><path d="M54.51 19.294c6.526 0 12.285 3.631 15.356 8.983 2.687-1.147 5.566-1.911 8.637-1.911 11.9 0 21.497 9.556 21.497 21.407S90.403 69.18 78.503 69.18c-1.536 0-2.88-.191-4.223-.382-2.687 4.778-7.87 8.027-13.82 8.027-2.495 0-4.798-.573-6.91-1.529C50.865 81.604 44.53 86 37.045 86c-7.677 0-14.395-4.778-16.89-11.66-1.152.192-2.304.383-3.455.383C7.486 74.723 0 67.269 0 58.094c0-6.116 3.263-11.468 8.253-14.335a20.132 20.132 0 0 1-1.535-7.645C6.718 25.6 15.355 17 26.104 17c6.717.191 12.284 3.058 15.739 7.645 3.263-3.249 7.677-5.351 12.668-5.351z" fill="#fff"/></svg>
