<svg viewBox="0 0 55.8 55.73" xmlns="http://www.w3.org/2000/svg"><circle cx="27.91" cy="27.85" fill="#00a1e0" r="22.34"/><path d="m28.21 54.78a1 1 0 0 1 .95-1.05 1 1 0 0 1 1 1 1 1 0 0 1 -.95 1 1 1 0 0 1 -1-.95zm-3.1.84a1 1 0 0 1 -.89-1.09 1 1 0 0 1 1.09-.9 1 1 0 0 1 .9 1.1 1 1 0 0 1 -1 .9h-.1zm7.08-1.18a1 1 0 0 1 .81-1.18 1 1 0 0 1 1.17.79 1 1 0 0 1 -.79 1.18h-.19a1 1 0 0 1 -1-.79zm-11.19.47a1 1 0 0 1 -.72-1.22 1 1 0 0 1 1.24-.69 1 1 0 0 1 .73 1.21 1 1 0 0 1 -1 .76 1.07 1.07 0 0 1 -.25-.06zm15-1.4a1 1 0 0 1 .6-1.27 1 1 0 0 1 1.28.6 1 1 0 0 1 -.6 1.28 1 1 0 0 1 -.34.06 1 1 0 0 1 -.86-.67zm-19 .08a1 1 0 0 1 -.53-1.31 1 1 0 0 1 1.3-.53 1 1 0 0 1 .54 1.31 1 1 0 0 1 -.93.61.87.87 0 0 1 -.28-.08zm22.79-1.59a1 1 0 0 1 .4-1.35 1 1 0 0 1 1.36.41 1 1 0 0 1 -.41 1.35 1 1 0 0 1 -.47.12 1 1 0 0 1 -.88-.53zm-26.38-.3a1 1 0 0 1 -.34-1.37 1 1 0 0 1 1.38-.33 1 1 0 0 1 .33 1.37 1 1 0 0 1 -.85.48 1 1 0 0 1 -.52-.15zm29.82-1.7a1 1 0 0 1 .2-1.4 1 1 0 0 1 1.4.2 1 1 0 0 1 -.2 1.4 1 1 0 0 1 -.6.2 1 1 0 0 1 -.8-.4zm-33.23-.71a1 1 0 0 1 -.13-1.41 1 1 0 0 1 1.41-.12 1 1 0 0 1 .13 1.4 1 1 0 0 1 -.77.36 1 1 0 0 1 -.64-.23zm36.3-1.81a1 1 0 0 1 0-1.41 1 1 0 0 1 1.41 0 1 1 0 0 1 0 1.41 1 1 0 0 1 -.71.3 1 1 0 0 1 -.66-.3zm-39.24-1.07a1 1 0 0 1 .08-1.41 1 1 0 0 1 1.41.08 1 1 0 0 1 -.08 1.41 1 1 0 0 1 -.66.25 1 1 0 0 1 -.75-.33zm42-1.87a1 1 0 0 1 -.21-1.4 1 1 0 0 1 1.4-.21 1 1 0 0 1 .21 1.39 1 1 0 0 1 -.81.41 1 1 0 0 1 -.65-.19zm-44.52-1.42a1 1 0 0 1 .29-1.38 1 1 0 0 1 1.38.26 1 1 0 0 1 -.28 1.38 1 1 0 0 1 -.55.16 1 1 0 0 1 -.84-.42zm46.75-1.89a1 1 0 0 1 -.43-1.35 1 1 0 0 1 1.35-.42 1 1 0 0 1 .43 1.35 1 1 0 0 1 -.89.53 1 1 0 0 1 -.46-.11zm-48.76-1.73a1 1 0 0 1 .47-1.33 1 1 0 0 1 1.33.49 1 1 0 0 1 -.47 1.34 1.06 1.06 0 0 1 -.42.09 1 1 0 0 1 -.91-.59zm50.47-1.88a1 1 0 0 1 -.62-1.27 1 1 0 0 1 1.28-.62 1 1 0 0 1 .62 1.27 1 1 0 0 1 -.94.67 1 1 0 0 1 -.34-.05zm-51.92-2a1 1 0 0 1 .68-1.24 1 1 0 0 1 1.24.68 1 1 0 0 1 -.68 1.24 1.45 1.45 0 0 1 -.28 0 1 1 0 0 1 -.95-.69zm53.09-1.82a1 1 0 0 1 -.8-1.16 1 1 0 0 1 1.17-.8 1 1 0 0 1 .8 1.17 1 1 0 0 1 -1 .82.55.55 0 0 1 -.16-.04zm-53.93-2.24a1 1 0 0 1 .86-1.12 1 1 0 0 1 1.12.86 1 1 0 0 1 -.86 1.13h-.13a1 1 0 0 1 -.99-.87zm54.53-1.72a1 1 0 0 1 -1-1 1 1 0 0 1 1-1 1 1 0 0 1 1 1 1 1 0 0 1 -1 1zm-53.77-1.4a1 1 0 0 1 -1-1 1 1 0 0 1 1-1 1 1 0 0 1 1 1 1 1 0 0 1 -1 1zm52.66-3.44a1 1 0 0 1 .88-1.11 1 1 0 0 1 1.11.89 1 1 0 0 1 -.88 1.1h-.12a1 1 0 0 1 -.99-.88zm-52.47-.55a1 1 0 0 1 -.83-1.15 1 1 0 0 1 1.15-.83 1 1 0 0 1 .83 1.15 1 1 0 0 1 -1 .84h-.15zm51.81-3.27a1 1 0 0 1 .66-1.18 1 1 0 0 1 1.23.71 1 1 0 0 1 -.71 1.22 1.15 1.15 0 0 1 -.26 0 1 1 0 0 1 -.92-.75zm-51-.65a1 1 0 0 1 -.64-1.26 1 1 0 0 1 1.26-.64 1 1 0 0 1 .64 1.25 1 1 0 0 1 -1 .7 1.12 1.12 0 0 1 -.26-.05zm49.71-3a1 1 0 0 1 .52-1.31 1 1 0 0 1 1.32.52 1 1 0 0 1 -.55 1.32 1 1 0 0 1 -.4.09 1 1 0 0 1 -.91-.61zm-48.36-.76a1 1 0 0 1 -.45-1.34 1 1 0 0 1 1.34-.43 1 1 0 0 1 .45 1.34 1 1 0 0 1 -.89.55 1 1 0 0 1 -.45-.12zm46.55-2.63a1 1 0 0 1 .32-1.38 1 1 0 0 1 1.38.32 1 1 0 0 1 -.32 1.38 1 1 0 0 1 -.53.15 1 1 0 0 1 -.85-.47zm-44.63-.88a1 1 0 0 1 -.27-1.4 1 1 0 0 1 1.39-.24 1 1 0 0 1 .27 1.38 1 1 0 0 1 -.82.43 1 1 0 0 1 -.57-.17zm2.41-3.19a1 1 0 0 1 0-1.42 1 1 0 0 1 1.41 0 1 1 0 0 1 0 1.42 1 1 0 0 1 -.72.31 1 1 0 0 1 -.69-.31zm2.85-2.8a1 1 0 0 1 .17-1.41 1 1 0 0 1 1.41.14 1 1 0 0 1 -.17 1.41 1 1 0 0 1 -.62.21 1 1 0 0 1 -.79-.35zm3.24-2.35a1 1 0 0 1 .37-1.36 1 1 0 0 1 1.37.37 1 1 0 0 1 -.38 1.37 1 1 0 0 1 -.49.13 1 1 0 0 1 -.87-.51zm23.65-1.18a1 1 0 0 1 -.56-1.3 1 1 0 0 1 1.29-.56 1 1 0 0 1 .57 1.3 1 1 0 0 1 -.93.64 1.21 1.21 0 0 1 -.37-.08zm-20.11-.66a1 1 0 0 1 .58-1.29 1 1 0 0 1 1.3.57 1 1 0 0 1 -.57 1.29.92.92 0 0 1 -.36.07 1 1 0 0 1 -.95-.64zm16.44-.49a1 1 0 0 1 -.75-1.19 1 1 0 0 1 1.19-.75 1 1 0 0 1 .81 1.2 1 1 0 0 1 -1 .77.83.83 0 0 1 -.25-.03zm-12.66-.81a1 1 0 0 1 .77-1.19 1 1 0 0 1 1.19.76 1 1 0 0 1 -.76 1.2h-.22a1 1 0 0 1 -.98-.77zm8.85.22a1 1 0 0 1 -.94-1.06 1 1 0 0 1 1.1-.94 1 1 0 0 1 .9 1.09 1 1 0 0 1 -1 .91h-.08zm-4.94-.93a1 1 0 0 1 1-1.07 1 1 0 0 1 1 .93 1 1 0 0 1 -.91 1.07h-.09a1 1 0 0 1 -1-.93z" fill="#cf451d"/><g fill="#80d52f"><path d="m18.55 29c2.2-3.56-1.86-6.09-4.4-6.77s-3.22-6.44-2.54-8.47l-.4-.77a22.34 22.34 0 0 0 10.12 36.22c3.33-4.52-3.67-10.08-5.66-12.56s.68-4.06 2.88-7.65z"/><path d="m45.13 21c-1.43-4.36-.82-5.77.32-7a22.34 22.34 0 0 0 -24.89-7.25c-.64 5.18 12.69 6.52 11.38 12.1-1.21 5.12 8.35 7.86 6.17 11.49s.24 4.72 2.54 3.63 6.41-6.97 4.48-12.97z"/><path d="m46.72 39.89c-4.31-.42-9.54 1.34-14.3-4.1s-5.42 8.7-4.53 14.29c.37 0 .73.07 1.1.08a22.27 22.27 0 0 0 17.73-10.27z"/></g><path d="m47.9 3.48-1 1-1-1a2.38 2.38 0 0 0 -3.37 0 2.38 2.38 0 0 0 0 3.37l4.38 4.38 3.37-3.36 1-1a2.38 2.38 0 0 0 0-3.37 2.38 2.38 0 0 0 -3.38-.02z" fill="#cf451d"/></svg>