<svg viewBox="0 0 44.84 46.47" xmlns="http://www.w3.org/2000/svg"><path d="m40.79 42.33v-36.24a6.09 6.09 0 0 0 -6.09-6.09h-30.7l.94.27a3.81 3.81 0 0 1 2.79 3.67l.07 10.06v27.88a4.58 4.58 0 0 0 4.57 4.58h28.41" fill="#c2e8ff"/><g fill="#00a1e0"><path d="m7.76 4a3.92 3.92 0 0 0 -3.88-4 3.92 3.92 0 0 0 -3.88 4z"/><path d="m11.86 46.47a3.92 3.92 0 0 0 3.88-4h29.1a3.91 3.91 0 0 1 -3.88 4z"/><path d="m33.43 10.75h-17.63a1 1 0 0 1 0-2h17.63a1 1 0 0 1 0 2z"/><path d="m25 34.52h-9.2a1 1 0 0 1 0-2h9.2a1 1 0 0 1 0 2z"/><path d="m34.26 18.51h-18.46a1 1 0 0 1 0-2h18.46a1 1 0 0 1 0 2z"/><path d="m21.77 26.27h-6a1 1 0 0 1 0-2h6a1 1 0 0 1 0 2z"/></g><path d="m35.68 39.02-3.29-2.26-3.36 2.26v-6.86h6.65z" fill="#e7a536"/><circle cx="32.23" cy="27.52" fill="#ebbc48" r="6.24"/><circle cx="32.23" cy="27.52" fill="#f9e17d" r="4.24"/><path d="m32.23 25.2.58 1.78h1.87l-1.52 1.09.58 1.78-1.51-1.1-1.51 1.1.58-1.78-1.52-1.09h1.87z" fill="#e7a536"/></svg>