<svg viewBox="0 0 69.38 45.61" xmlns="http://www.w3.org/2000/svg"><path d="m4.9.09a3.13 3.13 0 0 1 -4.38 0 .3.3 0 0 0 -.43 0 .31.31 0 0 0 0 .44 3.1 3.1 0 0 1 0 4.37.3.3 0 0 0 0 .43.31.31 0 0 0 .42 0 3.11 3.11 0 0 1 4.37 0 .31.31 0 0 0 .44 0 .31.31 0 0 0 0-.44 3.1 3.1 0 0 1 0-4.37.3.3 0 0 0 0-.43.31.31 0 0 0 -.42 0z" fill="#ebbc48"/><path d="m5.15 9.48a1 1 0 0 1 -1.44 0 .11.11 0 0 0 -.15 0 .1.1 0 0 0 0 .14 1 1 0 0 1 0 1.45.1.1 0 0 0 0 .14.11.11 0 0 0 .14 0 1 1 0 0 1 1.45 0 .11.11 0 0 0 .15 0 .11.11 0 0 0 0-.15 1 1 0 0 1 0-1.44.12.12 0 0 0 0-.15.11.11 0 0 0 -.15.01z" fill="#ebbc48"/><path d="m10.77.2a1 1 0 0 1 -1.45 0 .11.11 0 0 0 -.15 0 .1.1 0 0 0 0 .14 1 1 0 0 1 0 1.45.11.11 0 0 0 .15.15 1 1 0 0 1 1.45 0 .1.1 0 0 0 .14 0 .11.11 0 0 0 0-.15 1 1 0 0 1 0-1.45.1.1 0 0 0 0-.14.1.1 0 0 0 -.14 0z" fill="#ebbc48"/><path d="m39.27 43.93h-.08a39.19 39.19 0 0 0 -23.67-.25l-6.39 2v-35.48l5.87-1.52a39.13 39.13 0 0 1 24.27 1.52z" fill="#ebbc48"/><path d="m39.27 39.31-3.33-.8a40.7 40.7 0 0 0 -19.77.2l-2.29.6v-33.74a36.18 36.18 0 0 1 25.2 0l.14.05z" fill="#c2e8ff"/><path d="m39.24 43.93h.12a39.08 39.08 0 0 1 23.64-.26l6.36 1.94v-35.41l-5.84-1.52a39.21 39.21 0 0 0 -24.24 1.5z" fill="#f9e17d"/><path d="m39.24 39.31 2.68-.68a40.7 40.7 0 0 1 19.74-.06l3 .74v-33.74l-.19-.07a36.21 36.21 0 0 0 -25.21.07z" fill="#e3f7ff"/><g fill="#8cd3f8"><path d="m50.54 12.56h-6a1 1 0 0 1 0-2h6a1 1 0 0 1 0 2z"/><path d="m57.91 18.54h-13.42a1 1 0 0 1 0-2h13.42a1 1 0 0 1 0 2z"/><path d="m57.91 24.53h-13.42a1 1 0 0 1 0-2h13.42a1 1 0 0 1 0 2z"/><path d="m57.91 30.51h-13.42a1 1 0 0 1 0-2h13.42a1 1 0 0 1 0 2z"/><path d="m33.6 12.56h-13.42a1 1 0 0 1 0-2h13.42a1 1 0 0 1 0 2z"/><path d="m33.6 18.54h-13.42a1 1 0 0 1 0-2h13.42a1 1 0 0 1 0 2z"/><path d="m33.6 24.53h-13.42a1 1 0 0 1 0-2h13.42a1 1 0 0 1 0 2z"/><path d="m33.6 30.51h-13.42a1 1 0 0 1 0-2h13.42a1 1 0 0 1 0 2z"/></g><path d="m53.69 2.43v11.89l3.54-3.4 3.4 3.4v-10.87a37.14 37.14 0 0 0 -6.94-1.02z" fill="#00a1e0"/></svg>