<svg height="32" viewBox="0 0 31 32" width="31" xmlns="http://www.w3.org/2000/svg"><g fill="none" fill-rule="evenodd"><path d="m.87562305 26.2362426s5.9276572 4.4512838 14.00996885 4.4512838c8.0823117 0 14.0099689-4.4512838 14.0099689-4.4512838v-2.2262505c0-11.1288182-6.4663208-18.91886919-14.0099689-22.25641916-7.54364803 3.33754997-14.00996885 11.12760096-14.00996885 22.25641916z" fill="#00a1e0"/><path d="m16.7005576 24.4416531-.987907-.4494218c-.3352968-.1548143-.4846068-.5586883-.3334038-.9019933.0250822-.0570559.0576181-.1101144.0967794-.1579639l1.2186158-1.5033221c.2899832-.3573569.3306826-.86226.1018668-1.2634689h7.7209367l-4.8672461-7.1980177-2.147485 3.175026-4.3432413-6.49784024-7.03011172 10.52083194h8.77758312l-1.0978191 1.3482655c-1.0002114 1.2297926-.8371772 3.0567953.3640467 4.0808957.2001843.1706833.4223746.3121725.6604188.420591l.987907.4494218c.3364799.1539663.487328.5580826.3369531.9024778-.0087551.02023-.018575.0399755-.0293414.0593576l-1.2044183 2.1574671c-.1896545.3429416-.1864601.7635326.0084002 1.1035668h1.8669667l1.2044183-2.1586784c.774945-1.3889679.3034708-3.1581878-1.053097-3.9517626-.0824636-.0482129-.1674118-.0923071-.2542529-.1317981z" fill="#fff"/><g fill="#032e61"><path d="m18.3880841 15.6163111-4.1160097-6.34938202c-.3363659-.52123473-1.0093346-.65582762-1.5030425-.30070753-.111964.08055559-.2085256.18250095-.284827.30070753l-7.04129114 10.86374762c-.33766919.5212348-.21113211 1.2328509.28257579 1.5892218.4937079.3564961 1.16762451.223029 1.5052937-.2982058l6.14676405-9.4841705 3.6894802 5.691428z"/><path d="m25.1452402 21.0428753c-.3672668.0003718-.7111665-.1824927-.9200021-.4890049l-4.1141951-6.0298113-4.1070994 6.0298113c-.3858626.4899975-1.0903003.5698222-1.5733014.1782712-.4374903-.3546802-.5493097-.9830985-.261809-1.4707372l5.0330961-7.3778939c.3541763-.5142055 1.0521299-.6397154 1.5588651-.2803177.1075375.0762245.2011281.1711949.2762453.2803177l5.0332184 7.3778939c.3513625.5163161.2237612 1.2236901-.2850538 1.5802324-.1863249.130724-.4073945.2007413-.6338471.2012385z"/><path d="m28.7330335 22.7964482h-26.81937733c-.59263573-.0240169-1.05702935-.6322067-1.03743518-1.3586116.01865553-.6927523.47237209-1.2488814 1.03743518-1.2717478h26.81937733c.5926358.0240169 1.0571467.6322067 1.0375525 1.3586115-.0186555.6927524-.4724894 1.2488815-1.0375525 1.2717479"/><path d="m2.1895707 25.3484277c1.50720038.9825467 6.63814625 3.9707168 13.1338327 3.9707168 6.4956865 0 11.6266324-2.9893983 13.1338328-3.9707168v-1.6445376c0-11.1493259-6.703989-18.22746953-13.1338328-21.2303779-6.4298437 3.00290837-13.1338327 10.081052-13.1338327 21.2303779zm13.1338327 6.2158361c-8.4673775 0-14.61469599-4.513574-14.87208128-4.7063987-.28348297-.2108791-.45132212-.5483839-.45132212-.9076276v-2.2463474c0-12.4918531 7.69282739-20.32397856 14.8924327-23.4901125.275103-.12171297.5868385-.12171297.8619415 0 7.1996053 3.16613394 14.8924327 10.9982594 14.8924327 23.4901125v2.2463474c0 .3592437-.1678392.6967485-.4513221.9076276-.2573853.1928247-6.4047038 4.7063987-14.8720814 4.7063987z"/></g></g></svg>