<svg height="33" viewBox="0 0 32 33" width="32" xmlns="http://www.w3.org/2000/svg"><g fill="none" fill-rule="evenodd"><path d="m15.0818965 17.9590757c0-3.590792-2.9285609-6.5018457-6.54094824-6.5018457-3.61238733 0-6.54094826 2.9110537-6.54094826 6.5018457v3.5464613h13.0818965z" fill="#00a1e0"/><path d="m16.2046265 17.9590757c0-4.2123707-3.4327262-7.6245756-7.66367824-7.6245756-4.230952 0-7.66367824 3.4122049-7.66367824 7.6245756v3.5464613c0 .6200666.50266333 1.12273 1.12272998 1.12273h13.0818965c.6200667 0 1.12273-.5026634 1.12273-1.12273zm-2.24546 2.4237313h-10.83643652v-2.4237313c0-2.9692134 2.42439561-5.3791157 5.41821828-5.3791157 2.99382264 0 5.41821824 2.4099023 5.41821824 5.3791157z" fill="#032e61" fill-rule="nonzero"/><path d="m13.2980015 6.72861502c0 2.61137765-2.1299706 4.72861498-4.75705324 4.72861498-2.62708267 0-4.75705328-2.11723733-4.75705328-4.72861498 0-2.61137764 2.12997061-4.72861502 4.75705328-4.72861502 2.62708264 0 4.75705324 2.11723738 4.75705324 4.72861502" fill="#fff"/><path d="m14.4207315 6.72861502c0 3.23295628-2.6341359 5.85134498-5.87978324 5.85134498s-5.87978326-2.6183887-5.87978326-5.85134498c0-3.23295627 2.63413592-5.851345 5.87978326-5.851345s5.87978324 2.61838873 5.87978324 5.851345zm-2.2454599 0c0-1.98979902-1.6258053-3.60588504-3.63432334-3.60588504-2.00851801 0-3.6343233 1.61608602-3.6343233 3.60588504s1.62580529 3.60588508 3.6343233 3.60588508c2.00851804 0 3.63432334-1.61608606 3.63432334-3.60588508z" fill="#032e61" fill-rule="nonzero"/><path d="m28.7584247 6.72861502c0 2.61137765-2.1299706 4.72861498-4.7570533 4.72861498-2.6270826 0-4.7570533-2.11723733-4.7570533-4.72861498 0-2.61137764 2.1299707-4.72861502 4.7570533-4.72861502 2.6270827 0 4.7570533 2.11723738 4.7570533 4.72861502" fill="#fff"/><path d="m29.8811547 6.72861502c0 3.23295628-2.6341359 5.85134498-5.8797833 5.85134498-3.2456473 0-5.8797832-2.6183887-5.8797832-5.85134498 0-3.23295627 2.6341359-5.851345 5.8797832-5.851345 3.2456474 0 5.8797833 2.61838873 5.8797833 5.851345zm-2.24546 0c0-1.98979902-1.6258053-3.60588504-3.6343233-3.60588504s-3.6343233 1.61608602-3.6343233 3.60588504 1.6258053 3.60588508 3.6343233 3.60588508 3.6343233-1.61608606 3.6343233-3.60588508z" fill="#032e61" fill-rule="nonzero"/><path d="m30.5423197 17.9590757c0-3.590792-2.9285609-6.5018457-6.5409483-6.5018457-3.6123873 0-6.5409482 2.9110537-6.5409482 6.5018457v3.5464613h13.0818965z" fill="#fff"/><path d="m31.6650497 17.9590757c0-4.2123707-3.4327263-7.6245756-7.6636783-7.6245756s-7.6636782 3.4122049-7.6636782 7.6245756v3.5464613c0 .6200666.5026633 1.12273 1.12273 1.12273h13.0818965c.6200666 0 1.12273-.5026634 1.12273-1.12273zm-13.0818965 2.4237313v-2.4237313c0-2.9692134 2.4243956-5.3791157 5.4182182-5.3791157 2.9938227 0 5.4182183 2.4099023 5.4182183 5.3791157v2.4237313z" fill="#032e61" fill-rule="nonzero"/><path d="m21.0282131 16.7769219c0 2.6113777-2.1299706 4.7286151-4.7570533 4.7286151-2.6270826 0-4.7570532-2.1172374-4.7570532-4.7286151 0-2.6113776 2.1299706-4.728615 4.7570532-4.728615 2.6270827 0 4.7570533 2.1172374 4.7570533 4.728615" fill="#00a1e0"/><path d="m22.1509431 16.7769219c0 3.2329563-2.6341359 5.8513451-5.8797833 5.8513451-3.2456473 0-5.8797832-2.6183888-5.8797832-5.8513451 0-3.2329562 2.6341359-5.851345 5.8797832-5.851345 3.2456474 0 5.8797833 2.6183888 5.8797833 5.851345zm-2.24546 0c0-1.989799-1.6258052-3.605885-3.6343233-3.605885-2.008518 0-3.6343233 1.616086-3.6343233 3.605885 0 1.9897991 1.6258053 3.6058851 3.6343233 3.6058851 2.0085181 0 3.6343233-1.616086 3.6343233-3.6058851z" fill="#032e61" fill-rule="nonzero"/><path d="m22.8121081 28.0073826c0-3.590792-2.9285609-6.5018456-6.5409483-6.5018456-3.6123873 0-6.54094822 2.9110536-6.54094822 6.5018456v3.5464613h13.08189652z" fill="#00a1e0"/><path d="m23.9348381 28.0073826c0-4.2123706-3.4327263-7.6245756-7.6636783-7.6245756s-7.6636782 3.412205-7.6636782 7.6245756v3.5464613c0 .6200666.50266333 1.12273 1.12272998 1.12273h13.08189652c.6200667 0 1.12273-.5026634 1.12273-1.12273zm-13.0818965 2.4237313v-2.4237313c0-2.9692134 2.4243956-5.3791156 5.4182182-5.3791156 2.9938227 0 5.4182183 2.4099022 5.4182183 5.3791156v2.4237313z" fill="#032e61" fill-rule="nonzero"/></g></svg>