<svg width="140" height="20" xmlns="http://www.w3.org/2000/svg"><g fill-rule="nonzero" fill="none"><path d="M35.08 5.546c-.04-.374.096-.745.369-1.011a1.302 1.302 0 0 1 1.039-.358 1.386 1.386 0 0 1 1.196 1.218c-.045.684-.633 1.214-1.337 1.206a1.161 1.161 0 0 1-.869-.26c-.24-.2-.384-.488-.397-.795Zm71.316 9.9a5.42 5.42 0 0 1-2.815 3.548 4.534 4.534 0 0 1-3.672-.617c-1.407-2.081-.394-5.669 0-8.065a1.192 1.192 0 0 1-1.407-.192c-.197.192-.957 3.3-1.267 4.108-.183.48-.31.85-.422 1.15-.616 2.23-2.754 3.733-5.122 3.602-1.77.036-3.446-.772-4.489-2.164h-.113a71.211 71.211 0 0 1-9.343 2.465c-.577 0-.985-1.15-1.168-1.972-.366.42-.798.781-1.28 1.068a4.71 4.71 0 0 1-2.097.411c-1.272-.033-2.323-.974-2.463-2.204a6.184 6.184 0 0 1-3.785 2.013 1.968 1.968 0 0 1-1.745-1.206c-.36.375-.762.71-1.196 1-.943.592-2.044.901-3.166.89-1.342.022-2.541-.812-2.955-2.054a3.256 3.256 0 0 1-2.11 1.37 4.88 4.88 0 0 1-2.52-.726c-.842.514-1.82.78-2.814.767a3.06 3.06 0 0 1-2.097-.767v.767c-.506.287-.647.41-.985.41a4.218 4.218 0 0 1-.774-.082 4.025 4.025 0 0 1-.408-1.37c-.357.37-.753.7-1.182.987-.943.591-2.044.9-3.166.89-1.37.02-2.587-.846-2.983-2.123-.393.48-.87.887-1.407 1.205a2.878 2.878 0 0 1-3.18.083 2.609 2.609 0 0 1-.62-.808c-.284.273-.6.512-.942.712a4.71 4.71 0 0 1-2.097.41c-1.255-.06-2.276-1.002-2.406-2.218a6.184 6.184 0 0 1-3.786 2.013 1.916 1.916 0 0 1-1.674-1.082 6.508 6.508 0 0 1-1.703 1.37 4.534 4.534 0 0 1-3.673-.616c-1.407-2.082-.394-5.67 0-8.066a1.192 1.192 0 0 1-1.407-.192c-.197.192-.957 3.3-1.266 4.108-.507 1.37-.605 1.876-1.196 2.273-.31.22-1.914.63-1.998-.15.647-.726 1.153-1.821 1.984-5.094.267-1.096 0-4.547.985-4.643 1.407 0 1.604.959 2.518 1.11 1.605.26 2.04-.836 3.265-.877.69 0 1.252 1.164 1.154 1.986a8.479 8.479 0 0 1-.605 1.794 13.749 13.749 0 0 0-.873 5.245c.127.985 1.042.63 1.605.178a4.75 4.75 0 0 0 .52-.507 6.744 6.744 0 0 1 0-.877c-.042-3.765 2.336-7.791 5.896-7.791.754.038 1.458.38 1.942.944 0-.219.732-.41.985-.41.493 0 1.224.137 1.224.479 0 .794-.928 4.642-.928 6.587 0 1.37.577 1.794.914 1.794.241-.026.47-.117.662-.26.135-.116.262-.239.38-.37 0-2.068.647-7.012 1.407-7.737.295 0 2.265 0 2.406.37.45.63-.915 5.641-.915 7.243.127.74.507.89 1.408.507.357-.253.663-.569.9-.931a25.125 25.125 0 0 1-.112-4.286 17.992 17.992 0 0 1 2.983-9.312A3.925 3.925 0 0 1 44.016 0c1.337 0 2.097 1.835 1.956 4.738-.216 3.777-1.79 7.359-4.447 10.12.197 1 .465 1.904 1.647 1.876a3.38 3.38 0 0 0 1.914-.643c.37-.33.713-.688 1.027-1.069 0-.588 0-1.15.07-1.657.183-2.738.465-6.696.647-8.942.183-2.246.324-3.807 1.858-3.807 1.083 0 1.773.247 1.604.85a41.536 41.536 0 0 0-1.154 7.024l-.183 1.603a5.085 5.085 0 0 1 3.673-1.616 3.4 3.4 0 0 1 2.644.992 3.206 3.206 0 0 1 .916 2.61 7.599 7.599 0 0 1-1.224 4.107c.152.152.359.24.577.247.844 0 1.407-.657 1.787-1.219a24.685 24.685 0 0 1-.127-4.34 17.978 17.978 0 0 1 2.983-9.313A3.925 3.925 0 0 1 63 .027c1.337 0 2.096 1.835 1.956 4.739-.188 3.788-1.742 7.391-4.39 10.174.196 1 .464 1.904 1.646 1.876a3.386 3.386 0 0 0 1.843-.725c.208-.177.401-.369.577-.576a6.784 6.784 0 0 1 0-.808c-.07-3.765 2.308-7.791 5.868-7.791.754.04 1.457.382 1.942.944 0-.219.732-.41.985-.41.492 0 1.224.137 1.224.479 0 .794-.929 4.642-.929 6.587 0 1.37.577 1.794.915 1.794.24-.026.47-.117.661-.26.37-.33.714-.688 1.028-1.069a1.18 1.18 0 0 1 .717-.506c.38 0 .591.205.605.616 1.408-2.04 3.73-4.957 3.73-4.957s-4.475.725-4.982.725a1.027 1.027 0 0 1-.929-.917c0-.37 0-1.096.45-1.37a44.308 44.308 0 0 1 8.444-1.109c.844.22.76 1.507.816 2.191.056.685-4.588 6.752-4.588 6.752a44.535 44.535 0 0 0 5.756-1.206 5.785 5.785 0 0 1-.24-1.369c-.126-3.3 1.408-6.751 5.179-6.847a2.723 2.723 0 0 1 1.937.814c.505.517.771 1.212.736 1.925a4.823 4.823 0 0 1-1.407 3.286 18.004 18.004 0 0 1-2.307 2.41c.347.838 1.213 1.36 2.138 1.288a3.361 3.361 0 0 0 1.844-.493 13.46 13.46 0 0 0 1.801-4.889c.267-1.096 0-4.546.985-4.642 1.407 0 1.604.958 2.519 1.109 1.562.233 2.012-.876 3.25-.876.69 0 1.253 1.164 1.154 1.985a8.465 8.465 0 0 1-.605 1.794 13.749 13.749 0 0 0-.872 5.245c.126.986 1.041.63 1.604.178a9.53 9.53 0 0 0 1.027-1.068c.162-.254.42-.436.718-.507.45-.027.661.26.577.89l.014.014Zm-77.788-4.614c0-.356-.225-.917-.465-.917-1.407 0-2.94 2.355-2.94 4.847 0 .59 0 .808.309.808 1.52 0 2.899-2.67 3.096-4.656v-.082Zm12.538 1.178a16.108 16.108 0 0 0 2.744-6.6 4.219 4.219 0 0 0-.212-2.603 9.988 9.988 0 0 0-1.547 2.74 16.215 16.215 0 0 0-.971 6.463h-.014Zm12.284.78a1.64 1.64 0 0 0-.379-1.272 1.733 1.733 0 0 0-1.211-.604c-1.595.229-2.762 1.582-2.716 3.15 0 1.465.718 1.93 1.675 1.93 1.646-.013 2.645-1.93 2.645-3.204h-.014Zm6.698-.78a16.094 16.094 0 0 0 2.744-6.6 4.22 4.22 0 0 0-.225-2.603 9.958 9.958 0 0 0-1.534 2.74 16.229 16.229 0 0 0-.97 6.463h-.015Zm11.032-1.178c0-.356-.225-.917-.464-.917-1.407 0-2.941 2.355-2.941 4.847 0 .59 0 .808.31.808 1.505 0 2.898-2.67 3.095-4.656v-.082Zm19.616.63a4.66 4.66 0 0 0 .746-1.972c0-.246-.197-.356-.31-.356-1.716-.192-2.293 3.26-2.096 4.355a10.12 10.12 0 0 0 1.674-2.027h-.014ZM14.41 5.546c.6.06 1.2-.096 1.689-.438a4.399 4.399 0 0 0-1.182-2.492 9.239 9.239 0 0 0-2.533-.33c-.422 0-2.814.083-4.221.247-2.14.247-5.63.658-7.318 1.616-.407.19-.714.538-.844.959 1.224 1.054 2.364.78 3.518 1.054.535 0 1.998-.26 2.955-.465.083.984.083 1.973 0 2.958 0 1.109-.127 3.341-.155 4.026 0 1.37-.535 3.629 0 5.203.277.642.706 1.21 1.253 1.657.442.079.894.079 1.336 0 .236-.078.458-.189.662-.328.183-1.246 0-4.766 0-5.82 0-1.055.084-4.108.126-5.34.057-.913.057-1.828 0-2.74 1.914-.232 3.983-.37 4.714.233Z" fill="#003764"/><path d="M139.274 14.84c-.318.073-.594.26-.768.52-.782 1.04-2.045 1.67-3.401 1.697-.995.07-1.926-.47-2.305-1.336a19.05 19.05 0 0 0 2.504-2.484c.961-.904 1.52-2.116 1.565-3.392a2.576 2.576 0 0 0-.765-2.002 2.937 2.937 0 0 0-2.08-.843c-4.041.093-5.692 3.66-5.607 7.078.03.532.136 1.057.313 1.563-.84.908-1.422 1.335-1.778 1.335-1.352 0-.94-2.55-.84-3.886.1-1.335.484-4.207.171-4.594a4.812 4.812 0 0 0-2.447-1.229c-.626 0-1.978.948-3.102 2.31.013-.329-.03-.658-.128-.974a4.87 4.87 0 0 0-2.547-1.403c-1.612.706-2.964 1.845-3.885 3.272 0-.654.342-2.67 0-2.67a7.395 7.395 0 0 0-3.173.387 17.399 17.399 0 0 0-.17 3.78c-.143 2.604-.584 5.555.34 7.144a3.427 3.427 0 0 0 2.462-.36 22.51 22.51 0 0 1 .982-5.182 6.266 6.266 0 0 1 2.234-2.778c.285 0 .313.841.27 1.202-.113 1.736-.483 6.37 0 6.891.484.521 2.434 0 2.846-.107.225-1.446.353-2.905.385-4.367.296-1.423 1.093-2.711 2.262-3.66.285 0 .356.842.313 1.203 0 1.736-.17 5.342.242 6.197.41.717 1.184 1.187 2.049 1.242.854.009 1.706-.09 2.533-.294a4.319 4.319 0 0 0 1.935-1.67c1.136 1.395 2.911 2.198 4.78 2.164 2.565.115 4.863-1.474 5.507-3.806.128-.641-.185-.948-.697-.948Zm-5.435-5.57c.113 0 .27.12.341.361a4.655 4.655 0 0 1-.754 2.043c-.504.77-1.111 1.474-1.807 2.097-.185-1.162.413-4.7 2.22-4.5Z" fill="#00A1DF"/><circle fill="#00A1DF" cx="107.8" cy="18.2" r="1.4"/></g></svg>